<svg width="235" height="221" viewBox="0 0 235 221" fill="none" xmlns="http://www.w3.org/2000/svg">
<circle opacity="0.1" cx="5" cy="5" r="5" transform="matrix(1 0 0 -1 175 93)" fill="#27308C"/>
<circle opacity="0.2" cx="3" cy="3" r="3" transform="matrix(1 0 0 -1 91 204)" fill="#27308C"/>
<path d="M168.454 50.3514C168.454 49.359 168.06 48.4074 167.358 47.7057C166.657 47.004 165.705 46.6098 164.713 46.6098C163.72 46.6098 162.769 47.004 162.067 47.7057C161.365 48.4074 160.971 49.359 160.971 50.3514C160.971 51.3437 161.365 52.2953 162.067 52.997C162.769 53.6987 163.72 54.0929 164.713 54.0929C165.705 54.0929 166.657 53.6987 167.358 52.997C168.06 52.2953 168.454 51.3437 168.454 50.3514Z" stroke="#FFE2E7" stroke-width="2.86486"/>
<path d="M132.346 201.863C135.554 208.251 143.37 208.927 147.942 203.604C149.604 201.662 150.4 198.293 149.672 195.64C149.489 194.956 149.363 194.355 149.294 193.835" stroke="#FFE2E7" stroke-width="2.86486"/>
<path d="M149.294 193.835L146.727 190.615" stroke="#F2D6DC" stroke-width="2.86486"/>
<path d="M131.326 197.984L132.346 201.863" stroke="#F2D6DC" stroke-width="2.86486"/>
<path d="M146.727 190.615C145.484 190.099 144.286 189.217 143.072 188.885C136.832 187.177 131.732 191.606 131.326 197.984" stroke="#FFE2E7" stroke-width="2.86486"/>
<path d="M26.9067 120.818C26.8895 118.847 26.0743 116.964 24.6406 115.583C23.2069 114.202 21.272 113.436 19.2617 113.453C18.2662 113.462 17.2822 113.663 16.3658 114.044C15.4494 114.426 14.6185 114.98 13.9207 115.676C13.2228 116.373 12.6716 117.197 12.2986 118.102C11.9255 119.007 11.7379 119.975 11.7464 120.951C11.7636 122.921 12.5787 124.805 14.0124 126.186C15.4461 127.567 17.381 128.333 19.3914 128.315C20.3868 128.307 21.3708 128.106 22.2872 127.725C23.2036 127.343 24.0345 126.788 24.7324 126.092C25.4302 125.396 25.9814 124.572 26.3545 123.667C26.7276 122.762 26.9152 121.794 26.9067 120.818Z" stroke="#FFE2E7" stroke-width="2.86486"/>
<path d="M167.678 189.125C167.763 189.039 167.823 188.931 167.856 188.807C167.889 188.683 167.893 188.545 167.868 188.401C167.844 188.257 167.791 188.11 167.713 187.968C167.636 187.826 167.534 187.692 167.415 187.574C167.174 187.336 166.875 187.176 166.584 187.13C166.293 187.083 166.033 187.154 165.862 187.327C165.777 187.413 165.717 187.521 165.684 187.645C165.652 187.769 165.647 187.907 165.672 188.051C165.696 188.195 165.749 188.342 165.827 188.484C165.905 188.626 166.006 188.759 166.125 188.877C166.366 189.116 166.665 189.276 166.956 189.322C167.248 189.368 167.507 189.297 167.678 189.125Z" stroke="#F2F3F5" stroke-width="2.86486"/>
<path d="M169.922 191.148C169.982 191.073 170.016 190.979 170.023 190.871C170.029 190.764 170.008 190.644 169.96 190.519C169.913 190.394 169.84 190.266 169.745 190.143C169.65 190.02 169.536 189.904 169.409 189.802C169.281 189.699 169.144 189.613 169.003 189.547C168.863 189.481 168.722 189.436 168.59 189.417C168.458 189.397 168.336 189.402 168.232 189.432C168.128 189.462 168.044 189.515 167.984 189.59C167.924 189.664 167.89 189.758 167.883 189.866C167.876 189.974 167.898 190.094 167.945 190.219C167.993 190.344 168.066 190.472 168.161 190.595C168.255 190.718 168.37 190.834 168.497 190.936C168.624 191.038 168.762 191.125 168.902 191.191C169.043 191.257 169.183 191.301 169.316 191.321C169.448 191.34 169.57 191.335 169.674 191.306C169.778 191.276 169.862 191.222 169.922 191.148Z" stroke="#F2F3F5" stroke-width="2.86486"/>
<path d="M163.67 195.671C163.718 195.619 163.74 195.544 163.733 195.448C163.726 195.353 163.691 195.239 163.631 195.115C163.57 194.99 163.485 194.856 163.379 194.722C163.274 194.587 163.151 194.453 163.017 194.329C162.883 194.204 162.741 194.091 162.599 193.996C162.457 193.901 162.317 193.826 162.188 193.774C162.06 193.723 161.944 193.696 161.848 193.697C161.753 193.697 161.678 193.724 161.63 193.776C161.582 193.827 161.561 193.903 161.568 193.999C161.574 194.094 161.609 194.207 161.67 194.332C161.73 194.457 161.816 194.59 161.921 194.725C162.027 194.86 162.15 194.993 162.284 195.118C162.418 195.242 162.56 195.355 162.702 195.451C162.844 195.546 162.983 195.621 163.112 195.673C163.241 195.724 163.357 195.75 163.452 195.75C163.548 195.75 163.622 195.723 163.67 195.671Z" stroke="#F2F3F5" stroke-width="2.86486"/>
<path d="M118.829 165.943C129.872 162.711 137.697 156.002 142.304 145.814C144.63 140.661 145.539 135.258 145.031 129.605" stroke="#8DB501" stroke-width="2.86486"/>
<path d="M145.031 129.605C144.619 121.595 141.914 113.923 136.66 108.302C135.308 106.858 133.973 105.254 132.575 104.085C123.287 96.3553 111.151 93.6452 99.537 96.9627C92.4818 98.9834 86.5076 102.922 81.6144 108.777C71.215 121.234 71.1921 140.228 80.881 152.868C90.0887 164.866 104.167 169.083 118.829 165.943" stroke="#8DB501" stroke-width="2.86486"/>
<path d="M133.302 120.088C132.462 118.323 130.873 116.451 128.535 114.473C125.029 111.51 122.112 115.011 119.391 117.744C114.478 122.668 109.511 127.674 104.488 132.762C104.39 132.859 104.258 132.913 104.121 132.913C103.984 132.913 103.852 132.859 103.754 132.762C101.015 130 98.5688 127.067 95.4977 124.591C93.9698 123.358 92.3998 123.331 90.7879 124.511C87.648 126.809 83.2189 130.556 87.1781 134.498C91.9453 139.239 96.7296 143.964 101.531 148.674C101.892 149.029 102.425 149.292 102.832 149.596" stroke="#FFA7B5" stroke-width="2.86486"/>
<path d="M133.303 120.088C133.253 121.696 132.741 122.941 131.767 123.824C128.427 126.855 124.519 130.974 122.153 133.301C117.683 137.713 113.031 142.056 108.911 146.794C107.221 148.731 105.651 150.026 102.832 149.596" stroke="#FA9BAA" stroke-width="2.86486"/>
<path d="M92.0088 36.0658L88.6121 35.8521C88.5299 35.8469 88.4592 35.9093 88.454 35.9914L88.4303 36.3688C88.4251 36.4509 88.4875 36.5217 88.5696 36.5269L91.9663 36.7406C92.0485 36.7457 92.1192 36.6833 92.1244 36.6012L92.1481 36.2238C92.1533 36.1417 92.0909 36.071 92.0088 36.0658Z" fill="#1E66CA" fill-opacity="0.1"/>
<path d="M84.411 36.3774L81.3682 37.3955C81.2031 37.4508 81.1141 37.6293 81.1693 37.7944L81.1802 37.827C81.2355 37.992 81.414 38.0811 81.5791 38.0258L84.6219 37.0077C84.787 36.9525 84.876 36.7739 84.8208 36.6089L84.8099 36.5763C84.7546 36.4112 84.5761 36.3222 84.411 36.3774Z" fill="#1E66CA" fill-opacity="0.1"/>
<path d="M99.0531 38.8396L96.1021 37.3619C95.9521 37.2868 95.7697 37.3475 95.6946 37.4975L95.6792 37.5282C95.6041 37.6782 95.6648 37.8606 95.8148 37.9357L98.7658 39.4135C98.9157 39.4885 99.0982 39.4279 99.1733 39.2779L99.1887 39.2472C99.2638 39.0972 99.2031 38.9147 99.0531 38.8396Z" fill="#1E66CA" fill-opacity="0.1"/>
<path d="M76.7269 41.2377C77.5005 40.5363 78.0173 39.846 77.8813 39.696C77.7452 39.5459 77.0078 39.9929 76.2342 40.6944C75.4606 41.3959 74.9438 42.0861 75.0798 42.2361C75.2159 42.3862 75.9533 41.9392 76.7269 41.2377Z" fill="#1E66CA" fill-opacity="0.1"/>
<path d="M104.774 43.9684C104.79 43.9855 104.799 44.008 104.799 44.0315C104.799 44.0549 104.79 44.0775 104.774 44.0945L104.745 44.1231C104.674 44.1941 104.582 44.2431 104.476 44.2671C104.369 44.2911 104.249 44.2898 104.123 44.2632C103.997 44.2366 103.867 44.1852 103.74 44.112C103.614 44.0388 103.494 43.9452 103.387 43.8366L102.384 42.8168C102.169 42.5983 102.02 42.3325 101.969 42.0779C101.919 41.8233 101.971 41.6007 102.115 41.4588L102.144 41.4302C102.161 41.414 102.183 41.4051 102.207 41.4051C102.23 41.4051 102.253 41.414 102.27 41.4302L104.774 43.9684Z" fill="#1E66CA" fill-opacity="0.1"/>
<path d="M72.8081 44.9718L72.7359 44.9368C72.5253 44.8345 72.2716 44.9223 72.1693 45.133L70.7427 48.0709C70.6404 48.2815 70.7283 48.5352 70.9389 48.6375L71.0111 48.6725C71.2217 48.7748 71.4754 48.687 71.5777 48.4763L73.0043 45.5384C73.1066 45.3278 73.0187 45.0741 72.8081 44.9718Z" fill="#1E66CA" fill-opacity="0.1"/>
<path d="M164.713 54.0929C166.779 54.0929 168.454 52.4177 168.454 50.3514C168.454 48.285 166.779 46.6098 164.713 46.6098C162.646 46.6098 160.971 48.285 160.971 50.3514C160.971 52.4177 162.646 54.0929 164.713 54.0929Z" fill="#FFC5CE"/>
<path d="M106.25 47.4525L106.121 47.5016C105.849 47.6055 105.713 47.9101 105.817 48.1821L106.892 50.9976C106.996 51.2696 107.301 51.4059 107.573 51.302L107.701 51.253C107.973 51.1491 108.109 50.8445 108.005 50.5725L106.93 47.7569C106.826 47.485 106.522 47.3487 106.25 47.4525Z" fill="#1E66CA" fill-opacity="0.1"/>
<path d="M62.2988 58.65L54.555 50.9332C53.7817 50.1626 52.5301 50.1648 51.7594 50.9381L51.6947 51.003C50.9241 51.7764 50.9263 53.028 51.6996 53.7986L59.4434 61.5154C60.2167 62.286 61.4683 62.2839 62.239 61.5105L62.3037 61.4456C63.0743 60.6723 63.0721 59.4207 62.2988 58.65Z" fill="#1E66CA" fill-opacity="0.1"/>
<path d="M70.1069 51.6763L69.9813 51.6658C69.5777 51.6319 69.223 51.9316 69.1891 52.3353L68.9484 55.2015C68.9145 55.6051 69.2143 55.9598 69.6179 55.9937L69.7435 56.0043C70.1471 56.0381 70.5018 55.7384 70.5357 55.3348L70.7764 52.4686C70.8103 52.0649 70.5106 51.7102 70.1069 51.6763Z" fill="#1E66CA" fill-opacity="0.1"/>
<path d="M149.294 193.835L146.727 190.615L152.457 186.003C152.501 185.967 152.536 185.922 152.559 185.87C152.582 185.818 152.592 185.761 152.589 185.704C152.586 185.648 152.569 185.593 152.54 185.544C152.511 185.495 152.47 185.454 152.422 185.424C151.914 185.107 151.5 184.658 151.179 184.078C150.911 183.6 151.143 183.331 151.872 183.27C152.052 183.254 152.201 183.315 152.319 183.453L153.213 184.524C153.336 184.673 153.513 184.767 153.706 184.786C153.899 184.805 154.092 184.748 154.244 184.628C155.627 183.524 156.987 182.362 158.324 181.144C159.928 179.683 161.246 177.683 162.845 175.999C162.896 175.944 162.934 175.879 162.957 175.808C162.979 175.737 162.986 175.661 162.976 175.587C162.966 175.513 162.94 175.443 162.9 175.38C162.859 175.317 162.805 175.264 162.741 175.225C161.229 174.285 158.547 172.154 160.031 170.16C161.383 168.344 164.117 171.994 164.89 172.922C164.927 172.965 164.974 172.999 165.026 173.021C165.079 173.043 165.136 173.051 165.193 173.046C165.25 173.041 165.304 173.022 165.352 172.992C165.4 172.961 165.44 172.919 165.469 172.87C166.116 171.747 166.97 170.727 167.566 169.621C168.655 167.605 169.835 165.641 171.107 163.731C171.8 162.694 170.78 161.703 170.047 161.17C169.933 161.086 169.847 160.971 169.799 160.839C169.75 160.706 169.742 160.563 169.775 160.426C169.808 160.289 169.881 160.164 169.984 160.068C170.088 159.973 170.217 159.909 170.356 159.887C171.124 159.761 171.638 160.058 171.898 160.78C171.92 160.842 171.96 160.896 172.013 160.935C172.066 160.974 172.129 160.996 172.195 160.999C172.26 161.002 172.325 160.986 172.381 160.952C172.438 160.918 172.483 160.868 172.511 160.809C174.568 156.449 176.103 152.094 177.134 147.218C179.478 136.102 179.776 125.657 177.06 114.599C176.739 113.287 176.367 111.178 175.742 109.362C166.913 83.6354 146.698 66.7269 120.37 61.4097C118.462 61.0258 116.399 60.9571 114.394 60.7394C109.037 60.1492 102.78 60.5159 98.1158 61.2264C91.2745 62.2654 84.3224 64.5363 77.2596 68.039C76.5663 68.3885 76.0621 68.8584 75.3573 69.1105C72.269 70.2278 69.5244 72.1759 66.9289 74.1297C66.8901 74.1594 66.858 74.1968 66.8347 74.2396C66.8114 74.2823 66.7973 74.3293 66.7935 74.3776C66.7897 74.4258 66.7963 74.4741 66.8127 74.5193C66.8291 74.5645 66.855 74.6055 66.8888 74.6397L73.7931 81.7331C74.0872 82.0348 74.0796 82.329 73.7702 82.6155L73.4321 82.9249C73.3192 83.0279 73.1707 83.0831 73.0178 83.0789C72.865 83.0746 72.7198 83.0112 72.6128 82.9019L65.7887 75.9575C65.6209 75.789 65.3963 75.6895 65.1595 75.6789C64.9227 75.6683 64.6911 75.7473 64.5109 75.9002L60.5059 79.3094C60.4741 79.3371 60.4481 79.3707 60.4294 79.4084C60.4107 79.446 60.3997 79.4869 60.397 79.5285C60.3943 79.5702 60.4001 79.6118 60.4138 79.651C60.4276 79.6901 60.4492 79.7259 60.4772 79.7563C63.8635 83.3431 67.5534 86.5461 70.8079 90.2704C73.18 92.992 69.9828 96.5845 67.0435 95.3011C66.0236 94.8599 65.0553 93.7999 64.1557 93.0035C61.182 90.3735 58.489 87.2336 55.7043 84.4031C55.6774 84.3761 55.645 84.3552 55.6091 84.3418C55.5733 84.3284 55.5349 84.3229 55.4964 84.3256C55.4579 84.3283 55.4203 84.3392 55.386 84.3575C55.3517 84.3758 55.3216 84.4011 55.2975 84.4318L52.6046 87.9097C52.4365 88.1275 52.4651 88.3471 52.6905 88.5686L60.1105 95.8683C60.4772 96.2274 60.5211 96.6227 60.2423 97.0544L60.0819 97.3065C60.0466 97.3603 60 97.4057 59.9453 97.4396C59.8906 97.4735 59.8292 97.495 59.7653 97.5026C59.7015 97.5103 59.6367 97.5038 59.5756 97.4838C59.5145 97.4638 59.4584 97.4307 59.4115 97.3867L51.7566 90.1214C51.6997 90.0673 51.6316 90.0265 51.5569 90.002C51.4822 89.9776 51.4029 89.97 51.3247 89.9798C51.2464 89.9897 51.1711 90.0167 51.1041 90.059C51.0371 90.1013 50.9801 90.1579 50.9372 90.2245L45.5283 98.8077C45.4531 98.9251 45.4228 99.0659 45.4428 99.2046C45.4627 99.3433 45.5317 99.4708 45.6372 99.564C49.1495 102.658 52.4441 106.417 55.5783 109.419C58.214 111.944 60.7694 114.557 63.2447 117.257C63.9361 118.014 64.3467 118.648 64.4766 119.16C65.0495 121.4 62.3967 123.594 60.3512 122.918C58.489 122.305 55.882 119.142 54.2776 117.601C51.0862 114.53 48.0666 111.235 44.8007 108.204C44.1647 107.614 43.6948 106.841 43.0531 106.176C43.0048 106.125 42.9438 106.087 42.8763 106.067C42.8088 106.047 42.7372 106.045 42.6687 106.061C42.6002 106.077 42.5371 106.111 42.4859 106.16C42.4347 106.208 42.3971 106.269 42.377 106.337L41.4316 109.373C41.4165 109.422 41.4126 109.473 41.4201 109.522C41.6092 110.892 40.1768 113.08 39.8788 114.37C33.3297 142.955 43.9985 171.197 67.7425 188.701C68.8961 189.553 70.2368 190.399 71.7648 191.24C75.0937 193.067 78.4055 195.038 81.7861 196.431C88.5529 199.204 95.9614 200.843 103.53 201.398C107.558 201.696 111.632 201.358 115.723 201.129C119.352 200.931 124.553 199.882 131.325 197.984L132.345 201.863C124.421 205.06 115.993 206.085 107.553 205.879C82.5539 205.272 60.3168 193.113 46.2102 172.498C44.3136 169.725 42.864 166.659 41.317 163.628C34.0288 149.35 32.3041 133.071 34.894 117.24C35.3485 114.456 36.0323 111.724 36.9452 109.047C36.9626 108.996 36.9683 108.943 36.9617 108.89C36.9552 108.837 36.9367 108.786 36.9075 108.741C36.8784 108.695 36.8393 108.657 36.7933 108.629C36.7472 108.601 36.6954 108.583 36.6415 108.577C35.0487 108.416 34.5788 106.881 35.3581 105.632C35.4765 105.441 35.6465 105.336 35.868 105.317C36.5365 105.259 37.1591 105.399 37.7359 105.735C37.8696 105.811 37.9689 105.779 38.0339 105.638L39.134 103.134C39.2172 102.941 39.2371 102.727 39.1907 102.523C39.1444 102.319 39.0341 102.135 38.8761 101.999C37.1114 100.475 34.1663 98.4925 35.3925 95.6678C36.2347 93.7254 38.4579 93.1696 40.2455 94.1952C40.8357 94.5333 41.466 95.3813 42.1535 95.8798C42.3331 96.0058 42.4763 95.9734 42.5833 95.7824C44.3366 92.6368 45.4481 90.3735 48.1755 86.9128C48.3206 86.7256 48.3111 86.5461 48.1468 86.3742L46.9608 85.1308C46.901 85.0693 46.8553 84.9957 46.8266 84.9149C46.7979 84.8341 46.787 84.748 46.7946 84.6626C46.8022 84.5772 46.8282 84.4945 46.8707 84.42C46.9132 84.3456 46.9713 84.2812 47.041 84.2312C47.3466 84.0135 47.6846 83.918 48.0552 83.9448C48.2729 83.96 48.4524 84.0479 48.5937 84.2083L49.2068 84.9131C49.3711 85.1003 49.5315 85.0964 49.6881 84.9016C50.391 84.0345 51.0805 83.1693 51.7566 82.3061C52.3257 81.5765 52.2971 80.9424 51.6706 80.4038C49.8371 78.8338 48.3932 77.155 46.3993 75.4075C44.0157 73.3276 40.3086 69.6204 43.8381 66.9447C45.981 65.3231 48.0552 67.2369 49.8486 69.1162C51.9227 71.2859 54.0389 73.4173 56.1971 75.5106C57.005 76.2956 57.4347 76.5133 58.3457 75.6366C63.4509 70.7377 68.3499 67.6551 74.5781 64.372C82.571 60.1607 91.1198 57.6911 100.11 56.7228C101.84 56.5337 104.768 56.465 107.117 56.0925C107.166 56.0845 107.213 56.0658 107.253 56.0379C107.294 56.0099 107.328 55.9733 107.353 55.9307C107.379 55.8881 107.394 55.8405 107.399 55.7912C107.404 55.7419 107.397 55.6922 107.381 55.6456C107.247 55.2675 107.295 54.9179 107.524 54.5971C107.552 54.5591 107.587 54.5271 107.628 54.5034C107.668 54.4797 107.713 54.4646 107.76 54.4592C107.806 54.4538 107.853 54.4582 107.897 54.4721C107.941 54.4859 107.982 54.509 108.017 54.5398C108.349 54.8301 108.538 55.2025 108.584 55.6571C108.603 55.8519 108.708 55.9608 108.899 55.9837C110.291 56.167 111.798 56.0639 113.036 56.2301C117.282 56.7916 121.602 57.227 125.664 58.1552C130.512 59.2725 133.881 60.2695 138.172 62.2234C141.278 63.6329 144.624 65.6096 147.833 67.3973C149.326 68.2262 150.631 69.0456 151.746 69.8554C158.309 74.6148 163.582 79.6245 167.566 84.8844C182.773 104.95 187.448 129.863 179.873 153.974C179.094 156.454 177.919 159.044 176.905 161.6C176.298 163.124 175.614 164.551 174.854 165.88C172.877 169.335 171.107 172.612 168.494 175.632C168.419 175.718 168.376 175.827 168.37 175.94C168.365 176.054 168.399 176.165 168.465 176.256L169.405 177.551C169.551 177.75 169.623 177.993 169.609 178.239C169.596 178.486 169.497 178.721 169.331 178.904C168.548 179.763 167.665 179.885 166.683 179.27C166.386 179.087 166.116 179.123 165.876 179.379L163.148 182.324C163.081 182.397 163.034 182.485 163.01 182.581C162.986 182.677 162.986 182.778 163.011 182.874L163.332 184.186C163.35 184.261 163.349 184.34 163.33 184.415C163.31 184.49 163.272 184.558 163.219 184.615C163.166 184.671 163.1 184.713 163.027 184.737C162.953 184.762 162.875 184.767 162.799 184.754L161.24 184.456C161.169 184.443 161.096 184.448 161.028 184.469C160.959 184.49 160.896 184.526 160.845 184.576L157.608 187.716C157.534 187.788 157.474 187.874 157.434 187.969C157.393 188.063 157.372 188.165 157.37 188.268C157.369 188.371 157.389 188.473 157.428 188.568C157.466 188.663 157.524 188.749 157.596 188.822L160.283 191.515C160.368 191.6 160.429 191.706 160.459 191.823C160.49 191.94 160.488 192.063 160.455 192.179L160.398 192.397C160.384 192.447 160.359 192.492 160.323 192.529C160.287 192.566 160.242 192.593 160.193 192.608C160.144 192.623 160.091 192.625 160.041 192.614C159.991 192.603 159.944 192.58 159.905 192.546L156.273 189.343C156.089 189.183 155.9 189.171 155.705 189.309L149.294 193.835Z" fill="#1E66CA" fill-opacity="0.1"/>
<path d="M47.3333 57.5422C47.2964 57.5059 47.2671 57.4627 47.2471 57.4149C47.2271 57.3672 47.2168 57.316 47.2168 57.2643C47.2168 57.2125 47.2271 57.1613 47.2471 57.1136C47.2671 57.0659 47.2964 57.0226 47.3333 56.9864L47.7802 56.5452C47.8474 56.4782 47.9212 56.4192 47.9973 56.3714C48.0735 56.3237 48.1504 56.2881 48.2239 56.2668C48.2973 56.2455 48.3657 56.2389 48.4253 56.2474C48.4849 56.2558 48.5343 56.2791 48.5709 56.316L58.6667 66.4462C58.7032 66.4831 58.7261 66.5329 58.734 66.5927C58.742 66.6525 58.7348 66.721 58.713 66.7944C58.6912 66.8679 58.6551 66.9447 58.6069 67.0207C58.5586 67.0966 58.4991 67.17 58.4318 67.2369L57.9849 67.6781C57.9119 67.7508 57.813 67.7917 57.7099 67.7917C57.6068 67.7917 57.5079 67.7508 57.4348 67.6781L47.3333 57.5422Z" fill="#1E66CA" fill-opacity="0.1"/>
<path d="M106.109 61.8681C106.136 61.816 106.182 61.7766 106.238 61.7584C106.294 61.7402 106.355 61.7446 106.407 61.7707L106.459 61.7994C106.593 61.8684 106.71 61.9688 106.802 62.0948C106.895 62.2209 106.961 62.3701 106.997 62.534C107.033 62.6979 107.039 62.8732 107.013 63.0499C106.988 63.2267 106.932 63.4014 106.848 63.5641L106.138 64.9507C105.97 65.2786 105.701 65.5381 105.391 65.6724C105.081 65.8066 104.754 65.8046 104.482 65.6669L104.43 65.6383C104.378 65.6113 104.339 65.565 104.321 65.5093C104.302 65.4535 104.307 65.3928 104.333 65.3403L106.109 61.8681Z" fill="#1E66CA" fill-opacity="0.1"/>
<path d="M22.6021 62.3443L21.7791 62.4033C20.3872 62.5031 19.3397 63.7124 19.4394 65.1043L19.4804 65.6758C19.5802 67.0678 20.7895 68.1153 22.1814 68.0155L23.0044 67.9565C24.3963 67.8567 25.4438 66.6474 25.3441 65.2555L25.3031 64.684C25.2033 63.292 23.9941 62.2445 22.6021 62.3443Z" fill="#1E66CA" fill-opacity="0.1"/>
<path d="M59.5375 69.1735L60.2824 68.3656C60.4123 68.2243 60.523 68.2377 60.6147 68.4057C60.9547 69.0207 61.4169 69.523 62.0013 69.9126C62.085 69.9681 62.154 70.0431 62.2022 70.1312C62.2504 70.2192 62.2765 70.3177 62.2782 70.4181C62.2799 70.5185 62.2572 70.6178 62.2119 70.7074C62.1667 70.797 62.1003 70.8743 62.0185 70.9325L61.7664 71.1102C61.6143 71.2172 61.4275 71.2636 61.2422 71.2404C61.057 71.2171 60.8864 71.1257 60.7637 70.9841L59.5318 69.5746C59.4832 69.5197 59.457 69.4484 59.458 69.3744C59.4591 69.3004 59.4874 69.2289 59.5375 69.1735Z" fill="#1E66CA" fill-opacity="0.1"/>
<path d="M101.985 68.2668L99.7913 70.3999C99.5848 70.6007 99.5802 70.9308 99.781 71.1372L99.8129 71.1701C100.014 71.3765 100.344 71.3811 100.55 71.1804L102.744 69.0473C102.95 68.8465 102.955 68.5164 102.754 68.3099L102.722 68.2771C102.521 68.0706 102.191 68.066 101.985 68.2668Z" fill="#1E66CA" fill-opacity="0.1"/>
<path d="M32.9093 69.4461L32.4394 69.916C32.2603 70.095 32.2603 70.3853 32.4394 70.5643L44.6993 82.8242C44.8783 83.0032 45.1685 83.0032 45.3475 82.8242L45.8175 82.3542C45.9965 82.1752 45.9965 81.885 45.8175 81.706L33.5576 69.4461C33.3786 69.2671 33.0883 69.2671 32.9093 69.4461Z" fill="#1E66CA" fill-opacity="0.1"/>
<path d="M79.9433 72.9645C81.0887 73.5108 82.1574 73.6596 82.3304 73.2968C82.5034 72.9341 81.7152 72.1972 80.5699 71.6509C79.4246 71.1046 78.3558 70.9558 78.1828 71.3185C78.0098 71.6813 78.798 72.4182 79.9433 72.9645Z" fill="#1E66CA" fill-opacity="0.1"/>
<path d="M96.018 72.3869L93.2575 73.2732C92.9713 73.3651 92.8138 73.6716 92.9057 73.9579L92.9512 74.0997C93.0431 74.3859 93.3496 74.5435 93.6359 74.4516L96.3963 73.5653C96.6825 73.4734 96.8401 73.1669 96.7482 72.8806L96.7026 72.7388C96.6107 72.4525 96.3042 72.295 96.018 72.3869Z" fill="#1E66CA" fill-opacity="0.1"/>
<path d="M89.0579 73.765L85.9357 73.5686C85.6325 73.5495 85.3713 73.7798 85.3522 74.083L85.345 74.1974C85.3259 74.5006 85.5562 74.7618 85.8594 74.7809L88.9817 74.9773C89.2849 74.9964 89.5461 74.7661 89.5652 74.4629L89.5724 74.3485C89.5915 74.0454 89.3611 73.7841 89.0579 73.765Z" fill="#1E66CA" fill-opacity="0.1"/>
<path d="M21.8476 92.419C21.2822 92.2319 20.799 92.0772 20.398 91.9549C18.765 91.4564 19.7963 89.3708 21.246 90.11C21.5974 90.2895 21.8247 90.5683 21.9278 90.9465L22.2372 92.0466C22.3403 92.4095 22.2105 92.5336 21.8476 92.419Z" fill="#1E66CA" fill-opacity="0.1"/>
<path d="M22.9305 92.9404C24.4546 92.8029 25.3083 93.4408 25.4917 94.8542C25.5566 95.3737 25.3274 95.62 24.8041 95.5933C23.3449 95.5169 22.6096 94.7529 22.5981 93.3014C22.5981 93.0799 22.7089 92.9595 22.9305 92.9404Z" fill="#1E66CA" fill-opacity="0.1"/>
<path d="M145.031 129.605L134.38 120.329C134.231 120.199 134.041 120.124 133.841 120.117L133.302 120.088C132.462 118.323 130.873 116.451 128.535 114.473C125.029 111.51 122.112 115.011 119.391 117.744C114.478 122.668 109.511 127.674 104.488 132.762C104.39 132.859 104.258 132.913 104.121 132.913C103.984 132.913 103.852 132.859 103.754 132.762C101.015 130 98.5687 127.067 95.4976 124.591C93.9697 123.358 92.3997 123.331 90.7877 124.511C87.6479 126.809 83.2188 130.556 87.178 134.498C91.9451 139.239 96.7295 143.964 101.531 148.674C101.892 149.029 102.425 149.292 102.832 149.596C102.805 149.772 102.891 149.963 103.089 150.169C108.185 155.433 113.432 160.691 118.829 165.943C104.167 169.083 90.0887 164.866 80.881 152.868C71.1921 140.228 71.215 121.234 81.6144 108.777C86.5076 102.922 92.4818 98.9834 99.537 96.9627C111.151 93.6452 123.287 96.3553 132.575 104.085C133.973 105.254 135.308 106.858 136.66 108.302C141.914 113.923 144.619 121.595 145.031 129.605Z" fill="#8DB501"/>
<path d="M74.7123 119.31L51.3836 96.1432C51.1793 95.9403 50.8492 95.9414 50.6463 96.1457L50.1699 96.6255C49.967 96.8298 49.9681 97.16 50.1724 97.3629L73.5011 120.529C73.7055 120.732 74.0356 120.731 74.2385 120.527L74.7149 120.047C74.9178 119.843 74.9167 119.512 74.7123 119.31Z" fill="#1E66CA" fill-opacity="0.1"/>
<path d="M26.2324 98.1893C26.8397 98.9313 27.7647 99.1786 28.2986 98.7416C28.8324 98.3047 28.7728 97.349 28.1655 96.607C27.5582 95.865 26.6332 95.6178 26.0993 96.0547C25.5655 96.4916 25.6251 97.4473 26.2324 98.1893Z" fill="#1E66CA" fill-opacity="0.1"/>
<path d="M29.4664 101.728C30.2005 102.31 31.1812 102.295 31.6569 101.695C32.1325 101.095 31.9231 100.136 31.189 99.5545C30.4549 98.9727 29.4743 98.9876 28.9986 99.5877C28.5229 100.188 28.7324 101.146 29.4664 101.728Z" fill="#1E66CA" fill-opacity="0.1"/>
<path d="M72.5442 107.574C74.3606 107.574 75.8331 106.102 75.8331 104.285C75.8331 102.469 74.3606 100.996 72.5442 100.996C70.7278 100.996 69.2554 102.469 69.2554 104.285C69.2554 106.102 70.7278 107.574 72.5442 107.574Z" fill="#1E66CA" fill-opacity="0.1"/>
<path d="M32.262 104.551C32.8112 105.356 33.8371 105.613 34.5534 105.124C35.2696 104.636 35.4051 103.587 34.8558 102.782C34.3066 101.977 33.2807 101.72 32.5644 102.209C31.8481 102.697 31.7127 103.746 32.262 104.551Z" fill="#1E66CA" fill-opacity="0.1"/>
<path d="M41.9534 114.414C42.6271 115.114 43.663 115.21 44.2672 114.629C44.8715 114.047 44.8152 113.008 44.1416 112.308C43.468 111.608 42.432 111.512 41.8278 112.094C41.2236 112.675 41.2798 113.714 41.9534 114.414Z" fill="#1E66CA" fill-opacity="0.1"/>
<path d="M133.302 120.088C133.252 121.696 132.74 122.941 131.766 123.824C128.426 126.855 124.518 130.974 122.152 133.301C117.683 137.713 113.03 142.056 108.91 146.794C107.22 148.731 105.65 150.026 102.831 149.596C102.424 149.292 101.892 149.029 101.531 148.674C96.7291 143.964 91.9448 139.239 87.1776 134.498C83.2184 130.556 87.6475 126.809 90.7874 124.511C92.3993 123.331 93.9693 123.358 95.4972 124.591C98.5683 127.067 101.015 130 103.754 132.762C103.851 132.859 103.983 132.913 104.12 132.913C104.258 132.913 104.39 132.859 104.487 132.762C109.51 127.674 114.478 122.668 119.39 117.744C122.112 115.011 125.028 111.51 128.535 114.473C130.873 116.451 132.462 118.323 133.302 120.088Z" fill="white"/>
<path d="M19.391 128.315C23.5774 128.279 26.9421 124.922 26.9063 120.818C26.8705 116.714 23.4477 113.417 19.2613 113.453C15.0749 113.49 11.7102 116.846 11.746 120.95C11.7818 125.055 15.2046 128.352 19.391 128.315Z" fill="#FFC5CE"/>
<path d="M44.5428 116.358L44.749 115.51C44.8025 115.3 44.9248 115.143 45.1157 115.04C46.3648 114.37 47.2816 115.011 47.6884 116.249C47.8679 116.803 47.6979 117.213 47.1784 117.481C46.4565 117.851 45.7365 117.84 45.0183 117.446C44.8294 117.343 44.6803 117.179 44.5942 116.982C44.5081 116.785 44.4901 116.566 44.5428 116.358Z" fill="#1E66CA" fill-opacity="0.1"/>
<path d="M145.031 129.605C145.539 135.258 144.63 140.661 142.304 145.814C137.697 156.002 129.872 162.711 118.829 165.943C113.431 160.691 108.185 155.433 103.089 150.169C102.891 149.963 102.805 149.772 102.831 149.596C105.65 150.026 107.22 148.731 108.911 146.794C113.03 142.056 117.683 137.713 122.152 133.301C124.518 130.974 128.426 126.855 131.767 123.824C132.741 122.941 133.252 121.696 133.302 120.088L133.841 120.117C134.041 120.124 134.231 120.199 134.379 120.329L145.031 129.605Z" fill="#8DB501"/>
<path d="M158.38 153.505L154.261 153.275C153.961 153.258 153.704 153.488 153.687 153.788L153.675 154.005C153.658 154.306 153.888 154.563 154.188 154.579L158.307 154.81C158.607 154.826 158.864 154.597 158.881 154.296L158.893 154.079C158.91 153.779 158.68 153.522 158.38 153.505Z" fill="#E4E7EA"/>
<path d="M149.099 154.045L145.475 155.125C145.147 155.223 144.961 155.567 145.059 155.895L145.075 155.95C145.173 156.277 145.517 156.464 145.845 156.366L149.469 155.286C149.796 155.188 149.983 154.843 149.885 154.516L149.869 154.461C149.771 154.133 149.426 153.947 149.099 154.045Z" fill="#E4E7EA"/>
<path d="M166.994 156.533L163.793 154.888C163.377 154.674 162.866 154.838 162.651 155.255L162.615 155.326C162.401 155.743 162.565 156.254 162.981 156.468L166.182 158.113C166.598 158.327 167.11 158.163 167.324 157.746L167.36 157.675C167.574 157.258 167.41 156.747 166.994 156.533Z" fill="#E4E7EA"/>
<path d="M140.053 160.072C141.164 159.181 141.877 158.225 141.646 157.936C141.414 157.647 140.326 158.135 139.214 159.025C138.103 159.916 137.39 160.872 137.621 161.161C137.853 161.45 138.941 160.962 140.053 160.072Z" fill="#E4E7EA"/>
<path d="M135.206 164.424L135.175 164.409C134.917 164.281 134.604 164.387 134.476 164.645L132.801 168.035C132.673 168.294 132.779 168.606 133.037 168.734L133.068 168.749C133.326 168.877 133.639 168.771 133.767 168.513L135.442 165.122C135.57 164.864 135.464 164.552 135.206 164.424Z" fill="#E4E7EA"/>
<path d="M175.54 167.191L175.486 167.209C175.108 167.337 174.905 167.747 175.033 168.124L176.268 171.772C176.396 172.149 176.805 172.352 177.183 172.224L177.237 172.206C177.615 172.078 177.817 171.668 177.69 171.29L176.455 167.643C176.327 167.265 175.918 167.063 175.54 167.191Z" fill="#E4E7EA"/>
<path d="M151.769 173.844L150.617 173.254C150.536 173.213 150.465 173.153 150.411 173.08C150.358 173.006 150.322 172.92 150.308 172.83C150.258 172.54 150.262 172.24 150.319 171.93C150.348 171.773 150.429 171.63 150.548 171.524C150.668 171.418 150.821 171.356 150.98 171.347C151.14 171.338 151.298 171.384 151.429 171.476C151.56 171.569 151.655 171.702 151.7 171.856L152.164 173.409C152.189 173.485 152.234 173.553 152.296 173.604C152.359 173.655 152.434 173.687 152.514 173.695C153.58 173.802 154.273 174.358 154.594 175.363C154.619 175.446 154.668 175.521 154.735 175.578C154.802 175.634 154.885 175.671 154.972 175.683C156.141 175.852 156.756 176.524 156.817 177.7C156.819 177.742 156.83 177.783 156.848 177.821C156.866 177.859 156.892 177.893 156.923 177.92C156.955 177.948 156.992 177.969 157.031 177.983C157.071 177.996 157.113 178.001 157.155 177.998C158.32 177.922 158.945 178.487 159.029 179.694C159.035 179.778 159.024 179.863 158.998 179.943C158.971 180.023 158.929 180.096 158.873 180.16C158.818 180.223 158.75 180.275 158.675 180.312C158.599 180.349 158.517 180.371 158.433 180.376C157.207 180.452 156.616 179.832 156.662 178.514C156.666 178.445 156.643 178.378 156.598 178.326C156.553 178.274 156.49 178.24 156.422 178.233C155.36 178.111 154.716 177.532 154.491 176.497C154.449 176.306 154.347 176.151 154.187 176.033C153.236 175.328 152.577 175.609 152.13 174.262C152.069 174.071 151.949 173.932 151.769 173.844Z" fill="#E4E7EA"/>
<path d="M132.026 172.869L131.934 172.86C131.519 172.82 131.149 173.124 131.109 173.54L130.782 176.939C130.742 177.355 131.046 177.725 131.462 177.765L131.553 177.774C131.969 177.814 132.339 177.509 132.379 177.093L132.706 173.694C132.746 173.278 132.442 172.909 132.026 172.869Z" fill="#E4E7EA"/>
<path d="M177.02 176.027C177.021 176.014 177.024 176.002 177.03 175.99C177.035 175.979 177.043 175.969 177.052 175.96C177.062 175.951 177.073 175.945 177.085 175.941C177.097 175.937 177.11 175.935 177.123 175.936L177.306 175.947C177.532 175.962 177.738 176.136 177.881 176.431C178.024 176.727 178.091 177.119 178.068 177.523L177.937 179.889C177.914 180.293 177.803 180.675 177.628 180.952C177.453 181.229 177.228 181.378 177.003 181.367L176.819 181.362C176.807 181.361 176.794 181.358 176.783 181.352C176.771 181.346 176.761 181.339 176.752 181.329C176.744 181.32 176.737 181.308 176.733 181.296C176.729 181.284 176.727 181.271 176.728 181.258L177.02 176.027Z" fill="#E4E7EA"/>
<path d="M132.038 181.742L131.984 181.761C131.653 181.881 131.483 182.245 131.602 182.576L132.87 186.078C132.989 186.408 133.354 186.579 133.684 186.459L133.738 186.44C134.069 186.32 134.239 185.955 134.12 185.625L132.852 182.123C132.733 181.793 132.368 181.622 132.038 181.742Z" fill="#E4E7EA"/>
<path d="M163.741 186.624C164.32 187.181 165.112 187.299 165.509 186.886C165.906 186.473 165.759 185.687 165.18 185.129C164.6 184.572 163.809 184.455 163.412 184.868C163.015 185.28 163.162 186.067 163.741 186.624Z" fill="#E4E7EA"/>
<path d="M176.243 185.04L176.222 185.03C176.006 184.925 175.745 185.014 175.64 185.231L173.781 189.042C173.676 189.258 173.765 189.518 173.981 189.624L174.002 189.634C174.218 189.739 174.479 189.65 174.584 189.433L176.443 185.622C176.548 185.406 176.459 185.146 176.243 185.04Z" fill="#E4E7EA"/>
<path d="M166.125 188.877C166.626 189.374 167.322 189.484 167.678 189.125C168.034 188.765 167.916 188.071 167.415 187.574C166.913 187.078 166.218 186.967 165.862 187.327C165.505 187.687 165.623 188.381 166.125 188.877Z" fill="#E4E7EA"/>
<path d="M146.727 190.615L149.294 193.835C149.363 194.355 149.489 194.956 149.672 195.64C150.4 198.293 149.604 201.662 147.942 203.604C143.37 208.927 135.554 208.251 132.346 201.863L131.326 197.984C131.732 191.606 136.832 187.177 143.072 188.885C144.286 189.217 145.484 190.099 146.727 190.615Z" fill="#FFC5CE"/>
<path d="M168.497 190.936C169.032 191.366 169.67 191.461 169.921 191.148C170.173 190.835 169.944 190.232 169.408 189.802C168.873 189.371 168.235 189.276 167.983 189.59C167.732 189.903 167.961 190.506 168.497 190.936Z" fill="#E4E7EA"/>
<path d="M169.01 195.594C168.678 195.869 168.492 196.013 168.454 196.024C167.163 196.421 166.955 196.131 167.83 195.153L169.881 192.861C169.986 192.741 170.055 192.597 170.082 192.443C170.135 192.118 170.257 191.82 170.448 191.549C170.502 191.476 170.574 191.42 170.657 191.386C170.739 191.351 170.83 191.34 170.918 191.354C171.644 191.469 172.121 191.879 172.35 192.586C172.427 192.808 172.37 192.989 172.179 193.13C171.086 193.933 170.03 194.754 169.01 195.594Z" fill="#E4E7EA"/>
<path d="M162.283 195.118C162.847 195.641 163.467 195.889 163.67 195.671C163.872 195.453 163.58 194.852 163.017 194.329C162.453 193.805 161.832 193.558 161.63 193.776C161.427 193.993 161.72 194.594 162.283 195.118Z" fill="#E4E7EA"/>
<path d="M172.668 195.181C173.007 195.662 173.61 195.821 174.013 195.537C174.416 195.252 174.468 194.632 174.129 194.151C173.79 193.67 173.188 193.511 172.784 193.795C172.381 194.08 172.329 194.7 172.668 195.181Z" fill="#E4E7EA"/>
<path d="M165.079 196.488L173.622 205.295C173.636 205.308 173.646 205.325 173.653 205.343C173.66 205.361 173.664 205.38 173.663 205.399C173.663 205.418 173.658 205.437 173.65 205.455C173.642 205.472 173.631 205.488 173.617 205.501L173.387 205.69C173.361 205.712 173.327 205.724 173.292 205.723C173.257 205.722 173.224 205.708 173.198 205.684L164.581 197.336C164.559 197.316 164.544 197.29 164.538 197.261C164.532 197.233 164.535 197.203 164.546 197.176L164.85 196.528C164.86 196.508 164.875 196.49 164.893 196.476C164.911 196.462 164.932 196.453 164.954 196.449C164.977 196.445 165 196.447 165.022 196.454C165.043 196.46 165.063 196.472 165.079 196.488Z" fill="#E4E7EA"/>
<path d="M164.094 197.456C164.109 197.453 164.125 197.455 164.139 197.462C164.152 197.47 164.163 197.482 164.168 197.497L164.18 197.519C164.253 197.753 164.208 198.013 164.054 198.242C163.9 198.472 163.651 198.653 163.36 198.746L160.685 199.599C160.394 199.692 160.086 199.688 159.829 199.589C159.571 199.49 159.384 199.304 159.309 199.072L159.304 199.049C159.301 199.041 159.3 199.033 159.3 199.025C159.301 199.016 159.303 199.008 159.307 199.001C159.311 198.993 159.316 198.987 159.322 198.981C159.328 198.976 159.336 198.972 159.344 198.969L164.094 197.456Z" fill="#E4E7EA"/>
<path d="M154.7 199.369L151.059 199.223C150.771 199.211 150.529 199.435 150.517 199.723L150.515 199.769C150.504 200.057 150.728 200.299 151.015 200.311L154.657 200.457C154.944 200.469 155.187 200.245 155.198 199.957L155.2 199.911C155.212 199.623 154.988 199.381 154.7 199.369Z" fill="#E4E7EA"/>
<path d="M46.5867 33.6361C45.4393 30.7786 47.8156 27.7506 50.8639 28.1858L59.4372 29.4095C62.4855 29.8447 63.9197 33.4165 62.0187 35.8388L56.6722 42.6517C54.7712 45.074 50.9608 44.5301 49.8135 41.6727L46.5867 33.6361Z" fill="#FF9E87"/>
<path d="M22.903 149.37C21.6973 146.367 24.1944 143.185 27.3978 143.642C30.6012 144.1 32.1083 147.853 30.1106 150.399C28.1129 152.944 24.1087 152.373 22.903 149.37Z" fill="#FF9E87"/>
<path d="M204.368 125.999C202.023 120.16 206.879 113.972 213.108 114.861C219.337 115.75 222.268 123.049 218.383 127.999C214.499 132.949 206.712 131.838 204.368 125.999Z" fill="#FF9E87"/>
<path d="M156.325 193.468C154.165 191.273 155.191 187.563 158.172 186.79L166.554 184.616C169.535 183.843 172.235 186.586 171.414 189.554L169.105 197.901C168.285 200.869 164.559 201.835 162.399 199.64L156.325 193.468Z" fill="#FFE1DA"/>
<path opacity="0.3" d="M191.76 38.5844C188.919 45.7757 184.403 26.5391 177.211 23.6984C170.02 20.8578 152.049 22.0723 154.89 14.8811C157.73 7.6898 178.689 7.07889 185.88 9.91955C193.071 12.7602 194.601 31.3932 191.76 38.5844Z" fill="#3F13E4"/>
</svg>
