<svg width="22" height="23" viewBox="0 0 22 23" fill="none" xmlns="http://www.w3.org/2000/svg">
    <g clip-path="url(#clip0_203_4631)">
        <path d="M18.9738 3.90601H2.37173C1.74271 3.90601 1.13945 4.15588 0.694664 4.60067C0.249878 5.04545 0 5.64871 0 6.27774L0 16.9505C0 17.5795 0.249878 18.1828 0.694664 18.6276C1.13945 19.0724 1.74271 19.3222 2.37173 19.3222H18.9738C19.6029 19.3222 20.2061 19.0724 20.6509 18.6276C21.0957 18.1828 21.3456 17.5795 21.3456 16.9505V6.27774C21.3456 5.64871 21.0957 5.04545 20.6509 4.60067C20.2061 4.15588 19.6029 3.90601 18.9738 3.90601Z" fill="#006C35"/>
        <path d="M5.28839 9.2734C5.66313 9.30897 5.45619 8.63955 5.59197 8.518C5.61747 8.45812 5.6649 8.45752 5.66846 8.53342V9.10145C5.6649 9.28644 5.78646 9.3404 5.88073 9.37894C5.97916 9.37123 6.04438 9.37479 6.08292 9.47025L6.12917 10.4533C6.12917 10.4533 6.35686 10.5186 6.36753 9.90013C6.3788 9.53725 6.29519 9.23367 6.3444 9.16311C6.34618 9.09374 6.43453 9.08959 6.4962 9.12339C6.59403 9.19217 6.63791 9.27755 6.7897 9.24375C7.02153 9.18031 7.16028 9.06765 7.16384 8.88977C7.1502 8.72079 7.13123 8.5518 7.0583 8.38281C7.06838 8.35198 7.01383 8.27253 7.02391 8.2417C7.06541 8.30692 7.12885 8.30158 7.14308 8.2417C7.10395 8.11184 7.04288 7.98733 6.94327 7.93337C6.86144 7.86103 6.74167 7.87586 6.69779 8.02646C6.67763 8.1996 6.76064 8.40594 6.88635 8.57374C6.91303 8.63955 6.95097 8.74865 6.93437 8.84708C6.86737 8.88503 6.79978 8.86961 6.74404 8.81032C6.74404 8.81032 6.55964 8.67217 6.55964 8.64133C6.60885 8.32826 6.57091 8.29269 6.54363 8.20612C6.52466 8.08635 6.46773 8.04781 6.42149 7.96598C6.37524 7.91736 6.31298 7.91736 6.28333 7.96598C6.20151 8.1071 6.23946 8.41068 6.29875 8.54646C6.34085 8.67098 6.40607 8.74984 6.37524 8.74984C6.34974 8.8204 6.29756 8.8038 6.25962 8.72256C6.20507 8.55417 6.19439 8.30336 6.19439 8.19011C6.17779 8.05018 6.16 7.75075 6.0681 7.67485C6.01177 7.59836 5.92817 7.63513 5.89911 7.70569C5.89318 7.84443 5.892 7.98377 5.90801 8.11244C5.97086 8.33716 5.99102 8.5352 6.02185 8.76585C6.03015 9.07477 5.84338 8.89985 5.85168 8.74687C5.89496 8.54824 5.8837 8.23517 5.84516 8.15572C5.81492 8.07686 5.77875 8.0567 5.70522 8.06975C5.64712 8.065 5.49651 8.22984 5.45382 8.50259C5.45382 8.50259 5.41765 8.64311 5.40224 8.76822C5.38148 8.90934 5.28899 9.00895 5.22376 8.74865C5.16743 8.55951 5.13304 8.09287 5.03877 8.20197C5.01149 8.56662 4.97888 9.20818 5.28839 9.2734Z" fill="white"/>
        <path d="M5.85226 9.54077C5.54393 9.5467 5.09271 9.94574 5.08026 10.1669C5.40519 10.0104 5.72478 9.85977 6.05564 9.69849C6.00227 9.61845 6.05267 9.5467 5.85226 9.54077Z" fill="white"/>
        <path d="M7.55215 10.7363C7.69505 10.2602 7.52903 9.90914 7.6067 9.91092C7.77094 10.0882 8.001 9.93464 8.0514 9.87297C8.07334 9.84214 8.1273 9.82198 8.16524 9.8623C8.29391 9.9548 8.52041 9.91092 8.56725 9.74846C8.59687 9.58529 8.6151 9.42025 8.6218 9.25455C8.51685 9.28716 8.43859 9.3091 8.43147 9.35238L8.40953 9.4935C8.40064 9.53915 8.30992 9.54093 8.30636 9.48283C8.26664 9.30198 8.1018 9.27826 8.00219 9.55872C7.93519 9.61327 7.81423 9.62394 7.80118 9.54271C7.81719 9.35475 7.7413 9.32926 7.58951 9.4176C7.54089 9.04465 7.49167 8.6883 7.44305 8.31534C7.5065 8.31356 7.5646 8.3604 7.62212 8.28807C7.55867 8.09062 7.42467 7.68743 7.35056 7.65837C7.31439 7.6145 7.28355 7.64177 7.23671 7.65304C7.15726 7.67853 7.08314 7.74731 7.10627 7.88072C7.20054 8.4529 7.26221 8.88871 7.35589 9.46089C7.37012 9.52789 7.31439 9.61624 7.24205 9.60734C7.11931 9.52433 7.08848 9.35594 6.87858 9.36305C6.7262 9.36483 6.55247 9.52967 6.53112 9.68917C6.50563 9.81546 6.49673 9.95302 6.53112 10.0639C6.63785 10.192 6.76652 10.1795 6.87858 10.1505C6.97049 10.1125 7.04697 10.02 7.07899 10.042C7.10093 10.0686 7.08433 10.3728 6.64497 10.6064C6.37874 10.7256 6.16706 10.7529 6.05322 10.5359C5.98266 10.4001 6.05856 9.88424 5.88483 10.004C5.37075 11.3292 7.08848 11.513 7.28059 10.0586C7.29897 9.99868 7.37131 9.93879 7.38376 10.0366C7.34403 11.3541 6.055 11.4448 5.83621 11.0304C5.78166 10.9325 5.76565 10.7155 5.76031 10.5851C5.7277 10.326 5.59192 10.4256 5.57057 10.6823C5.54863 10.8252 5.55456 10.8655 5.55456 11.0025C5.62275 12.0431 7.28296 11.596 7.55215 10.7363ZM6.91178 9.83621C6.90111 9.85637 6.85427 9.84807 6.81988 9.84807C6.78075 9.84629 6.76237 9.83977 6.73865 9.80835C6.72798 9.77277 6.76118 9.73897 6.776 9.71229C6.79438 9.68086 6.8934 9.64825 6.92839 9.73601C6.93486 9.75266 6.93674 9.77075 6.93382 9.78838C6.9309 9.80602 6.92329 9.82254 6.91178 9.83621Z" fill="white"/>
        <path d="M8.06505 8.65641C8.16822 8.61847 8.65739 8.05933 8.65739 8.05933C8.63189 8.03739 8.60936 8.02138 8.58386 7.99944C8.55659 7.97573 8.55955 7.95201 8.58386 7.92889C8.70482 7.85833 8.66628 7.70357 8.60284 7.63301C8.5618 7.61288 8.51663 7.60261 8.47093 7.60302C8.42522 7.60344 8.38024 7.61452 8.33957 7.63538C8.25479 7.71662 8.23463 7.84706 8.30163 7.92889C8.36685 7.95972 8.43207 8.02553 8.38879 8.0617C8.18897 8.27516 7.6411 8.64337 7.70454 8.65641C7.71818 8.6742 8.05437 8.67361 8.06505 8.65641ZM8.42733 7.77828C8.45875 7.77057 8.49907 7.79844 8.51805 7.83995C8.53702 7.88145 8.52694 7.92118 8.49611 7.92889H8.49492C8.46409 7.93659 8.42377 7.90873 8.4048 7.86722C8.38642 7.82512 8.3965 7.78599 8.42733 7.77828ZM5.25455 11.1758C5.17391 11.34 5.14011 11.2274 5.133 11.1355C5.12373 10.9811 5.13149 10.8262 5.15612 10.6736C5.17628 10.5431 5.15612 10.5829 5.11462 10.6356C4.9314 10.9273 4.91539 11.3637 5.01678 11.4936C5.07015 11.5553 5.15849 11.5825 5.22431 11.5624C5.33934 11.5126 5.38974 11.279 5.36246 11.1942C5.32333 11.1343 5.29309 11.1248 5.25455 11.1758ZM11.2912 8.08779C11.5023 8.37121 11.7027 8.65997 11.8989 8.95407C11.9375 9.20903 11.9654 9.45806 11.982 9.70531C12.0146 10.182 12.0241 10.6979 11.9944 11.2001C12.0834 11.2037 12.2274 11.0554 12.2772 10.839C12.3098 10.5396 12.2654 10.0065 12.2624 9.82983C12.2585 9.71908 12.2531 9.60839 12.2464 9.49779C12.48 9.87963 12.7077 10.2793 12.9301 10.7234C13.0113 10.6854 12.9935 10.2312 12.9461 10.1672C12.7682 9.78595 12.5233 9.40885 12.445 9.26417C12.416 9.21081 12.317 9.05902 12.199 8.88529C12.1888 8.74663 12.1722 8.60852 12.1492 8.47142C12.1124 8.21764 12.2541 8.49929 12.2345 8.35165C12.1889 8.09787 12.0478 7.92651 11.8829 7.69408C11.8296 7.61878 11.8314 7.60337 11.7489 7.71247C11.7198 7.77783 11.7064 7.84911 11.7098 7.92058C11.6841 7.88275 11.6566 7.84614 11.6274 7.81089C11.5379 7.73368 11.448 7.657 11.3576 7.58083C11.2977 7.53814 11.1519 7.46106 11.1258 7.58914C11.1136 7.67891 11.118 7.77015 11.1388 7.85833C11.1542 7.92177 11.2461 8.02731 11.2912 8.08779ZM11.73 8.07356C11.7412 8.12277 11.7531 8.17199 11.7608 8.22239L11.7697 8.27041C11.7448 8.23566 11.7189 8.20165 11.692 8.16843C11.5948 8.0534 11.6754 8.0783 11.73 8.07356Z" fill="white"/>
        <path d="M12.9965 10.8405C12.7902 11.0557 12.4925 11.3207 12.1688 11.4435C12.1338 11.4826 12.2553 11.6504 12.4119 11.6504C12.6745 11.6196 12.9058 11.4719 13.1198 11.0836C13.1773 10.9934 13.2781 10.7995 13.2805 10.6489C13.3001 9.76784 13.2366 9.08182 13.1044 8.44501C13.0956 8.39391 13.098 8.3415 13.1115 8.29144C13.1281 8.27128 13.1862 8.29144 13.2171 8.24163C13.2615 8.19538 13.0979 7.81591 13.0042 7.67005C12.971 7.60482 12.9597 7.56095 12.9046 7.67775C12.8465 7.77262 12.8079 7.93805 12.8127 8.09221C12.9378 8.95967 12.9763 9.71922 13.0582 10.5867C13.0647 10.6703 13.0522 10.7924 12.9965 10.8405ZM16.4533 8.64068C16.4444 8.57901 16.4171 8.43552 16.4278 8.41714C16.4444 8.37326 16.5304 8.42188 16.5612 8.37148C16.6063 8.32583 16.3395 7.98311 16.2464 7.83725C16.2126 7.77203 16.2013 7.72815 16.1462 7.84496C16.088 7.93983 16.0679 8.11 16.091 8.25942C16.2304 9.20159 16.3341 9.90955 16.3555 10.745C16.343 10.8244 16.3406 10.8671 16.3033 10.9667C16.2209 11.0723 16.1301 11.2039 16.0442 11.268C15.9588 11.3314 15.7768 11.3925 15.7169 11.4393C15.5289 11.549 15.5283 11.6741 15.6813 11.6783C15.9434 11.6474 16.2541 11.6261 16.4681 11.3023C16.5256 11.2122 16.5938 10.9673 16.5968 10.8167C16.6164 9.93564 16.5855 9.27748 16.4533 8.64068ZM14.4664 9.37413C14.4688 9.25317 14.48 9.09308 14.4865 8.99288C14.4895 8.95552 14.4984 8.91342 14.534 8.90394C14.5701 8.89445 14.6342 8.9407 14.6348 8.90157C14.6277 8.82508 14.6122 8.71123 14.569 8.65728C14.5097 8.56952 14.3525 8.59087 14.3247 8.72843C14.3253 8.77942 14.3484 8.8067 14.3442 8.85295C14.3371 8.87903 14.3098 8.89682 14.2452 8.86599C14.2559 8.8565 14.2031 8.78357 14.2031 8.78357C14.1527 8.75274 14.0851 8.78535 14.0418 8.81322C14.0262 8.84311 14.0168 8.87591 14.0144 8.90957C14.0119 8.94323 14.0164 8.97704 14.0276 9.00889C14.0988 9.14348 14.3472 9.37176 14.4664 9.37413Z" fill="white"/>
        <path d="M14.3827 8.34279C14.5564 8.55565 14.7337 8.77148 14.9122 8.99086C14.9507 9.48062 14.9608 9.88145 14.9987 10.3712C14.9934 10.5787 14.9294 10.7596 14.8683 10.7857C14.8683 10.7857 14.7764 10.839 14.7147 10.7803C14.6697 10.762 14.49 10.4809 14.49 10.4809C14.3981 10.3967 14.3376 10.4204 14.2724 10.4809C14.0922 10.6546 14.0109 10.9807 13.8888 11.2049C13.8568 11.2553 13.7678 11.298 13.6688 11.2013C13.418 10.858 13.565 10.37 13.5342 10.4957C13.3107 10.7477 13.4091 11.1646 13.4595 11.2547C13.533 11.4017 13.5929 11.4966 13.7364 11.5695C13.8668 11.6656 13.9688 11.6051 14.0246 11.5381C14.1562 11.4011 14.158 11.0543 14.2196 10.9843C14.2623 10.858 14.372 10.8794 14.4248 10.9357C14.4731 11.0039 14.5372 11.0594 14.6116 11.0976C14.7343 11.2061 14.8808 11.2256 15.0248 11.1266C15.1233 11.0715 15.1879 10.9997 15.2454 10.858C15.3094 10.6872 15.2745 9.9022 15.2614 9.43141C15.3533 9.55 15.4429 9.67392 15.5336 9.79784C15.5733 10.191 15.5958 10.5823 15.5828 10.9819C15.5733 11.062 15.8615 10.7448 15.8591 10.5942C15.8579 10.4726 15.8591 10.3623 15.8591 10.2586C15.9978 10.4673 16.133 10.6825 16.2599 10.9102C16.3394 10.8687 16.3133 10.421 16.2629 10.3594C16.1164 10.1139 15.9214 9.85832 15.7868 9.6757C15.7779 9.65258 15.7731 9.62649 15.7624 9.60455C15.7085 9.47944 15.7423 9.37864 15.7168 9.24582C15.6919 9.11241 15.6984 8.91319 15.6599 8.75488C15.6492 8.69321 15.6172 8.49517 15.6267 8.47679C15.6421 8.43232 15.7014 8.47798 15.7304 8.42698C15.7737 8.37955 15.5804 7.87852 15.482 7.73503C15.4464 7.671 15.3824 7.69293 15.3029 7.79729C15.23 7.86607 15.2573 8.0226 15.2851 8.17143C15.3545 8.53193 15.4126 8.87761 15.4624 9.21973C15.3558 9.07798 15.2481 8.93706 15.1393 8.79697L15.1345 8.77088C15.1345 8.76436 15.1185 8.46019 15.1043 8.38785C15.1019 8.3588 15.0948 8.3499 15.1256 8.35346C15.1582 8.38073 15.1624 8.38251 15.1832 8.392C15.2164 8.39793 15.2454 8.3416 15.2258 8.29002L14.9193 7.72554C14.895 7.70123 14.863 7.67515 14.8244 7.73207C14.8005 7.75297 14.7813 7.77876 14.7682 7.80772C14.7551 7.83667 14.7484 7.86809 14.7485 7.89987C14.758 8.03328 14.7811 8.16965 14.79 8.30365L14.8031 8.37599C14.7894 8.35998 14.7728 8.33982 14.7657 8.33271C14.5054 8.05877 14.8855 8.28824 14.7159 8.07656C14.5724 7.91884 14.5309 7.86963 14.4076 7.77476C14.3459 7.73503 14.3086 7.65914 14.2884 7.7884C14.2783 7.90174 14.2753 8.01561 14.2795 8.12933C14.2795 8.18388 14.3347 8.28349 14.3827 8.34279ZM9.105 8.98256C9.25442 9.04423 9.34988 8.75962 9.41155 8.44774C9.45305 8.35998 9.48507 8.3505 9.50642 8.39556C9.50108 8.81061 9.53606 8.90252 9.64279 9.02881C9.88056 9.21262 10.0774 9.05193 10.0934 9.03652L10.2784 8.85152C10.3193 8.80824 10.3745 8.80527 10.4326 8.84382C10.4895 8.89481 10.4818 8.98375 10.6027 9.04541C10.7047 9.08632 10.9229 9.0549 10.9733 8.96715C11.0415 8.85093 11.0581 8.81061 11.089 8.76673C11.1376 8.7021 11.2206 8.73116 11.2206 8.75132C11.2129 8.78749 11.1643 8.82366 11.1975 8.88829C11.2556 8.93157 11.2686 8.9037 11.303 8.89421C11.424 8.83611 11.5141 8.57403 11.5141 8.57403C11.5194 8.4762 11.4649 8.4845 11.4293 8.50466C11.383 8.53253 11.3801 8.54201 11.3338 8.57047C11.2745 8.57937 11.1601 8.6185 11.1038 8.53075C11.0457 8.42521 11.0445 8.27816 11.0006 8.17202C11.0006 8.16431 10.9235 8.00422 10.9953 7.99414C11.0314 8.00067 11.1079 8.02083 11.1204 7.95679C11.1577 7.89394 11.0391 7.71487 10.9585 7.62415C10.8879 7.54707 10.7901 7.53759 10.6958 7.61645C10.6294 7.67752 10.6389 7.74511 10.6259 7.80974C10.6151 7.85535 10.6151 7.90284 10.6259 7.94844C10.6367 7.99404 10.658 8.03649 10.6881 8.07241C10.7539 8.20226 10.8743 8.37006 10.8346 8.60486C10.8346 8.60486 10.7646 8.71633 10.6419 8.7021C10.5909 8.69084 10.5079 8.6689 10.464 8.34279C10.4308 8.09553 10.4723 7.74986 10.3674 7.58798C10.3294 7.49015 10.3021 7.39587 10.2096 7.56308C10.1847 7.6289 10.078 7.72851 10.1557 7.93426C10.2191 8.06411 10.2446 8.27579 10.2162 8.51177C10.1723 8.57877 10.1628 8.60131 10.1053 8.66831C10.0246 8.75488 9.93748 8.73294 9.87048 8.70033C9.80763 8.65823 9.759 8.63629 9.73054 8.50229C9.73588 8.28883 9.74774 7.939 9.70861 7.86488C9.65109 7.74986 9.55622 7.79136 9.51531 7.82634C9.32024 8.00482 9.22418 8.30543 9.16548 8.54438C9.11152 8.71871 9.05401 8.6689 9.01369 8.59834C8.91526 8.50584 8.90874 7.78424 8.78956 7.90342C8.59804 8.44536 8.89747 9.04067 9.105 8.98256Z" fill="white"/>
        <path d="M11.9399 10.148L11.883 10.1154L10.7677 10.1101C10.7102 10.0882 10.7274 10.0692 10.7677 10.0538C11.0339 10.0176 11.5077 9.94051 11.5391 9.48573C11.5338 9.24915 11.4371 9.09381 11.1466 9.05111C10.9337 9.06772 10.7813 9.27465 10.8056 9.50174C10.7956 9.56341 10.8258 9.68318 10.7635 9.69682C10.3538 9.73417 9.90735 9.99032 9.89253 10.1741C9.86763 10.1913 9.81189 10.1415 9.81901 10.0632C9.79927 9.72846 9.70291 9.40267 9.53736 9.111C9.4081 8.98174 9.44842 9.02443 9.36186 9.0855C9.30612 9.14954 9.29604 9.19342 9.29901 9.3209C9.29901 9.32564 9.40336 9.61677 9.49171 9.82074C9.55041 10.03 9.60555 10.269 9.56582 10.4949C9.42826 10.7937 9.15137 11.0617 8.88455 11.207C8.74699 11.2515 8.62899 11.2355 8.59994 11.2046C8.51515 11.1477 8.5193 11.0428 8.52582 11.041C8.75054 10.8839 9.00788 10.7576 9.20947 10.3348C9.26877 10.1735 9.28655 10.0757 9.22785 9.82608C9.21154 9.73811 9.1711 9.65641 9.11105 9.59009C9.14721 9.56637 9.25098 9.64523 9.26699 9.59839C9.23693 9.46175 9.1689 9.33638 9.07073 9.2367C8.99068 9.16377 8.90352 9.15547 8.83 9.22247C8.74699 9.26872 8.7292 9.43356 8.76892 9.57823C8.8128 9.68733 8.93198 9.70571 9.01736 9.9245C9.01736 9.92925 9.04819 10.0882 9.00432 10.1504C8.96933 10.2595 8.51574 10.6159 8.49084 10.6319C8.47839 10.6473 8.48372 10.6242 8.48194 10.5649C8.47898 10.4925 8.511 10.3218 8.5021 10.3206C8.35446 10.416 8.30525 10.7084 8.27857 10.7949C7.90502 11.0529 7.48226 11.245 7.23797 11.507C7.11049 11.7057 8.11433 11.2788 8.23113 11.2272C8.25722 11.2462 8.25426 11.3357 8.32422 11.4157C8.42858 11.5568 8.64915 11.644 8.86557 11.5901C9.22726 11.459 9.43657 11.2124 9.64884 10.939C9.67908 10.8945 9.72651 10.8607 9.77039 10.8945C9.91625 11.2212 10.3378 11.4525 10.8815 11.4768C11.0078 11.3232 10.9468 11.2491 10.8958 11.2171C10.8958 11.2124 10.6272 11.1104 10.5863 11.0084C10.5614 10.9159 10.6218 10.8347 10.7428 10.773C11.092 10.7309 11.4353 10.684 11.768 10.5773C11.7715 10.4659 11.8362 10.2986 11.8806 10.2263C11.9233 10.1528 11.9464 10.1747 11.9399 10.148ZM11.0227 9.45312C11.0393 9.42525 11.0944 9.42644 11.146 9.45668C11.1976 9.48633 11.2266 9.53376 11.2094 9.56163C11.1928 9.59009 11.1371 9.58831 11.0855 9.55807C11.0339 9.52842 11.0061 9.48158 11.0227 9.45312ZM10.5738 10.5797C10.454 10.6206 10.339 10.6526 10.339 10.8258C10.3835 11.0665 10.2779 10.9841 10.2157 10.9509C10.1422 10.8981 9.93522 10.7706 9.90557 10.4955C9.90083 10.4297 9.95242 10.3745 10.0348 10.3745C10.1588 10.4083 10.342 10.4107 10.5009 10.4273C10.6307 10.4356 10.6954 10.5376 10.5738 10.5797ZM6.44285 7.90853C6.57092 7.9702 6.81284 7.94411 6.80217 7.73658C6.80217 7.7182 6.79742 7.65654 6.79564 7.63993C6.76956 7.57886 6.6984 7.59369 6.6818 7.65713C6.67647 7.67788 6.6907 7.71109 6.67231 7.72176C6.66164 7.73243 6.62073 7.72591 6.62251 7.66899C6.62251 7.65061 6.60887 7.63104 6.60116 7.61978C6.59286 7.61444 6.58812 7.61266 6.5733 7.61266C6.55551 7.61325 6.55551 7.618 6.54602 7.63341C6.54187 7.64824 6.53594 7.66365 6.53594 7.68085C6.53357 7.70101 6.52586 7.70812 6.51104 7.71168C6.49444 7.71168 6.49799 7.71346 6.48495 7.70456C6.47665 7.69567 6.46657 7.69211 6.46657 7.67729C6.46652 7.65996 6.46372 7.64275 6.45827 7.6263C6.45115 7.61681 6.43989 7.61266 6.42684 7.6091C6.35687 7.6091 6.35213 7.68915 6.35628 7.71998C6.34976 7.72532 6.34739 7.86881 6.44285 7.90853Z" fill="white"/>
        <path d="M10.3835 9.26003C10.3835 9.24165 10.3699 9.22268 10.3622 9.21082C10.3539 9.20548 10.3491 9.2037 10.3343 9.2037C10.3165 9.2043 10.3171 9.20904 10.307 9.22446C10.3029 9.23987 10.297 9.2547 10.297 9.27189C10.2952 9.29264 10.2869 9.29976 10.2721 9.30272C10.2555 9.30272 10.259 9.3045 10.2454 9.2962C10.2371 9.28731 10.227 9.28375 10.227 9.26893C10.227 9.25159 10.2242 9.23437 10.2187 9.21793C10.2116 9.20845 10.2003 9.2043 10.1873 9.20133C10.1173 9.20133 10.1126 9.28138 10.1161 9.31162C10.1108 9.31755 10.1078 9.46044 10.2033 9.50076C10.3319 9.56183 10.6373 9.52626 10.5626 9.32881C10.5613 9.29634 10.5592 9.26392 10.5561 9.23157C10.53 9.1705 10.4582 9.18592 10.4422 9.24877C10.4375 9.26952 10.4517 9.30272 10.4327 9.3134C10.4233 9.32407 10.3817 9.31755 10.3835 9.26003ZM12.3977 8.84083C12.5258 8.90249 12.7671 8.87641 12.7564 8.66947C12.7552 8.637 12.753 8.60458 12.7499 8.57223C12.7238 8.51116 12.6527 8.52657 12.6367 8.58943C12.6313 8.61018 12.6456 8.64338 12.6266 8.65406C12.6159 8.66473 12.575 8.6588 12.5768 8.60128C12.5768 8.5829 12.5631 8.56334 12.5554 8.55207C12.5471 8.54673 12.5424 8.54496 12.527 8.54496C12.5092 8.54614 12.5098 8.55029 12.4997 8.56571C12.4956 8.58112 12.4896 8.59595 12.4896 8.61314C12.4872 8.6339 12.4795 8.64101 12.4647 8.64398C12.4481 8.64398 12.4517 8.64575 12.438 8.63745C12.4297 8.62856 12.4202 8.625 12.4202 8.61018C12.4202 8.59266 12.4174 8.57525 12.4119 8.55859C12.4042 8.54911 12.3936 8.54496 12.3799 8.54199C12.31 8.54199 12.3052 8.62204 12.3094 8.65228C12.3052 8.65821 12.3023 8.8011 12.3977 8.84083ZM12.4843 8.03918C12.5299 8.16726 12.4493 8.2894 12.4973 8.30719C12.5406 8.32735 12.6023 8.17497 12.6248 8.03444C12.6515 7.9206 12.5703 7.68758 12.4552 7.63955C12.3853 7.62295 12.2857 7.66445 12.3177 7.75813C12.3017 7.8032 12.4588 7.95617 12.4843 8.03918ZM13.6672 11.0418C13.7567 11.0424 13.8599 10.8372 13.9038 10.6339C13.9281 10.354 13.8872 10.1838 13.88 10.019C13.8723 9.85474 13.6945 8.60069 13.6577 8.47618C13.6144 8.24078 13.8314 8.44475 13.8077 8.30778C13.7324 8.13524 13.5456 7.88443 13.4863 7.73442C13.4508 7.67038 13.4662 7.61346 13.3867 7.71781C13.3138 7.95795 13.2883 8.15362 13.3162 8.30304C13.5047 9.28731 13.698 10.1056 13.6672 11.0418ZM15.8942 8.46847C15.915 8.5325 15.8628 8.73944 15.9061 8.75841C15.9458 8.77976 16.0016 8.61551 16.0223 8.46313C16.0336 8.37953 15.9725 8.0878 15.8676 8.03563C15.8035 8.01784 15.7128 8.06231 15.7424 8.16429C15.7276 8.21351 15.8711 8.37834 15.8942 8.46847ZM8.11556 10.6362C8.1541 10.6522 8.20687 10.5313 8.22703 10.4192C8.2383 10.3576 8.179 10.1435 8.0788 10.105C8.01713 10.0919 7.93294 10.1085 7.95902 10.1998C7.95606 10.249 8.0954 10.3083 8.1037 10.4228C8.12386 10.4702 8.07405 10.6226 8.11556 10.6362ZM5.41416 7.89985C5.43373 7.94906 5.39459 8.10619 5.4355 8.12101C5.47286 8.13761 5.52563 8.01191 5.5452 7.89629C5.55646 7.83225 5.54757 7.61524 5.39934 7.57077C5.33826 7.55713 5.25347 7.59093 5.28134 7.6686C5.26711 7.70536 5.39222 7.83107 5.41416 7.89985ZM8.32071 8.59536C8.20746 8.65702 8.16299 8.83964 8.23415 8.94578C8.29996 9.04005 8.40432 9.00507 8.41855 9.00507C8.53002 9.01871 8.59583 8.79636 8.59583 8.79636C8.59583 8.79636 8.59939 8.7341 8.46717 8.85209C8.41143 8.86277 8.40432 8.84201 8.39068 8.81C8.37718 8.75197 8.38322 8.6911 8.40787 8.63686C8.42685 8.58172 8.38416 8.55741 8.32071 8.59536ZM9.17572 7.9117C9.194 7.90041 9.20968 7.88538 9.22174 7.8676C9.2338 7.84982 9.24196 7.82969 9.24569 7.80853C9.26288 7.72197 9.15378 7.84945 9.14015 7.7528C9.11584 7.66327 9.1858 7.6265 9.25221 7.53994C9.25458 7.48005 9.2534 7.43795 9.17216 7.48657C9.11524 7.52511 9.0014 7.64251 8.99784 7.7777C8.99428 7.85419 8.98005 7.8536 9.03045 7.90222C9.06662 7.95499 9.10279 7.94965 9.17572 7.9117ZM9.94594 7.95795C10.0195 7.75873 10.0195 7.67453 10.0248 7.58974C10.0023 7.46108 9.91511 7.46523 9.85759 7.60812C9.83269 7.66208 9.80364 7.94609 9.80838 7.94609C9.78881 8.03088 9.89673 8.06705 9.94594 7.95795ZM14.7902 9.37091C14.7902 9.37091 14.1955 9.79367 14.1813 9.80849C14.122 9.86067 14.1516 10.0457 14.1813 10.0243C14.2234 10.0409 14.8216 9.63477 14.8098 9.58733C14.8376 9.58852 14.8513 9.34957 14.7902 9.37091ZM14.7173 10.5176C14.757 10.539 14.8619 10.4091 14.8578 10.2473C14.8697 10.1637 14.8276 9.85712 14.7232 9.80494C14.6592 9.78715 14.5738 9.8417 14.6034 9.94309C14.5886 9.99171 14.6769 10.1619 14.7001 10.252C14.7208 10.3166 14.674 10.4987 14.7173 10.5176ZM11.3494 11.4047C11.3494 11.41 11.3998 11.4533 11.4591 11.4189C11.5836 11.3709 11.6619 11.3246 11.8362 11.2861C11.8819 11.2855 11.8789 11.1628 11.8066 11.1586C11.7123 11.1633 11.6245 11.1681 11.5303 11.2428C11.4721 11.2558 11.4627 11.2209 11.4496 11.1888C11.4354 11.11 11.4822 11.0554 11.4721 10.9967C11.4757 11.0003 11.4182 10.9475 11.3595 10.9772C11.3565 10.9772 11.2285 11.0637 11.1875 11.1242C11.162 11.1438 11.165 11.1604 11.1727 11.193C11.1923 11.2381 11.2273 11.2244 11.2664 11.2031C11.3186 11.196 11.3435 11.2303 11.3393 11.2926C11.3144 11.3715 11.3494 11.4005 11.3494 11.4047ZM15.2337 11.5031C15.2141 11.5369 15.2011 11.5879 15.2616 11.6039C15.3731 11.6353 15.6298 11.4681 15.6298 11.4651C15.6713 11.4337 15.6577 11.375 15.6541 11.375C15.6298 11.3472 15.5752 11.3632 15.5385 11.359C15.5213 11.359 15.4632 11.3501 15.491 11.2991C15.5106 11.2716 15.5262 11.2415 15.5373 11.2096C15.5545 11.1711 15.5397 11.1456 15.4768 11.1248C15.4134 11.1129 15.3879 11.1189 15.3173 11.1248C15.2794 11.1331 15.2663 11.1497 15.2592 11.196C15.2622 11.2659 15.3043 11.2624 15.3481 11.2902C15.3736 11.3228 15.3902 11.3525 15.3464 11.4053C15.3049 11.4438 15.2758 11.4651 15.2337 11.5031ZM15.1199 14.5804H14.2305V14.2839C14.2305 14.2053 14.1992 14.1299 14.1436 14.0743C14.088 14.0187 14.0126 13.9875 13.934 13.9875C13.8554 13.9875 13.78 14.0187 13.7244 14.0743C13.6688 14.1299 13.6375 14.2053 13.6375 14.2839V14.5804H6.52235C6.52235 14.5804 6.52235 15.1733 8.30115 15.1733H13.6375V15.4698C13.6375 15.5484 13.6688 15.6238 13.7244 15.6794C13.78 15.735 13.8554 15.7663 13.934 15.7663C14.0126 15.7663 14.088 15.735 14.1436 15.6794C14.1992 15.6238 14.2305 15.5484 14.2305 15.4698V15.1733H14.8234V15.4698C14.8234 15.5484 14.8546 15.6238 14.9102 15.6794C14.9658 15.735 15.0412 15.7663 15.1199 15.7663C15.1985 15.7663 15.2739 15.735 15.3295 15.6794C15.3851 15.6238 15.4163 15.5484 15.4163 15.4698V14.8769C15.4163 14.7983 15.3851 14.7228 15.3295 14.6672C15.2739 14.6116 15.1985 14.5804 15.1199 14.5804Z" fill="white"/>
    </g>
    <defs>
        <clipPath id="clip0_203_4631">
            <rect width="21.3456" height="21.3456" fill="white" transform="translate(0 0.941895)"/>
        </clipPath>
    </defs>
</svg>
