<svg width="147" height="147" viewBox="0 0 147 147" fill="none" xmlns="http://www.w3.org/2000/svg">
    <circle cx="73.5791" cy="75.1451" r="65.6665" transform="rotate(165 73.5791 75.1451)" fill="url(#paint0_linear_463_1328)"/>
    <circle cx="20.1586" cy="111.809" r="2.7497" fill="white" stroke="url(#paint1_linear_463_1328)" stroke-width="1.64991"/>
    <circle cx="49.1429" cy="35.5278" r="2.03477" fill="white" stroke="url(#paint2_linear_463_1328)" stroke-width="1.64991"/>
    <circle cx="113.598" cy="125.723" r="3.7948" fill="white" stroke="url(#paint3_linear_463_1328)" stroke-width="1.64991"/>
    <path d="M107.052 46.6818C107.148 46.0556 107.799 45.6796 108.389 45.9095L111.081 46.9575C111.855 47.2589 111.936 48.322 111.217 48.7373L108.087 50.5443C107.368 50.9596 106.487 50.3577 106.613 49.5368L107.052 46.6818Z" fill="url(#paint4_linear_463_1328)"/>
    <path d="M130.454 90.9012H129.586L129.807 72.3659L129.826 70.8213H130.214L130.233 72.3659L130.454 90.9012Z" fill="#1E66CA"/>
    <path d="M130.233 72.3659H129.807L129.826 70.8213H130.214L130.233 72.3659Z" fill="#263238"/>
    <path d="M127.855 65.2L128.196 71.2498L128.595 71.3132L128.958 71.3708V64.8389L128.186 65.0925L127.855 65.2Z" fill="#1E66CA"/>
    <path d="M128.232 65.9072C128.232 65.9072 126.759 65.9207 126.79 66.0033C126.82 66.0859 127.412 66.2511 127.466 66.2895C127.52 66.328 128.081 67.4019 128.234 67.4019C128.388 67.4019 128.232 65.9072 128.232 65.9072Z" fill="#1E66CA"/>
    <path d="M128.34 67.6191C128.34 67.6191 126.868 67.6345 126.897 67.7171C126.926 67.7997 127.521 67.9649 127.573 68.0034C127.625 68.0418 128.19 69.1138 128.342 69.1138C128.493 69.1138 128.34 67.6191 128.34 67.6191Z" fill="#1E66CA"/>
    <path d="M128.449 69.3325C128.449 69.3325 126.976 69.3479 127.006 69.4305C127.037 69.5131 127.629 69.6783 127.683 69.7148C127.736 69.7513 128.297 70.8272 128.451 70.8272C128.605 70.8272 128.449 69.3325 128.449 69.3325Z" fill="#1E66CA"/>
    <path opacity="0.1" d="M128.186 65.0925L128.595 71.3132L128.958 71.3708V64.8389L128.186 65.0925Z" fill="black"/>
    <path d="M132.187 65.2L131.847 71.2498L131.447 71.3132L131.084 71.3708V64.8389L131.856 65.0925L132.187 65.2Z" fill="#1E66CA"/>
    <path d="M131.811 65.9072C131.811 65.9072 133.283 65.9207 133.252 66.0033C133.222 66.0859 132.63 66.2511 132.576 66.2895C132.522 66.328 131.961 67.4019 131.808 67.4019C131.654 67.4019 131.811 65.9072 131.811 65.9072Z" fill="#1E66CA"/>
    <path d="M131.7 67.6191C131.7 67.6191 133.173 67.6345 133.143 67.7171C133.112 67.7997 132.518 67.9649 132.466 68.0034C132.414 68.0418 131.85 69.1138 131.698 69.1138C131.546 69.1138 131.7 67.6191 131.7 67.6191Z" fill="#1E66CA"/>
    <path d="M131.595 69.3325C131.595 69.3325 133.066 69.3479 133.035 69.4305C133.005 69.5131 132.413 69.6783 132.359 69.7148C132.305 69.7513 131.744 70.8272 131.591 70.8272C131.437 70.8272 131.595 69.3325 131.595 69.3325Z" fill="#1E66CA"/>
    <path opacity="0.1" d="M131.856 65.0925L131.447 71.3132L131.084 71.3708V64.8389L131.856 65.0925Z" fill="black"/>
    <path d="M131.405 64.3472L131.284 71.5188H128.76L128.639 64.3472H131.405Z" fill="#1E66CA"/>
    <path d="M130.919 65.6188C130.919 65.7967 130.867 65.9705 130.768 66.1183C130.669 66.2662 130.529 66.3814 130.364 66.4495C130.2 66.5175 130.019 66.5353 129.845 66.5007C129.67 66.466 129.51 66.3803 129.384 66.2546C129.259 66.1288 129.173 65.9686 129.138 65.7942C129.104 65.6198 129.121 65.439 129.19 65.2748C129.258 65.1105 129.373 64.97 129.521 64.8713C129.669 64.7725 129.842 64.7197 130.02 64.7197C130.259 64.7197 130.487 64.8145 130.656 64.9831C130.825 65.1517 130.919 65.3804 130.919 65.6188Z" fill="#DD6A57"/>
    <path d="M130.919 70.1662C130.919 70.344 130.867 70.5178 130.768 70.6657C130.669 70.8136 130.529 70.9288 130.364 70.9968C130.2 71.0649 130.019 71.0827 129.845 71.048C129.67 71.0133 129.51 70.9277 129.384 70.8019C129.259 70.6762 129.173 70.516 129.138 70.3416C129.104 70.1672 129.121 69.9864 129.19 69.8221C129.258 69.6578 129.373 69.5174 129.521 69.4186C129.669 69.3198 129.842 69.2671 130.02 69.2671C130.259 69.2671 130.487 69.3618 130.656 69.5304C130.825 69.699 130.919 69.9277 130.919 70.1662Z" fill="white"/>
    <path d="M130.919 67.9127C130.919 68.0905 130.866 68.2641 130.767 68.4117C130.668 68.5593 130.527 68.6743 130.363 68.742C130.199 68.8098 130.018 68.8273 129.844 68.7924C129.669 68.7575 129.509 68.6717 129.384 68.5459C129.258 68.4201 129.173 68.2599 129.138 68.0855C129.104 67.9112 129.122 67.7305 129.19 67.5663C129.258 67.4021 129.373 67.2618 129.521 67.1631C129.669 67.0644 129.842 67.0117 130.02 67.0117C130.138 67.0117 130.255 67.035 130.365 67.0803C130.474 67.1256 130.573 67.192 130.657 67.2757C130.74 67.3594 130.806 67.4588 130.851 67.5681C130.896 67.6774 130.92 67.7945 130.919 67.9127Z" fill="white"/>
    <path d="M130.715 94.0503H129.324L129.443 90.4078L129.48 89.2762H130.531L130.575 90.4078L130.715 94.0503Z" fill="#1E66CA"/>
    <path d="M130.577 90.4079H129.445L129.482 89.2764H130.533L130.577 90.4079Z" fill="#455A64"/>
    <path d="M27.5176 98.6553H50.3793C50.3793 98.6553 47.8818 87.9756 38.9504 87.9756C30.0189 87.9756 27.9018 96.2711 27.5176 98.6553Z" fill="#1E66CA"/>
    <path opacity="0.2" d="M27.5176 98.6553H50.3793C50.3793 98.6553 47.8818 87.9756 38.9504 87.9756C30.0189 87.9756 27.9018 96.2711 27.5176 98.6553Z" fill="black"/>
    <path d="M93.8555 99.8077H116.717C116.717 99.8077 114.22 89.1281 105.288 89.1281C96.3568 89.1281 94.2493 97.4236 93.8555 99.8077Z" fill="#1E66CA"/>
    <path opacity="0.2" d="M93.8555 99.8077H116.717C116.717 99.8077 114.22 89.1281 105.288 89.1281C96.3568 89.1281 94.2493 97.4236 93.8555 99.8077Z" fill="black"/>
    <path d="M22.2872 79.1765C21.7973 79.945 20.9424 88.5306 20.8866 88.8303C20.8309 89.13 20.1182 90.4441 20.1182 90.6938C20.1182 90.9436 19.9261 94.8089 20.0317 95.0587C20.2631 95.5146 20.5263 95.9537 20.8194 96.3727C20.9443 96.5226 24.1833 99.3102 24.5464 99.3486C24.9095 99.387 28.26 99.4101 28.3234 99.3486C28.3868 99.2871 28.773 88.9744 38.9397 88.9744C49.1065 88.9744 48.995 99.925 49.1833 99.9672C49.3716 100.009 94.8818 101.043 94.8818 101.043C94.8818 99.3659 95.0124 89.3874 104.985 89.3874C111.482 89.3874 114.766 94.7417 114.879 98.6916C114.925 100.336 114.65 102.15 114.741 102.15C115.04 102.15 116.066 102.225 116.241 102.15C116.416 102.075 118.547 100.672 118.718 100.622C118.889 100.572 120.118 100.547 120.418 100.472C120.717 100.398 122.819 98.5513 122.858 98.4841C122.896 98.4169 122.958 97.6849 122.969 97.6215C122.981 97.5581 125.109 94.9569 125.209 94.6706C125.309 94.3843 125.345 92.006 125.345 91.7677C125.345 91.5295 121.482 85.2646 120.581 84.5903C119.68 83.916 113.265 81.6644 111.388 81.3244C109.511 80.9843 99.1948 79.4474 98.8201 79.1861C98.4455 78.9248 80.8285 68.8215 77.7643 68.0703C75.2879 67.4709 46.6243 68.2951 45.1239 68.37C43.6235 68.4449 39.47 69.1961 39.0704 69.1961C38.6708 69.1961 34.0754 69.1711 33.7929 69.296C33.5105 69.4209 33.7929 70.5217 34.1426 70.7215C34.4922 70.9213 23.1382 77.8259 22.2872 79.1765Z" fill="#1E66CA"/>
    <path d="M22.9443 78.5251C23.0519 78.625 24.8443 78.6692 25.0326 78.5943C25.2208 78.5194 36.5095 71.0096 36.5172 70.7906C36.5172 70.6811 34.4039 70.7099 34.1427 70.7214C33.8814 70.7329 22.7368 78.3369 22.9443 78.5251Z" fill="#455A64"/>
    <path d="M35.5172 78.4058C36.0071 79.8505 95.2997 82.5517 95.6243 81.8524C95.8645 81.3337 90.5602 77.0745 88.0838 75.6855C85.6075 74.2965 78.5165 70.2832 75.02 69.8702C71.5235 69.4571 64.4536 69.4859 58.2867 69.6089C52.1698 69.7203 44.9674 69.8702 42.4161 70.9537C40.1856 71.9143 35.1292 77.257 35.5172 78.4058Z" fill="#263238"/>
    <path d="M37.1696 77.5631C37.3176 78.1067 50.4121 79.5149 65.7583 80.2277C81.1045 80.9404 88.6815 81.0519 88.8698 80.9769C89.0581 80.902 88.3434 76.8138 88.0821 76.4757C87.8208 76.1376 76.8261 70.5105 75.1009 70.3587C73.3757 70.207 64.0504 70.1897 59.3474 70.2646C54.6444 70.3395 44.8293 70.9024 43.1579 71.5767C41.6843 72.1723 37.0179 77.0194 37.1696 77.5631Z" fill="#455A64"/>
    <g opacity="0.1">
        <path d="M57.4889 70.3123L48.6996 79.1015C47.1319 78.9632 45.6814 78.8249 44.3789 78.6923L52.5227 70.5505C54.2594 70.4391 55.9904 70.3584 57.4889 70.3123Z" fill="white"/>
        <path d="M88.8416 80.1098L87.956 80.9955C87.0595 80.9955 85.5129 80.966 83.3164 80.9071L87.8888 76.3367C87.9569 76.376 88.0213 76.4217 88.0809 76.4731C88.2711 76.7151 88.6899 78.8707 88.8416 80.1098Z" fill="white"/>
        <path d="M64.0402 70.2278L54.6938 79.58C53.9446 79.5281 53.2088 79.4743 52.4922 79.4186L61.6638 70.2451C62.4169 70.2335 63.218 70.2278 64.0402 70.2278Z" fill="white"/>
        <path d="M84.1055 74.3236L77.7004 80.7326L75.4219 80.6481L82.5301 73.5398C83.07 73.803 83.6002 74.0662 84.1055 74.3236Z" fill="white"/>
        <path d="M50.958 70.6389L43.0525 78.5483L42.4492 78.4811L50.2414 70.6889L50.958 70.6389Z" fill="white"/>
        <path d="M85.4675 75.0213L79.704 80.7963L79.0547 80.7733L85.0333 74.7927L85.4675 75.0213Z" fill="white"/>
        <path d="M77.1709 71.0538L67.9014 80.3233L67.2559 80.2964L76.7002 70.8597L77.1709 71.0538Z" fill="white"/>
        <path d="M44.6758 71.2421L38.0593 77.8508C37.8384 77.8066 37.6559 77.7644 37.5156 77.7221L43.8554 71.3823C44.0956 71.3362 44.3684 71.2882 44.6758 71.2421Z" fill="white"/>
    </g>
    <path d="M45.3833 71.1423C45.4448 71.1423 45.4736 71.223 45.4198 71.3671C45.1124 72.2182 42.7129 77.0383 42.1135 78.1641C42.0757 78.2247 42.0262 78.277 41.9677 78.3179C41.9093 78.3589 41.8432 78.3876 41.7734 78.4024L46 78.8538C45.9259 78.8241 45.8645 78.7694 45.8263 78.6993C45.7881 78.6292 45.7754 78.548 45.7906 78.4696C45.8328 78.2026 47.4024 72.5371 47.9038 71.1442C47.96 71.0153 48.06 70.9104 48.1862 70.8484C48.2708 70.8484 47.4658 70.8599 46.7012 70.9387C46.0211 71.0117 45.3833 71.1423 45.3833 71.1423Z" fill="#263238"/>
    <path d="M50.9551 70.6386C50.9551 70.6386 51.0319 70.6809 51.0358 70.8308C51.0627 72.164 51.2125 78.84 51.0838 79.2051C51.0755 79.2414 51.0535 79.273 51.0223 79.2934L51.8215 79.3568C51.7802 79.3006 51.755 79.2342 51.7485 79.1647C51.6582 78.037 51.5775 71.9162 51.5929 70.7846C51.5976 70.7144 51.6238 70.6474 51.6678 70.5925L50.9551 70.6386Z" fill="#263238"/>
    <path d="M64.1023 70.502C64.1964 70.7978 64.352 79.5141 64.352 79.7946C64.352 80.0751 64.0312 80.1423 64.0312 80.1423L68.9858 80.3728C68.9858 80.3728 68.665 80.2825 68.6016 80.1327C68.5382 79.9828 66.9878 70.5846 66.9975 70.4616C67.0071 70.3387 67.251 70.2234 67.251 70.2234H63.793C63.8608 70.2464 63.9231 70.2829 63.9763 70.3308C64.0295 70.3787 64.0724 70.4369 64.1023 70.502Z" fill="#263238"/>
    <path d="M23.1632 80.4024C22.5542 80.4792 21.1863 81.9028 21.0864 82.2025C20.9865 82.5022 20.6119 84.529 20.8117 84.8287C21.0115 85.1284 21.7377 85.8796 22.3621 85.9045C22.9864 85.9295 26.0391 84.4791 26.3139 84.2293C26.5886 83.9796 26.7884 82.4561 26.4637 81.9662C26.139 81.4763 23.9374 80.3025 23.1632 80.4024Z" fill="white"/>
    <path d="M26.3145 84.2296C26.0398 84.4793 22.987 85.9298 22.3627 85.9048C21.8862 85.8856 21.3502 85.4438 21.0352 85.1018C21.3901 85.3587 21.8189 85.4935 22.257 85.486C22.5932 85.4553 25.4519 84.2257 25.8188 83.8895C26.1858 83.5533 26.2031 82.2873 26.1531 82.0587C26.1032 81.8301 24.2589 80.6409 24.2589 80.6409C25.1714 80.9924 26.2453 81.6341 26.4643 81.9645C26.789 82.4621 26.5892 83.9779 26.3145 84.2296Z" fill="#EBEBEB"/>
    <path d="M20.6382 91.7201C20.4691 91.8892 20.4115 93.1591 20.5883 93.2705C20.765 93.3819 21.789 93.3704 21.9888 93.2705C22.1886 93.1706 22.7015 92.2196 22.6631 91.895C22.6247 91.5703 20.838 91.5203 20.6382 91.7201Z" fill="white"/>
    <path d="M111.943 84.6902C112.483 85.5643 116.446 87.1109 117.928 87.3549C118.861 87.5085 122.093 87.7122 122.281 87.547C122.469 87.3817 120.911 85.2205 120.104 84.6941C119.297 84.1677 115.265 82.819 114.045 82.8747C112.825 82.9304 111.4 83.8065 111.943 84.6902Z" fill="white"/>
    <path d="M122.28 87.543C122.088 87.7121 118.86 87.5085 117.926 87.3509C116.445 87.1069 112.482 85.5604 111.942 84.6863C111.402 83.8122 112.824 82.9246 114.044 82.867C114.138 82.8614 114.233 82.8614 114.328 82.867C113.193 83.2858 112.96 84.1733 113.652 84.6805C114.343 85.1877 116.56 86.3731 117.446 86.6209C118.299 86.861 121.481 87.3567 121.757 87.1396C121.81 87.0771 121.848 87.0036 121.869 86.9246C121.89 86.8455 121.893 86.7628 121.878 86.6824C122.17 87.13 122.351 87.4796 122.28 87.543Z" fill="#EBEBEB"/>
    <g opacity="0.5">
        <path d="M35.8247 84.4864C35.8285 85.0202 35.6213 85.5339 35.2483 85.9158C34.8696 86.3053 34.3517 86.5285 33.8085 86.5365C33.2653 86.5444 32.7411 86.3364 32.3512 85.958C32.1542 85.7671 31.9976 85.5386 31.8906 85.2859C31.7836 85.0333 31.7285 84.7617 31.7285 84.4874C31.7285 84.2131 31.7836 83.9415 31.8906 83.6889C31.9976 83.4362 32.1542 83.2077 32.3512 83.0168C32.544 82.829 32.772 82.6811 33.0221 82.5816C33.2722 82.482 33.5394 82.4328 33.8085 82.4367C34.0777 82.4407 34.3434 82.4977 34.5904 82.6044C34.8375 82.7112 35.0611 82.8657 35.2483 83.059C35.6212 83.4402 35.8284 83.9532 35.8247 84.4864ZM35.8247 84.4864C35.8203 83.9558 35.6054 83.4486 35.2272 83.0763C35.04 82.896 34.8191 82.7543 34.5772 82.6594C34.3352 82.5645 34.0769 82.5181 33.8171 82.523C33.3004 82.5334 32.8088 82.7475 32.4492 83.1186C32.0932 83.4853 31.8941 83.9763 31.8941 84.4874C31.8941 84.9985 32.0932 85.4895 32.4492 85.8562C32.8088 86.2273 33.3004 86.4414 33.8171 86.4518C34.0769 86.4567 34.3352 86.4103 34.5772 86.3154C34.8191 86.2205 35.04 86.0788 35.2272 85.8985C35.6051 85.5253 35.82 85.0176 35.8247 84.4864Z" fill="black"/>
        <path d="M27.5186 90.5822C27.3149 90.1288 27.1343 89.6716 26.9422 89.2105C26.7501 88.7494 26.5887 88.2884 26.412 87.8254C26.2352 87.3624 26.0758 86.8955 25.9182 86.4268C25.7607 85.958 25.6032 85.4873 25.4648 85.0109C25.6704 85.4643 25.8491 85.9215 26.0412 86.3806C26.2333 86.8398 26.3947 87.3047 26.5733 87.7677C26.752 88.2307 26.9096 88.6976 27.0671 89.1663C27.2246 89.6351 27.3764 90.1058 27.5186 90.5822Z" fill="black"/>
        <path d="M20.4805 90.582C21.466 90.5628 22.4497 90.5647 23.4352 90.5685L26.388 90.5993L29.3408 90.6704C30.3245 90.7011 31.3081 90.7338 32.2917 90.7856C31.3081 90.8048 30.3225 90.8029 29.3389 90.801L26.3842 90.7683L23.4314 90.6973C22.4477 90.6665 21.4641 90.6339 20.4805 90.582Z" fill="black"/>
        <path d="M66.9668 81.0015L67.3049 83.401L67.4509 84.6036C67.474 84.8053 67.4951 85.0051 67.5105 85.2088C67.5259 85.4124 67.5105 85.6122 67.5105 85.8159L67.4778 90.661L67.4394 93.0855L67.4183 94.2958L67.4087 94.9029L67.3626 95.5062L67.1704 97.923L66.9668 100.328L67.0898 97.9095L67.2281 95.4927L67.2627 94.8876V94.2824L67.2742 93.0721L67.2992 90.6533L67.3818 85.812C67.3818 85.6103 67.3991 85.4067 67.3818 85.2088C67.3645 85.0109 67.3529 84.8073 67.3337 84.6075L67.2127 83.4029L66.9668 81.0015Z" fill="black"/>
        <path d="M93.5741 82.1023L93.9909 84.5133L94.1831 85.7275L94.233 86.0291C94.2547 86.1295 94.267 86.2318 94.2695 86.3346C94.2695 86.5382 94.2695 86.7418 94.2695 86.9474C94.2561 88.5785 94.2157 90.2134 94.1658 91.8387C94.153 92.2459 94.1357 92.6532 94.1139 93.0605C94.0911 93.4715 94.0122 93.8774 93.8795 94.267C93.6567 95.0528 93.4012 95.827 93.1207 96.5954C92.8471 97.3661 92.521 98.1171 92.1447 98.8432L91.993 99.1121C91.9411 99.2005 91.8815 99.285 91.8258 99.3715C91.7674 99.4583 91.7033 99.5411 91.6337 99.6193L91.5338 99.7404C91.4796 99.7727 91.4182 99.7912 91.3551 99.7942C90.9421 99.8364 90.5367 99.8422 90.1275 99.8556C86.8615 99.9229 83.6052 99.8941 80.3431 99.871C77.081 99.8479 73.8208 99.7999 70.5586 99.7404C67.2965 99.6808 64.0382 99.5905 60.7781 99.4714C59.1489 99.4042 57.5121 99.3504 55.8906 99.2044C55.6821 99.189 55.4751 99.1562 55.272 99.1064C55.1568 99.0622 55.0895 99.0084 54.9915 98.9661C54.8936 98.9239 54.8109 98.8778 54.7187 98.8355C54.348 98.6684 53.9676 98.5204 53.5987 98.336C53.225 98.1587 52.8788 97.9283 52.5709 97.6521C52.3031 97.3389 52.0554 97.0091 51.8293 96.6646C50.911 95.3198 50.033 93.9404 49.157 92.5668C48.281 91.1932 47.4126 89.8099 46.55 88.4267C45.6874 87.0435 44.8363 85.6506 43.9949 84.2539L43.6836 83.7276L43.6087 83.5892L43.5722 83.5201C43.5662 83.4949 43.563 83.4691 43.5626 83.4432L43.5319 83.1397C43.4973 82.7324 43.4665 82.3251 43.4512 81.9178C43.4512 81.816 43.4512 81.7142 43.4512 81.6104C43.4645 81.5089 43.4863 81.4086 43.5165 81.3107C43.5722 81.1186 43.6394 80.9265 43.7086 80.7344C43.845 80.3502 43.991 79.9659 44.1428 79.5913C43.9942 79.9755 43.8527 80.3598 43.7182 80.744C43.6529 80.9361 43.5876 81.1282 43.5261 81.3203C43.4967 81.4177 43.4755 81.5173 43.4627 81.6181C43.4627 81.7199 43.4627 81.8218 43.4627 81.9236C43.48 82.329 43.5165 82.7362 43.553 83.1416L43.5857 83.4451C43.5875 83.4704 43.5913 83.4954 43.5972 83.5201L43.6337 83.5854C43.6587 83.6277 43.6798 83.6699 43.7067 83.7141L44.0218 84.2386C44.8728 85.6276 45.7508 87.0089 46.6115 88.3883C48.3405 91.1451 50.083 93.9097 51.9139 96.607C52.1358 96.9419 52.3783 97.2627 52.64 97.5675C52.9412 97.8349 53.2789 98.0581 53.6429 98.2303C54.006 98.409 54.3845 98.555 54.7591 98.7241C54.8532 98.7663 54.9512 98.8086 55.0376 98.8547C55.1241 98.9008 55.2298 98.9623 55.3047 98.9892C55.4982 99.0333 55.6947 99.0629 55.8926 99.0776C57.5121 99.2197 59.1451 99.2697 60.7742 99.3292C64.0402 99.4407 67.2927 99.5117 70.5529 99.5713C73.8131 99.6309 77.0733 99.6943 80.3354 99.7308C83.5975 99.7673 86.8673 99.8018 90.116 99.7442C90.5213 99.7327 90.9325 99.7269 91.3321 99.6866C91.3782 99.6866 91.4377 99.6674 91.4454 99.6654L91.5415 99.5502C91.6076 99.4747 91.6679 99.3945 91.7221 99.31C91.7759 99.2255 91.8354 99.1429 91.8873 99.0564L92.0371 98.7932C92.4198 98.0705 92.7517 97.322 93.0304 96.5532C93.3134 95.7847 93.5696 95.0118 93.7988 94.2343C93.9295 93.8514 94.0083 93.4528 94.0332 93.049L94.0889 91.8271C94.1542 90.198 94.208 88.5612 94.2349 86.9378C94.2349 86.7342 94.2349 86.5305 94.2349 86.3288C94.232 86.2268 94.2204 86.1253 94.2004 86.0252L94.1523 85.7236L93.9602 84.5171L93.5741 82.1023Z" fill="black"/>
        <path d="M114.562 86.248C114.138 86.6044 113.689 86.9287 113.217 87.2182C112.75 87.5199 112.274 87.8042 111.801 88.0943C111.329 88.3844 110.841 88.6533 110.358 88.9223C109.876 89.1913 109.386 89.4545 108.889 89.7023C109.352 89.3949 109.822 89.101 110.293 88.8089L111.715 87.9483L113.148 87.1087L113.866 86.6899C114.107 86.5567 114.339 86.4092 114.562 86.248Z" fill="black"/>
        <path d="M45.9141 91.0181L52.2654 91.1852L58.6186 91.3773L71.3232 91.7654L84.0259 92.2092L90.3772 92.432L96.7266 92.6818L90.3734 92.5146L84.0221 92.3225L71.3175 91.9345L58.6148 91.4907L52.2635 91.2659L45.9141 91.0181Z" fill="black"/>
        <path d="M45.5402 81.9139L45.2904 81.9273H45.2289C45.2155 81.9273 45.2136 81.9389 45.2059 81.9581C45.1953 81.9972 45.1875 82.037 45.1828 82.0772C45.1672 82.24 45.1639 82.4038 45.1732 82.5671C45.1753 82.6481 45.1824 82.729 45.1944 82.8091C45.1992 82.8453 45.2082 82.8807 45.2213 82.9148H45.2405H45.2866C45.4479 82.9302 45.6151 82.934 45.7784 82.9398C46.4393 82.9609 47.1021 82.982 47.7629 82.9936L48.7543 83.0224H49.2499H49.4612C49.472 83.0027 49.481 82.9822 49.4881 82.9609C49.498 82.9236 49.5057 82.8858 49.5112 82.8476C49.5327 82.6872 49.5398 82.5251 49.5323 82.3634C49.5301 82.283 49.5231 82.2028 49.5112 82.1233C49.5061 82.0915 49.4971 82.0606 49.4843 82.0311C49.4553 82.0169 49.4241 82.0078 49.3921 82.0042C49.0712 81.9485 48.737 81.9293 48.4084 81.8966C48.741 81.8874 49.0739 81.8964 49.4055 81.9235C49.4553 81.9242 49.5039 81.9389 49.5458 81.9658C49.5764 82.0062 49.5962 82.0538 49.6034 82.1041C49.6212 82.1877 49.6334 82.2724 49.6399 82.3577C49.6543 82.5264 49.6543 82.6961 49.6399 82.8649C49.6355 82.9088 49.6285 82.9524 49.6188 82.9955C49.6098 83.056 49.5774 83.1105 49.5285 83.1473C49.5145 83.1574 49.4977 83.1628 49.4804 83.1626H49.442H49.3748H48.7523L47.7572 83.1492C47.0963 83.1242 46.4335 83.105 45.7726 83.057C45.6055 83.0416 45.4422 83.032 45.2731 83.007C45.2482 83.0056 45.2235 83.0004 45.2001 82.9917C45.1852 82.9891 45.1709 82.9839 45.1579 82.9763C45.1437 82.9647 45.133 82.9494 45.1271 82.9321C45.1102 82.8891 45.0999 82.8437 45.0964 82.7976C45.0875 82.7134 45.0842 82.6287 45.0868 82.544C45.0893 82.3765 45.1054 82.2095 45.1348 82.0445C45.1427 82.0026 45.1543 81.9615 45.1694 81.9216C45.1729 81.9106 45.1781 81.9003 45.1848 81.8908C45.1894 81.8846 45.1955 81.8796 45.2026 81.8763C45.2096 81.8729 45.2173 81.8713 45.2251 81.8716H45.2866L45.5402 81.9139Z" fill="black"/>
        <path d="M69.8518 82.515L69.604 82.5285H69.5425C69.529 82.5285 69.5252 82.54 69.5175 82.5592C69.5066 82.5981 69.4995 82.638 69.4964 82.6783C69.48 82.8411 69.4762 83.0049 69.4849 83.1682C69.4849 83.2508 69.4945 83.3315 69.506 83.4103C69.5114 83.4465 69.5211 83.482 69.5348 83.516H69.5521H69.6001C69.7615 83.5313 69.9286 83.5352 70.0919 83.5409C70.7528 83.5621 71.4137 83.5832 72.0746 83.5947L73.0678 83.6235H73.5615H73.7652C73.7767 83.6235 73.7844 83.6235 73.7652 83.6235C73.7765 83.6051 73.7849 83.585 73.7902 83.564C73.8007 83.5267 73.8091 83.4889 73.8151 83.4506C73.8357 83.2901 73.8427 83.1282 73.8363 82.9665C73.8334 82.8861 73.8257 82.8059 73.8132 82.7264C73.8085 82.6948 73.8001 82.6638 73.7882 82.6341C73.7593 82.6199 73.7281 82.6109 73.696 82.6073C73.3733 82.5515 73.0409 82.5323 72.7124 82.4997C73.0443 82.4908 73.3765 82.4991 73.7076 82.5246C73.7576 82.5257 73.8062 82.5411 73.8478 82.5688C73.8789 82.6092 73.8994 82.6568 73.9074 82.7072C73.9246 82.7917 73.9343 82.8762 73.9439 82.9607C73.9583 83.1295 73.9583 83.2992 73.9439 83.4679C73.9395 83.5119 73.9324 83.5555 73.9227 83.5986C73.9035 83.6428 73.9112 83.6908 73.8324 83.7503C73.8179 83.7607 73.8004 83.7661 73.7825 83.7657H73.746H73.6787H73.0544L72.0611 83.7523C71.3983 83.7273 70.7375 83.7081 70.0747 83.6581C69.9094 83.6447 69.7461 83.6332 69.5771 83.6101C69.5515 83.6085 69.5263 83.6034 69.5021 83.5947C69.4882 83.591 69.4747 83.5858 69.4618 83.5794C69.4482 83.5669 69.4371 83.5519 69.4292 83.5352C69.413 83.492 69.4033 83.4467 69.4003 83.4007C69.3917 83.3164 69.3879 83.2318 69.3888 83.1471C69.393 82.9796 69.4097 82.8126 69.4388 82.6476C69.446 82.6057 69.457 82.5646 69.4714 82.5246C69.476 82.5138 69.4818 82.5035 69.4887 82.4939C69.4933 82.4875 69.4993 82.4824 69.5064 82.4791C69.5135 82.4757 69.5212 82.4742 69.529 82.4747H69.5905L69.8518 82.515Z" fill="black"/>
    </g>
    <path d="M45.4299 105.842C49.122 102.15 49.122 96.164 45.4299 92.472C41.7379 88.78 35.752 88.78 32.06 92.472C28.368 96.164 28.368 102.15 32.06 105.842C35.752 109.534 41.7379 109.534 45.4299 105.842Z" fill="#263238"/>
    <path d="M43.6272 104.038C46.3229 101.342 46.3229 96.9716 43.6272 94.2759C40.9315 91.5802 36.561 91.5802 33.8653 94.2759C31.1697 96.9716 31.1696 101.342 33.8653 104.038C36.561 106.733 40.9315 106.733 43.6272 104.038Z" fill="#DBDBDB"/>
    <path d="M38.7456 105.523C42.2608 105.523 45.1104 102.674 45.1104 99.1585C45.1104 95.6433 42.2608 92.7937 38.7456 92.7937C35.2305 92.7937 32.3809 95.6433 32.3809 99.1585C32.3809 102.674 35.2305 105.523 38.7456 105.523Z" fill="#A6A6A6"/>
    <path d="M39.7455 97.5617H37.7456C38.4199 96.5858 36.0703 93.1853 36.0703 93.1853L37.125 92.8357C37.8243 94.0364 38.174 94.388 38.7503 94.388C39.3267 94.388 39.6744 94.0364 40.3756 92.8357L41.4265 93.1873C41.4265 93.1873 39.0712 96.5858 39.7455 97.5617Z" fill="#DBDBDB"/>
    <path d="M37.5779 97.6831L36.9612 99.5851C36.2427 98.6418 32.2812 99.8271 32.2812 99.8271V98.7186C33.6395 98.4247 34.0814 98.1999 34.26 97.6524C34.4387 97.1049 34.2101 96.6649 33.286 95.6256L33.945 94.7361C33.945 94.7361 36.4425 98.0232 37.5779 97.6831Z" fill="#DBDBDB"/>
    <path d="M37.0244 99.781L38.642 100.957C37.5219 101.341 37.4259 105.481 37.4259 105.481L36.3693 105.149C36.5076 103.765 36.4327 103.276 35.9658 102.937C35.499 102.599 35.0052 102.678 33.7373 103.237L33.0898 102.336C33.0898 102.336 36.9975 100.966 37.0244 99.781Z" fill="#DBDBDB"/>
    <path d="M38.8516 100.957L40.4692 99.781C40.4961 100.966 44.3979 102.336 44.3979 102.336L43.7543 103.239C42.4825 102.678 41.9926 102.599 41.5277 102.937C41.0628 103.276 40.986 103.765 41.1243 105.149L40.0677 105.481C40.0677 105.481 39.9658 101.349 38.8516 100.957Z" fill="#DBDBDB"/>
    <path d="M40.5288 99.5851L39.9102 97.6831C41.0456 98.0232 43.5603 94.7361 43.5603 94.7361L44.2212 95.6275C43.2952 96.663 43.0685 97.1049 43.2453 97.6524C43.422 98.1999 43.8677 98.4209 45.226 98.7206L45.2145 99.8271C45.2145 99.8271 41.2473 98.6418 40.5288 99.5851Z" fill="#DBDBDB"/>
    <path d="M38.7466 100.961C39.7673 100.961 40.5947 100.133 40.5947 99.1126C40.5947 98.0919 39.7673 97.2644 38.7466 97.2644C37.7259 97.2644 36.8984 98.0919 36.8984 99.1126C36.8984 100.133 37.7259 100.961 38.7466 100.961Z" fill="#DBDBDB"/>
    <path d="M108.2 107.469C113.108 105.693 115.648 100.275 113.873 95.3675C112.097 90.4594 106.68 87.9198 101.772 89.6951C96.8635 91.4703 94.3239 96.8882 96.0991 101.796C97.8744 106.704 103.292 109.244 108.2 107.469Z" fill="#263238"/>
    <path d="M111.575 100.924C112.548 97.2382 110.349 93.4613 106.663 92.4881C102.977 91.5149 99.2001 93.714 98.2269 97.4C97.2538 101.086 99.4529 104.863 103.139 105.836C106.825 106.809 110.602 104.61 111.575 100.924Z" fill="#DBDBDB"/>
    <path d="M104.898 105.523C108.413 105.523 111.263 102.674 111.263 99.1585C111.263 95.6433 108.413 92.7937 104.898 92.7937C101.383 92.7937 98.5332 95.6433 98.5332 99.1585C98.5332 102.674 101.383 105.523 104.898 105.523Z" fill="#A6A6A6"/>
    <path d="M105.902 97.5618H103.898C104.574 96.5859 102.223 93.1854 102.223 93.1854L103.274 92.8339C103.973 94.0346 104.322 94.3862 104.899 94.3862C105.475 94.3862 105.823 94.0346 106.526 92.8339L107.575 93.1854C107.575 93.1854 105.224 96.5859 105.902 97.5618Z" fill="#DBDBDB"/>
    <path d="M103.73 97.6831L103.113 99.5851C102.395 98.6418 98.4334 99.8271 98.4334 99.8271L98.4238 98.7186C99.7821 98.4247 100.224 98.1999 100.403 97.6524C100.581 97.1049 100.353 96.6649 99.4286 95.6256L100.088 94.7361C100.088 94.7361 102.595 98.0232 103.73 97.6831Z" fill="#DBDBDB"/>
    <path d="M103.177 99.781L104.794 100.957C103.676 101.341 103.578 105.481 103.578 105.481L102.522 105.149C102.662 103.765 102.585 103.276 102.12 102.937C101.655 102.599 101.16 102.678 99.8916 103.237L99.248 102.336C99.248 102.336 103.15 100.966 103.177 99.781Z" fill="#DBDBDB"/>
    <path d="M105.004 100.957L106.622 99.781C106.648 100.966 110.548 102.336 110.548 102.336L109.905 103.239C108.633 102.678 108.143 102.599 107.678 102.937C107.213 103.276 107.136 103.765 107.275 105.149L106.218 105.481C106.218 105.481 106.122 101.349 105.004 100.957Z" fill="#DBDBDB"/>
    <path d="M106.683 99.5851L106.064 97.6831C107.2 98.0232 109.715 94.7361 109.715 94.7361L110.374 95.6275C109.448 96.663 109.221 97.1049 109.4 97.6524C109.578 98.1999 110.02 98.4209 111.378 98.7206L111.367 99.8271C111.367 99.8271 107.402 98.6418 106.683 99.5851Z" fill="#DBDBDB"/>
    <path d="M104.899 100.961C105.92 100.961 106.747 100.133 106.747 99.1126C106.747 98.0919 105.92 97.2644 104.899 97.2644C103.878 97.2644 103.051 98.0919 103.051 99.1126C103.051 100.133 103.878 100.961 104.899 100.961Z" fill="#DBDBDB"/>
    <path d="M86.6978 77.4491C86.354 77.7949 86.3847 80.8764 86.6344 81.1262C86.8842 81.3759 90.3115 81.6026 90.5863 79.6891C90.861 77.7757 87.2358 76.9112 86.6978 77.4491Z" fill="#1E66CA"/>
    <path d="M99.2043 79.2922H96.4167C89.1624 74.5066 79.207 69.771 79.207 69.771L80.8592 69.3733C86.8859 72.2896 98.5069 78.9618 98.8124 79.1712C98.9378 79.2269 99.0693 79.2676 99.2043 79.2922Z" fill="#455A64"/>
    <g opacity="0.5">
        <path d="M27.5215 92.982C28.1028 92.0218 28.8139 91.1464 29.6348 90.3808C30.4555 89.6076 31.3709 88.9414 32.3589 88.3981C34.3514 87.3157 36.589 86.7645 38.8563 86.7978L39.7016 86.8362L40.1243 86.8574C40.2645 86.8727 40.4047 86.8958 40.545 86.915L41.3826 87.0341C41.6592 87.0917 41.9321 87.1647 42.2068 87.2262C43.3058 87.4979 44.3531 87.9469 45.3075 88.5557C46.2557 89.1683 47.1022 89.9254 47.8165 90.7996C48.5123 91.6821 49.107 92.6396 49.5898 93.6544C49.0713 92.663 48.4486 91.7298 47.732 90.8707C47.0108 90.0214 46.1617 89.2897 45.2153 88.7017C43.321 87.5202 41.0714 87.0399 38.8563 87.0187C37.7438 87.0012 36.6333 87.1206 35.55 87.3742C34.4672 87.6318 33.4215 88.0256 32.4377 88.5461C31.4506 89.0664 30.5328 89.7086 29.7058 90.4576C28.87 91.1995 28.1356 92.0482 27.5215 92.982Z" fill="white"/>
        <path d="M93.7578 92.9818C94.3391 92.0216 95.0503 91.1462 95.8711 90.3806C96.6942 89.6069 97.6122 88.9407 98.603 88.3979C100.597 87.3148 102.836 86.7637 105.104 86.7976L105.949 86.836L106.372 86.8572C106.512 86.8725 106.653 86.8956 106.791 86.9148L107.63 87.0339C107.905 87.0916 108.18 87.1646 108.455 87.226C109.554 87.4977 110.601 87.9467 111.555 88.5555C112.504 89.1681 113.35 89.9252 114.064 90.7994C114.76 91.6819 115.355 92.6394 115.838 93.6542C115.288 92.6783 114.721 91.7081 113.98 90.8705C113.258 90.0221 112.409 89.2905 111.463 88.7015C109.569 87.52 107.319 87.0397 105.102 87.0186C103.99 87.0012 102.881 87.1205 101.798 87.374C99.6215 87.894 97.6114 88.9545 95.9537 90.4574C95.1133 91.198 94.3749 92.0469 93.7578 92.9818Z" fill="white"/>
        <path d="M28.8848 77.292C30.3583 76.1393 31.8529 75.0116 33.3572 73.8993C34.8615 72.7869 36.383 71.6938 37.9488 70.6583C38.1409 70.5334 38.3445 70.4066 38.5501 70.2894C38.6519 70.2279 38.7556 70.1703 38.8652 70.1165C38.9754 70.0627 39.0906 70.0196 39.209 69.9878C39.6624 69.8552 40.1158 69.74 40.5692 69.6266C41.4798 69.4018 42.3905 69.1867 43.3107 69.008C44.2342 68.8308 45.1715 68.7343 46.1117 68.7198C47.0493 68.7006 47.9849 68.7025 48.9205 68.7467C47.9849 68.7467 47.0493 68.7736 46.1175 68.8313C45.1858 68.866 44.2589 68.9817 43.3472 69.1771C42.4366 69.3826 41.524 69.592 40.6211 69.8245C40.1677 69.9417 39.7143 70.0589 39.2763 70.1934C39.1687 70.2222 39.0644 70.2621 38.9651 70.3125C38.8652 70.3643 38.7633 70.4201 38.6654 70.4796C38.4732 70.5968 38.2696 70.7217 38.0736 70.8485C36.5079 71.8628 34.9998 72.9617 33.4629 74.0395L28.8848 77.292Z" fill="white"/>
    </g>
    <path opacity="0.1" d="M102.221 89.6738C94.9786 91.3298 94.8729 99.5331 94.8729 101.037C94.8729 101.037 49.3608 100 49.1745 99.9615C49.0227 99.9289 49.0688 92.7476 43.6973 90.01C46.1102 91.203 49.2014 94.0924 50.3713 98.3113C50.4981 98.7608 57.1261 99.464 68.4552 99.8271C79.7842 100.19 89.632 99.9615 91.509 99.6983C93.386 99.4351 95.5626 89.645 102.221 89.6738Z" fill="black"/>
    <path opacity="0.1" d="M125.199 94.6591C125.099 94.9472 122.971 97.5408 122.961 97.61C122.952 97.6791 122.886 98.3976 122.848 98.4745C122.809 98.5513 120.708 100.396 120.408 100.461C120.108 100.526 118.883 100.561 118.71 100.611C118.537 100.661 116.404 102.061 116.231 102.136C116.058 102.211 115.031 102.136 114.731 102.136C114.641 102.136 114.923 100.328 114.869 98.6781C114.787 95.8118 113.037 92.2038 109.598 90.4421C111.463 90.8398 114.575 93.3873 115.832 96.0135C117.088 98.6397 116.765 98.8337 117.059 99.1507C117.353 99.4677 118.327 98.828 118.777 98.7146C119.226 98.6013 120.698 98.5648 121.255 98.4533C121.812 98.3419 121.908 97.3275 122.295 97.1085C122.681 96.8895 124.642 95.3219 125.199 94.6591Z" fill="black"/>
    <path d="M77.4662 50.7837C77.228 48.3861 75.5758 46 72.6633 46C69.7508 46 68.1102 48.3861 67.8719 50.7837C67.505 54.4838 70.0025 57.8362 72.6633 60.8947C75.326 57.8362 77.8235 54.4838 77.4662 50.7837ZM72.6633 53.4522C72.1439 53.4518 71.6362 53.2974 71.2046 53.0085C70.7729 52.7196 70.4366 52.3092 70.2382 51.8292C70.0397 51.3491 69.9881 50.8211 70.0898 50.3117C70.1915 49.8023 70.442 49.3346 70.8096 48.9676C71.1771 48.6005 71.6452 48.3508 72.1548 48.2498C72.6643 48.1488 73.1923 48.2012 73.672 48.4004C74.1517 48.5995 74.5616 48.9364 74.8499 49.3685C75.1382 49.8006 75.2918 50.3084 75.2914 50.8279C75.2917 51.1729 75.2238 51.5146 75.0918 51.8333C74.9598 52.1521 74.7661 52.4417 74.522 52.6854C74.2779 52.9292 73.988 53.1224 73.669 53.254C73.3501 53.3856 73.0083 53.4529 72.6633 53.4522Z" fill="#1E66CA"/>
    <path d="M84.111 114.845C84.4953 114.966 95.1711 114.828 95.5745 114.563C95.7302 114.465 95.7993 112.907 95.832 111.022V110.963C95.832 110.579 95.8435 110.175 95.8454 109.77C95.8454 109.714 95.8454 109.658 95.8454 109.603L95.3325 104.06L88.1839 104.131L88.8889 109.622L88.8985 109.839L88.9408 110.976V111.093C88.9408 111.093 84.8756 112.974 84.4626 113.312C84.0495 113.65 83.7364 114.736 84.111 114.845Z" fill="#DD6A57"/>
    <path d="M84.1104 114.846C84.4947 114.967 95.1705 114.829 95.574 114.563C95.7296 114.465 95.7987 112.907 95.8314 111.023V110.963C95.8314 110.579 95.8429 110.176 95.8448 109.77C95.8448 109.714 95.8448 109.659 95.8448 109.603L88.8826 109.622L88.8922 109.839L88.9344 110.977V111.094C88.9344 111.094 84.8693 112.975 84.4562 113.313C84.0432 113.651 83.7358 114.736 84.1104 114.846Z" fill="#EBEBEB"/>
    <path d="M84.1105 114.844C84.3026 114.907 87.2055 114.899 90.043 114.844C90.6194 114.832 91.1803 114.821 91.7221 114.805C93.7451 114.75 95.4184 114.667 95.5644 114.565C95.7104 114.463 95.7892 112.953 95.8199 111.107C95.8199 111.08 95.8199 111.055 95.8199 111.028C95.8199 111.001 95.8199 110.988 95.8199 110.969L88.9326 110.98V111.099C88.9326 111.099 84.8655 112.98 84.4544 113.316C84.0433 113.653 83.7359 114.725 84.1105 114.844Z" fill="#1E66CA"/>
    <path d="M84.2244 114.429C86.0264 114.361 93.2942 114.26 95.0789 114.329C95.0943 114.329 95.0943 114.338 95.0789 114.34C93.2961 114.446 86.0264 114.49 84.2263 114.459C84.1879 114.457 84.1879 114.431 84.2244 114.429Z" fill="#263238"/>
    <path d="M88.1671 111.005C88.874 110.865 89.7424 110.961 90.2803 111.461C90.3015 111.48 90.2803 111.509 90.2515 111.503C89.5714 111.293 88.8706 111.156 88.1613 111.096C88.151 111.093 88.1419 111.087 88.1357 111.078C88.1294 111.069 88.1264 111.059 88.127 111.048C88.1277 111.038 88.1321 111.027 88.1394 111.02C88.1467 111.012 88.1565 111.007 88.1671 111.005Z" fill="#263238"/>
    <path d="M87.662 111.32C88.369 111.18 89.2373 111.276 89.7849 111.774C89.806 111.795 89.7849 111.824 89.756 111.816C89.0758 111.606 88.3751 111.471 87.6658 111.411C87.6553 111.409 87.6457 111.404 87.6386 111.396C87.6316 111.388 87.6274 111.378 87.627 111.367C87.6265 111.356 87.6298 111.346 87.6362 111.338C87.6425 111.329 87.6517 111.323 87.662 111.32Z" fill="#263238"/>
    <path d="M87.1535 111.635C87.8605 111.493 88.7288 111.591 89.2783 112.089C89.2994 112.108 89.2783 112.139 89.2475 112.131C88.568 111.921 87.8679 111.785 87.1592 111.725C87.1486 111.724 87.1389 111.719 87.1316 111.711C87.1243 111.703 87.1199 111.693 87.1192 111.683C87.1186 111.672 87.1216 111.661 87.1278 111.653C87.1341 111.644 87.1431 111.638 87.1535 111.635Z" fill="#263238"/>
    <path d="M90.043 114.842C90.6193 114.831 91.1803 114.819 91.7221 114.804C93.745 114.748 95.4184 114.666 95.5644 114.564C95.7104 114.462 95.7891 112.952 95.8199 111.106C95.8199 111.079 95.8199 111.054 95.8199 111.027C95.8199 111 95.8199 110.986 95.8199 110.967C94.8804 111.624 91.5549 113.837 90.043 114.842Z" fill="#263238"/>
    <path d="M88.4657 111H96.1619C96.1619 111 94.6115 93.0278 94.673 92.7127C94.7498 92.3112 95.2032 90.4919 95.8084 88.1154L96.4135 85.7466C96.9899 83.5123 97.62 81.0686 98.1714 78.9419C98.9994 75.7547 99.6449 73.2803 99.6449 73.2803H93.113C93.113 73.2803 92.3445 75.6894 91.3955 78.8247C89.8336 83.9196 87.7453 90.928 87.5416 92.6378C87.2189 95.3889 88.4657 111 88.4657 111Z" fill="#455A64"/>
    <path d="M88.7991 109.688C89.9749 109.663 89.6368 109.653 90.8125 109.642C91.3889 109.642 95.1678 109.603 95.7057 109.692C95.7172 109.692 95.7172 109.715 95.7057 109.717C95.1678 109.805 91.3889 109.772 90.8125 109.766C89.6368 109.755 89.9749 109.745 88.7991 109.722C88.7857 109.72 88.7857 109.688 88.7991 109.688Z" fill="#263238"/>
    <path d="M93.2176 91.6151C93.4693 90.5027 93.8458 89.4115 94.1782 88.3203C94.8455 86.1007 95.5166 83.8831 96.1916 81.6673C96.5284 80.5595 96.8665 79.4516 97.2059 78.3438C97.3789 77.7847 97.5498 77.2256 97.7266 76.6685C97.9033 76.1114 98.0916 75.5811 98.2472 75.0298C98.3087 74.805 98.3433 74.9279 98.2626 75.2219C98.1012 75.7982 97.9398 76.3746 97.7727 76.9509C97.4422 78.0844 97.1086 79.2179 96.7718 80.3514C96.1058 82.6055 95.4334 84.8584 94.7546 87.11L93.7344 90.495C93.5637 91.0326 93.4251 91.5798 93.3195 92.1338C93.228 92.7131 93.2054 93.3012 93.2522 93.8859C93.3252 95.0635 93.4616 96.2393 93.5711 97.415C93.6806 98.5908 93.7882 99.7684 93.8977 100.946C94.1129 103.287 94.3274 105.63 94.5413 107.974C94.5682 108.27 94.5951 108.567 94.6182 108.865C94.6182 108.963 94.4741 108.955 94.4645 108.865C94.2109 106.548 94.0168 104.224 93.7978 101.905C93.5788 99.5859 93.3656 97.294 93.1504 94.979C93.0966 94.4027 93.0351 93.8263 93.0332 93.2365C93.0333 92.6908 93.0952 92.1469 93.2176 91.6151Z" fill="#263238"/>
    <path d="M93.8633 73.2803C94.3167 76.7845 95.1793 83.351 95.8094 88.1154C97.281 82.3423 99.6517 73.2803 99.6517 73.2803H93.8633Z" fill="#263238"/>
    <path d="M92.2564 114.948C92.6291 115.071 103.315 114.971 103.72 114.708C103.876 114.612 103.95 113.054 103.989 111.169V111.11C103.989 110.725 104.004 110.322 104.006 109.917C104.006 109.861 104.006 109.805 104.006 109.749C104.031 107.029 103.835 104.205 103.835 104.205L96.8499 104.251L97.0593 109.742V109.959L97.0996 111.096V111.211C97.0996 111.211 93.0268 113.081 92.6118 113.415C92.1968 113.749 91.8875 114.827 92.2564 114.948Z" fill="#DD6A57"/>
    <path d="M92.2564 114.948C92.6291 115.071 103.315 114.971 103.72 114.708C103.876 114.612 103.95 113.054 103.989 111.169V111.109C103.989 110.725 104.004 110.322 104.006 109.916C104.006 109.861 104.006 109.805 104.006 109.749L97.0593 109.741V109.959L97.0996 111.096V111.211C97.0996 111.211 93.0268 113.08 92.6118 113.415C92.1968 113.749 91.8875 114.827 92.2564 114.948Z" fill="#EBEBEB"/>
    <path d="M92.2573 114.947C92.63 115.07 103.315 114.97 103.721 114.707C103.876 114.611 103.951 113.053 103.99 111.168V111.109L97.0967 111.097V111.213C97.0967 111.213 93.0238 113.082 92.6089 113.416C92.1939 113.751 91.8884 114.826 92.2573 114.947Z" fill="#1E66CA"/>
    <path d="M92.3804 114.532C94.1805 114.471 101.45 114.396 103.235 114.471C103.248 114.471 103.248 114.482 103.235 114.482C101.45 114.582 94.1805 114.6 92.3804 114.561C92.342 114.561 92.342 114.544 92.3804 114.532Z" fill="#263238"/>
    <path d="M96.3343 111.124C97.0432 110.984 97.9096 111.086 98.4475 111.586C98.4687 111.605 98.4475 111.634 98.4168 111.628C97.7377 111.415 97.0375 111.276 96.3285 111.213C96.3168 111.212 96.3059 111.207 96.2981 111.198C96.2904 111.189 96.2864 111.178 96.2872 111.166C96.288 111.154 96.2934 111.143 96.3022 111.135C96.311 111.128 96.3226 111.124 96.3343 111.124Z" fill="#263238"/>
    <path d="M95.8254 111.438C96.5324 111.298 97.4008 111.4 97.9387 111.899C97.9598 111.918 97.9387 111.947 97.9099 111.941C97.2307 111.728 96.5306 111.589 95.8216 111.526C95.8099 111.526 95.7989 111.521 95.7909 111.512C95.783 111.503 95.7788 111.492 95.7793 111.48C95.7798 111.469 95.785 111.457 95.7936 111.45C95.8023 111.442 95.8137 111.437 95.8254 111.438Z" fill="#263238"/>
    <path d="M95.3181 111.749C96.0251 111.611 96.8934 111.713 97.4314 112.212C97.4525 112.232 97.4314 112.26 97.4025 112.255C96.729 112.043 96.0347 111.904 95.3315 111.84C95.3204 111.84 95.3097 111.836 95.3013 111.829C95.2928 111.821 95.2873 111.811 95.2857 111.8C95.284 111.789 95.2864 111.778 95.2924 111.769C95.2983 111.759 95.3075 111.752 95.3181 111.749Z" fill="#263238"/>
    <path d="M93.3359 73.2797C93.3359 73.2797 93.4858 76.4016 94.2005 78.8722C94.2581 79.0758 94.3196 79.2775 94.3926 79.4696C95.0465 79.7326 95.6754 80.0541 96.2715 80.4302C96.2715 80.4302 96.3464 82.9412 96.4213 85.7403C96.5058 88.8718 96.5923 92.3625 96.575 93.1021C96.5097 95.8724 96.9208 111.107 96.9208 111.107L104.605 111.138C104.605 111.138 103.215 94.1261 103.224 93.1118C103.238 91.4807 102.851 84.2744 102.552 79.0124C102.36 75.7714 102.219 73.2739 102.219 73.2739L93.3359 73.2797Z" fill="#455A64"/>
    <path d="M97.1757 109.741C98.3514 109.72 98.0133 109.711 99.189 109.703C99.7654 109.703 103.544 109.684 104.082 109.776C104.085 109.776 104.088 109.777 104.09 109.779C104.093 109.781 104.094 109.784 104.094 109.787C104.094 109.79 104.093 109.793 104.09 109.796C104.088 109.798 104.085 109.799 104.082 109.799C103.544 109.885 99.7635 109.837 99.189 109.828C98.0133 109.812 98.3514 109.805 97.1757 109.774C97.1723 109.773 97.1693 109.771 97.1673 109.768C97.1652 109.765 97.1641 109.761 97.1641 109.758C97.1641 109.754 97.1652 109.75 97.1673 109.748C97.1693 109.745 97.1723 109.742 97.1757 109.741Z" fill="#263238"/>
    <path d="M101.575 74.3923C101.717 78.6841 101.867 82.976 102.059 87.264C102.251 91.552 102.511 95.8727 102.872 100.166C103.064 102.566 103.256 105.941 103.521 108.335C103.521 108.351 103.498 108.356 103.496 108.335C102.935 104.078 102.624 98.812 102.344 94.5279C102.063 90.2437 101.883 85.9518 101.737 81.6561C101.654 79.2278 101.591 76.8014 101.518 74.373C101.521 74.3577 101.573 74.3615 101.575 74.3923Z" fill="#263238"/>
    <path d="M94.0665 79.2854C94.8321 79.6045 95.5681 79.9902 96.2662 80.4381C96.2723 80.4411 96.277 80.4465 96.2791 80.453C96.2813 80.4595 96.2808 80.4665 96.2777 80.4727C96.2747 80.4788 96.2693 80.4834 96.2628 80.4856C96.2564 80.4877 96.2493 80.4872 96.2432 80.4842C95.5016 80.123 94.7427 79.7753 94.0223 79.3757C94.0103 79.3698 94.0012 79.3594 93.9969 79.3468C93.9925 79.3342 93.9934 79.3204 93.9993 79.3084C94.0051 79.2965 94.0155 79.2873 94.0281 79.283C94.0407 79.2787 94.0545 79.2795 94.0665 79.2854Z" fill="#263238"/>
    <path d="M93.6029 75.8329C93.6644 76.1633 93.7432 76.4899 93.8143 76.8165C93.8853 77.1431 93.9315 77.4389 94.0064 77.7425C94.0741 78.0342 94.2234 78.3007 94.4367 78.5109C94.5578 78.6224 94.6903 78.7223 94.8209 78.8241L95.038 78.9893C95.0284 78.9451 95.0207 78.9009 95.0131 78.8567L94.9497 78.4821C94.9016 78.2036 94.8575 77.925 94.8152 77.6464C94.7326 77.0989 94.6557 76.5456 94.5405 76.0038C94.5405 75.9993 94.5423 75.9949 94.5455 75.9916C94.5488 75.9884 94.5532 75.9865 94.5578 75.9865C94.5623 75.9865 94.5667 75.9884 94.57 75.9916C94.5732 75.9949 94.575 75.9993 94.575 76.0038C94.7114 76.5398 94.8613 77.072 94.9804 77.6138C95.038 77.8789 95.2455 79.1891 95.2551 79.2832C95.2647 79.3774 95.2724 79.4754 95.2763 79.5714C95.2897 79.6689 95.2897 79.7678 95.2763 79.8654C95.2763 79.8884 95.2417 79.8846 95.2321 79.8654C95.193 79.7737 95.1652 79.6775 95.1495 79.5791C95.1242 79.4861 95.1037 79.3918 95.088 79.2967L95.0707 79.191C94.942 79.1123 94.8229 79.0085 94.7018 78.9221C94.5808 78.8356 94.4386 78.73 94.3176 78.632C94.09 78.4398 93.926 78.1833 93.8469 77.8962C93.7668 77.5871 93.7153 77.2714 93.6932 76.9529C93.651 76.5821 93.6202 76.2075 93.5684 75.8348C93.5684 75.8194 93.6029 75.8098 93.6029 75.8329Z" fill="#263238"/>
    <path d="M88.3185 58.6391L89.2445 63.6591C89.2887 63.8089 89.208 63.9223 89.0658 63.9126L86.5165 63.7494C86.439 63.738 86.3662 63.7052 86.3064 63.6546C86.2467 63.604 86.2023 63.5377 86.1783 63.4631L85.2523 58.4412C85.2082 58.2933 85.2888 58.1799 85.431 58.1895L87.9804 58.3528C88.058 58.3637 88.131 58.3964 88.1908 58.4471C88.2507 58.4977 88.2949 58.5643 88.3185 58.6391Z" fill="#37474F"/>
    <path d="M88.0178 58.6057L88.9458 63.6333C88.9899 63.7813 88.9093 63.8946 88.7671 63.885L86.2158 63.7217C86.1384 63.7107 86.0658 63.678 86.0062 63.6273C85.9467 63.5766 85.9028 63.5101 85.8796 63.4355L84.9594 58.4097C84.9152 58.2599 84.9959 58.1485 85.138 58.1561L87.6893 58.3214C87.7652 58.3333 87.8361 58.3663 87.8942 58.4166C87.9523 58.4668 87.9951 58.5323 88.0178 58.6057Z" fill="#455A64"/>
    <path d="M87.3029 58.7863C87.3011 58.8293 87.312 58.8718 87.3343 58.9086C87.3567 58.9453 87.3894 58.9746 87.4284 58.9927C87.4674 59.0108 87.511 59.0169 87.5534 59.0103C87.5959 59.0036 87.6355 58.9845 87.6671 58.9553C87.6987 58.9261 87.7209 58.8882 87.7309 58.8464C87.741 58.8046 87.7383 58.7607 87.7234 58.7204C87.7085 58.6801 87.6819 58.6451 87.6471 58.6199C87.6122 58.5947 87.5707 58.5804 87.5277 58.5788C87.4993 58.5775 87.4709 58.5819 87.4442 58.5917C87.4175 58.6014 87.3929 58.6164 87.372 58.6357C87.3511 58.655 87.3343 58.6782 87.3224 58.7041C87.3105 58.7299 87.3039 58.7579 87.3029 58.7863Z" fill="#263238"/>
    <path d="M96.0582 66.6383C94.4444 69.6334 90.9806 73.4469 89.6396 73.3893C89.0018 73.3624 87.853 73.4527 87.0557 72.6727C85.317 70.9724 83.9588 67.8275 83.7455 66.0581C83.6687 65.4299 86.7752 64.2465 87.194 64.7787C88.1757 66.0255 89.2669 68.4288 89.4533 68.4288C90.1411 68.4135 92.9498 66.3271 94.9113 64.8574C97.2916 63.0573 96.7018 65.4453 96.0582 66.6383Z" fill="#DD6A57"/>
    <path d="M83.8477 62.8345C84.2319 61.5876 84.5316 61.3264 84.301 60.0987C84.1512 59.2938 84.6008 58.8519 85.1291 59.5224C85.9936 60.6175 85.8264 62.333 85.5978 62.9094L83.8477 62.8345Z" fill="#DD6A57"/>
    <path d="M83.8622 66.6097C83.8622 66.6097 83.3954 64.8153 83.6797 63.4456C83.8718 62.4984 84.5365 60.4831 87.2703 59.5533C87.9197 59.3324 88.9994 59.4784 88.0715 60.2238C87.4125 60.7521 86.8342 60.8885 86.5057 61.267C86.5057 61.267 87.8601 61.6147 88.0561 62.2736C88.2256 62.8498 88.354 63.4372 88.4403 64.0315C88.3349 64.0721 88.2272 64.1061 88.1176 64.1333C88.1176 64.1333 88.2828 64.7558 87.7814 65.5972L83.8622 66.6097Z" fill="#DD6A57"/>
    <path d="M84.0098 62.5714C84.4151 62.264 85.2835 61.63 86.173 61.3572C87.1624 61.0556 89.1508 60.7386 89.3659 61.4725C89.5235 62.0085 88.7762 62.1967 88.7762 62.1967C88.7762 62.1967 89.6253 62.239 89.6618 62.7558C89.6945 63.2265 89.1066 63.3321 89.1066 63.3321C89.1066 63.3321 89.6176 63.4474 89.5619 63.9085C89.4966 64.4618 88.438 64.1313 87.8867 64.6328C87.7637 64.748 84.0098 62.5714 84.0098 62.5714Z" fill="#DD6A57"/>
    <path d="M86.3202 62.4563C87.0875 62.1194 87.939 62.0236 88.762 62.1816C88.7831 62.1816 88.7889 62.2046 88.762 62.2046C87.9386 62.1924 87.1167 62.2802 86.3145 62.4659C86.3145 62.4659 86.3145 62.4582 86.3202 62.4563Z" fill="#263238"/>
    <path d="M86.6562 63.4414C87.4476 63.1791 88.295 63.1347 89.1095 63.3127C89.1306 63.3127 89.1364 63.3377 89.1095 63.3358C88.288 63.2813 87.4631 63.32 86.6504 63.451C86.6504 63.451 86.6504 63.4414 86.6562 63.4414Z" fill="#263238"/>
    <path d="M83.6445 67.3397C83.6445 67.3397 85.8615 72.3808 87.2736 73.0282C88.6856 73.6756 89.5559 73.6045 90.0977 73.545C90.3048 73.5063 90.5014 73.4237 90.674 73.3029C92.186 72.3423 94.9928 68.8113 96.1647 66.8017C97.0426 65.2936 97.0311 63.8816 95.8035 64.2697C95.3862 64.4204 94.9967 64.6392 94.6508 64.9171C92.3454 66.6461 89.6731 68.2753 89.554 68.2042C89.4349 68.1331 88.2745 66.0506 88.2745 66.0506L83.6445 67.3397Z" fill="#1E66CA"/>
    <path d="M89.3635 69.2607C89.3885 69.4875 89.3555 69.7169 89.2674 69.9274C89.252 69.8146 89.252 69.7002 89.2674 69.5873C89.2833 69.4744 89.3157 69.3643 89.3635 69.2607Z" fill="white"/>
    <path d="M86.4709 70.5078C86.4863 70.6206 86.4863 70.735 86.4709 70.8479C86.456 70.9606 86.4249 71.0706 86.3787 71.1745C86.3633 71.0616 86.3633 70.9472 86.3787 70.8344C86.3943 70.7218 86.4254 70.6119 86.4709 70.5078Z" fill="white"/>
    <path d="M91.5723 71.7236C91.5877 71.8365 91.5877 71.9509 91.5723 72.0637C91.5576 72.1764 91.5266 72.2865 91.4801 72.3903C91.4526 72.1635 91.4857 71.9334 91.5762 71.7236H91.5723Z" fill="white"/>
    <path d="M92.9729 66.771C92.9883 66.8838 92.9883 66.9982 92.9729 67.111C92.9582 67.2238 92.9271 67.3338 92.8807 67.4376C92.8653 67.3248 92.8653 67.2104 92.8807 67.0976C92.8956 66.9849 92.9267 66.8749 92.9729 66.771Z" fill="white"/>
    <path d="M93.4245 68.8014C93.1977 68.8265 92.9683 68.7934 92.7578 68.7054C92.8706 68.69 92.985 68.69 93.0979 68.7054C93.2108 68.7216 93.3208 68.7539 93.4245 68.8014Z" fill="white"/>
    <path d="M87.5182 69.3972C87.4053 69.4127 87.291 69.4127 87.1781 69.3972C87.0649 69.383 86.9542 69.3526 86.8496 69.3069C86.9623 69.2896 87.077 69.2896 87.1897 69.3069C87.3029 69.3212 87.4135 69.3516 87.5182 69.3972Z" fill="white"/>
    <path d="M90.528 71.157C90.4153 71.1743 90.3006 71.1743 90.1879 71.157C90.0752 71.1429 89.9652 71.1125 89.8613 71.0667C90.0879 71.0398 90.3177 71.0722 90.528 71.1608V71.157Z" fill="white"/>
    <path d="M84.815 67.6492C84.7023 67.6656 84.5878 67.6656 84.475 67.6492C84.3617 67.6349 84.2511 67.6045 84.1465 67.5589C84.2593 67.5435 84.3737 67.5435 84.4865 67.5589C84.5998 67.5733 84.7104 67.6037 84.815 67.6492Z" fill="white"/>
    <path d="M87.7369 72.8093C87.5097 72.836 87.2794 72.8036 87.0684 72.7152C87.181 72.6978 87.2957 72.6978 87.4084 72.7152C87.5219 72.7307 87.6325 72.7624 87.7369 72.8093Z" fill="white"/>
    <path d="M96.4141 64.4349C96.5071 64.4761 96.6054 64.5045 96.7061 64.5194C96.6912 64.4876 96.6731 64.4574 96.6523 64.4291C96.573 64.4205 96.4929 64.4224 96.4141 64.4349Z" fill="white"/>
    <path d="M90.8027 68.0215C90.8924 68.0915 90.9719 68.1736 91.039 68.2655C91.1091 68.3553 91.1654 68.455 91.2062 68.5613C91.1156 68.4923 91.036 68.41 90.9699 68.3173C90.8991 68.2281 90.8427 68.1282 90.8027 68.0215Z" fill="white"/>
    <path d="M88.0312 70.8394C88.1215 70.9094 88.2016 70.9915 88.2695 71.0833C88.3389 71.1736 88.3952 71.2732 88.4366 71.3792C88.3455 71.3101 88.2653 71.2279 88.1984 71.1352C88.129 71.045 88.0727 70.9454 88.0312 70.8394Z" fill="white"/>
    <path d="M86.4492 67.1055C86.5394 67.1748 86.6196 67.2563 86.6874 67.3475C86.7569 67.4377 86.8132 67.5374 86.8546 67.6434C86.7635 67.5743 86.6832 67.4921 86.6164 67.3994C86.5474 67.3096 86.4911 67.2107 86.4492 67.1055Z" fill="white"/>
    <path d="M92.5547 70.4883C92.6443 70.5583 92.7239 70.6404 92.791 70.7323C92.861 70.8221 92.9173 70.9218 92.9581 71.0281C92.7797 70.8856 92.6408 70.6998 92.5547 70.4883Z" fill="white"/>
    <path d="M94.6445 65.7466C94.7352 65.8154 94.8154 65.8969 94.8828 65.9886C94.9522 66.0789 95.0085 66.1785 95.0499 66.2845C94.9597 66.2152 94.8796 66.1337 94.8117 66.0424C94.743 65.9517 94.6868 65.8522 94.6445 65.7466Z" fill="white"/>
    <path d="M94.7812 68.0655C94.9217 67.8853 95.1072 67.7455 95.3192 67.6602C95.2504 67.7508 95.1688 67.831 95.0771 67.8984C94.9864 67.967 94.8869 68.0232 94.7812 68.0655Z" fill="white"/>
    <path d="M84.9707 69.1765C85.0398 69.0854 85.122 69.0051 85.2147 68.9383C85.3049 68.8688 85.4045 68.8125 85.5105 68.7711C85.3689 68.9509 85.1828 69.0906 84.9707 69.1765Z" fill="white"/>
    <path d="M87.9883 68.2677C88.0571 68.1777 88.1387 68.0981 88.2303 68.0314C88.3202 67.9614 88.4199 67.905 88.5262 67.8643C88.4568 67.9538 88.3754 68.0334 88.2841 68.1006C88.1941 68.1703 88.0945 68.2266 87.9883 68.2677Z" fill="white"/>
    <path d="M91.3105 70.129C91.3794 70.039 91.4609 69.9594 91.5526 69.8927C91.6424 69.8227 91.7421 69.7664 91.8485 69.7256C91.7791 69.8152 91.6976 69.8947 91.6064 69.9619C91.5159 70.0309 91.4164 70.0872 91.3105 70.129Z" fill="white"/>
    <path d="M89.3105 72.9049C89.3806 72.8153 89.4627 72.7357 89.5545 72.6686C89.6438 72.5978 89.7436 72.5414 89.8504 72.5015C89.7808 72.5916 89.6987 72.6711 89.6064 72.7378C89.5166 72.8078 89.4169 72.8641 89.3105 72.9049Z" fill="white"/>
    <path opacity="0.1" d="M90.6816 73.3029C92.1936 72.3423 95.0004 68.8113 96.1723 66.8017C97.0503 65.2936 97.0387 63.8816 95.8111 64.2697C95.1387 65.455 92.1532 70.646 90.6816 73.3029Z" fill="black"/>
    <path d="M84.2105 68.2673C84.3796 68.1847 85.9722 67.664 86.3238 67.5584C86.6754 67.4527 88.0893 67.007 88.4582 66.9282C88.4607 66.9292 88.4628 66.9309 88.4643 66.9332C88.4659 66.9354 88.4667 66.938 88.4667 66.9407C88.4667 66.9434 88.4659 66.946 88.4643 66.9483C88.4628 66.9505 88.4607 66.9522 88.4582 66.9532C88.1124 67.0992 86.6831 67.5526 86.3296 67.6679C85.9761 67.7831 84.393 68.2634 84.2163 68.2922C84.2009 68.2942 84.199 68.273 84.2105 68.2673Z" fill="#263238"/>
    <path d="M91.873 77.097C92.0267 77.2891 102.866 77.9654 102.925 77.9001C103.089 77.7272 100.559 65.8179 98.2416 63.7123C97.744 63.2609 96.2263 63.6144 95.8075 63.9467C95.5443 64.1561 94.8623 65.5874 94.3839 66.7804C93.4311 69.1703 91.7366 76.928 91.873 77.097Z" fill="#263238"/>
    <path d="M96.0884 63.4873C95.6235 63.7563 95.1067 65.3566 96.0577 65.6909C97.0087 66.0252 98.0941 64.5882 98.2843 64.104C98.4745 63.6199 97.0893 62.9091 96.0884 63.4873Z" fill="#1E66CA"/>
    <path d="M96.151 65.4762C96.7485 65.6241 97.784 64.7192 98.1989 63.9834C98.2258 63.9316 98.1547 63.3956 98.0971 62.7404C98.0644 62.3428 98.0356 61.899 98.0395 61.4917L95.4824 62.0853C95.6228 62.5958 95.6996 63.1217 95.711 63.6511C95.7106 63.7067 95.7042 63.7621 95.6918 63.8163C95.6925 63.8259 95.6925 63.8355 95.6918 63.8451C95.6342 64.1621 95.5746 65.3321 96.151 65.4762Z" fill="#DD6A57"/>
    <path d="M97.9183 61.5203C97.8338 62.0294 97.4284 63.8449 95.9511 63.8641C95.863 63.8646 95.7751 63.8588 95.6879 63.8468C95.6866 63.8372 95.6866 63.8275 95.6879 63.818C95.6993 63.7636 95.7057 63.7083 95.7071 63.6527C95.6932 63.1234 95.6151 62.5976 95.4746 62.087L97.9183 61.5203Z" fill="#263238"/>
    <path d="M98.1697 58.3162C98.5059 59.1999 98.2024 61.8415 97.5934 62.4659C96.7193 63.3707 95.1996 63.5532 94.4081 62.4812C93.6397 61.4438 94.0969 58.0088 94.7789 57.4324C95.7894 56.5833 97.6741 57.0079 98.1697 58.3162Z" fill="#DD6A57"/>
    <path d="M95.7798 60.0771C95.7798 60.0771 95.7932 60.0771 95.7913 60.0944C95.7663 60.2712 95.7663 60.4787 95.9219 60.5555C95.9219 60.5555 95.9219 60.567 95.9219 60.5651C95.726 60.5171 95.7279 60.2424 95.7798 60.0771Z" fill="#263238"/>
    <path d="M95.9597 59.9088C96.2479 59.9203 96.2076 60.4966 95.9405 60.4851C95.6735 60.4736 95.7158 59.9011 95.9597 59.9088Z" fill="#263238"/>
    <path d="M94.7795 60.0127C94.7795 60.0127 94.766 60.0127 94.7641 60.0281C94.7641 60.2067 94.7199 60.4123 94.5547 60.4584V60.4699C94.7545 60.4546 94.8025 60.176 94.7795 60.0127Z" fill="#263238"/>
    <path d="M94.6347 59.8145C94.3485 59.7742 94.287 60.3486 94.5502 60.3909C94.8134 60.4331 94.8749 59.851 94.6347 59.8145Z" fill="#263238"/>
    <path d="M96.2067 59.6628C96.1298 59.6359 96.0626 59.6013 95.9896 59.5686C95.9081 59.5456 95.8365 59.4963 95.786 59.4284C95.7741 59.4043 95.7706 59.3769 95.7758 59.3505C95.781 59.3242 95.7947 59.3002 95.8148 59.2824C95.8615 59.2554 95.9145 59.2412 95.9685 59.2412C96.0224 59.2412 96.0754 59.2554 96.1222 59.2824C96.2264 59.3201 96.3128 59.3955 96.3642 59.4937C96.372 59.5162 96.3736 59.5403 96.3687 59.5636C96.3638 59.5869 96.3526 59.6084 96.3364 59.6257C96.3202 59.6431 96.2996 59.6558 96.2767 59.6623C96.2539 59.6688 96.2296 59.669 96.2067 59.6628Z" fill="#263238"/>
    <path d="M94.4254 59.6377C94.5035 59.6276 94.5811 59.6134 94.6579 59.5955C94.7424 59.5909 94.8232 59.5593 94.8884 59.5052C94.9049 59.4837 94.9139 59.4574 94.9139 59.4303C94.9139 59.4032 94.9049 59.3768 94.8884 59.3553C94.8504 59.3173 94.8029 59.2902 94.7509 59.2767C94.6989 59.2631 94.6442 59.2638 94.5925 59.2785C94.4824 59.2913 94.381 59.3448 94.3082 59.4283C94.2927 59.4486 94.2834 59.473 94.2816 59.4984C94.2798 59.5239 94.2854 59.5493 94.2979 59.5716C94.3104 59.5939 94.3291 59.612 94.3517 59.6238C94.3744 59.6355 94.4 59.6404 94.4254 59.6377Z" fill="#263238"/>
    <path d="M95.961 61.7583C95.9149 61.7967 95.8688 61.8505 95.8034 61.8524C95.7362 61.8461 95.6709 61.8265 95.6113 61.7948C95.6343 61.8316 95.6668 61.8615 95.7053 61.8815C95.7439 61.9014 95.787 61.9106 95.8303 61.9082C95.8674 61.9011 95.9015 61.8833 95.9285 61.857C95.9555 61.8307 95.9741 61.7971 95.9821 61.7602C95.9821 61.7564 95.9687 61.7525 95.961 61.7583Z" fill="#263238"/>
    <path d="M95.8112 61.2113C95.7608 61.2786 95.6971 61.3347 95.624 61.3764C95.551 61.418 95.4702 61.4442 95.3867 61.4534C95.314 61.463 95.2403 61.463 95.1677 61.4534H95.1254L95.087 61.4438C95.0775 61.4416 95.0691 61.4362 95.0631 61.4285C95.0572 61.4208 95.0541 61.4112 95.0543 61.4015C95.0534 61.3958 95.0534 61.39 95.0543 61.3842V61.3689C95.0543 61.2305 95.0889 61.023 95.0889 61.023C95.037 61.0442 94.7719 61.1422 94.7815 61.0711C94.841 60.4519 94.9633 59.8404 95.1465 59.246C95.1477 59.2426 95.1499 59.2397 95.1528 59.2376C95.1558 59.2355 95.1593 59.2344 95.1629 59.2344C95.1664 59.2344 95.1699 59.2355 95.1729 59.2376C95.1758 59.2397 95.178 59.2426 95.1792 59.246C95.1273 59.8223 94.9755 60.3775 94.9141 60.952C95.008 60.9145 95.1071 60.8918 95.208 60.8847C95.2272 60.8847 95.1465 61.2862 95.1484 61.3477C95.2603 61.3671 95.3749 61.3639 95.4854 61.3381C95.596 61.3124 95.7003 61.2647 95.792 61.1979C95.8093 61.1844 95.8228 61.1979 95.8112 61.2113Z" fill="#263238"/>
    <path d="M95.2715 61.4165C95.3477 61.5129 95.4477 61.5877 95.5616 61.6336C95.6241 61.6531 95.6911 61.6531 95.7537 61.6336C95.8939 61.5952 95.8959 61.4646 95.869 61.3531C95.8531 61.2944 95.8306 61.2377 95.8017 61.1841C95.6542 61.316 95.4685 61.3975 95.2715 61.4165Z" fill="#263238"/>
    <path d="M95.5605 61.634C95.6231 61.6535 95.6901 61.6535 95.7527 61.634C95.8929 61.5956 95.8948 61.4649 95.8679 61.3535C95.7925 61.3586 95.7211 61.3892 95.6653 61.4401C95.6094 61.491 95.5725 61.5594 95.5605 61.634Z" fill="#F392B9"/>
    <path d="M97.582 60.4045C97.582 60.4045 98.1315 59.5323 98.5253 59.7244C98.9192 59.9165 98.5253 61.1634 98.0892 61.3516C98.0343 61.3799 97.9743 61.3967 97.9128 61.4011C97.8512 61.4055 97.7894 61.3974 97.7311 61.3773C97.6728 61.3572 97.6191 61.3255 97.5733 61.2841C97.5276 61.2427 97.4907 61.1925 97.4648 61.1365L97.582 60.4045Z" fill="#DD6A57"/>
    <path d="M98.4063 60.0797C98.4063 60.0797 98.4063 60.0797 98.4063 60.0912C98.265 60.17 98.1419 60.2775 98.0449 60.4069C97.9479 60.5363 97.8793 60.6847 97.8434 60.8424C97.8598 60.8101 97.8831 60.7818 97.9115 60.7593C97.9399 60.7368 97.9729 60.7208 98.0081 60.7122C98.0433 60.7036 98.0799 60.7027 98.1155 60.7096C98.1511 60.7165 98.1847 60.731 98.2142 60.7521C98.2142 60.7521 98.2142 60.7713 98.2142 60.7694C98.158 60.7542 98.0985 60.7568 98.0438 60.7767C97.9891 60.7967 97.9419 60.833 97.9087 60.8808C97.8539 60.9614 97.8081 61.0477 97.7723 61.1383C97.7589 61.169 97.707 61.1556 97.7166 61.1229C97.6897 60.7175 97.9759 60.1393 98.4063 60.0797Z" fill="#263238"/>
    <path d="M94.4704 58.5852C95.333 59.1327 96.453 58.2182 96.453 58.2182C96.5319 58.4014 96.6684 58.554 96.8417 58.6528C97.015 58.7515 97.2157 58.7912 97.4136 58.7658C97.4136 58.7658 97.6288 60.1855 98.0053 60.1701C98.5817 60.1471 98.6854 58.1952 98.4914 57.8205C98.4153 57.7011 98.3152 57.5988 98.1974 57.5201C98.0797 57.4414 97.9469 57.388 97.8074 57.3633C97.7457 57.1338 97.5996 56.9362 97.3982 56.81C96.9967 56.5257 95.6692 56.9752 95.6692 56.9752C95.5854 56.7977 95.461 56.6424 95.3061 56.5218C95.2691 56.4917 95.2263 56.4693 95.1804 56.4561C95.1345 56.4429 95.0863 56.4392 95.0389 56.4451C94.9915 56.451 94.9458 56.4665 94.9046 56.4906C94.8633 56.5147 94.8274 56.5469 94.7989 56.5852C94.8745 56.6883 94.9257 56.8072 94.9488 56.933C95.0314 57.3479 94.6894 57.3595 94.6798 56.981C94.6712 56.8391 94.7134 56.6988 94.7989 56.5852C94.6222 56.3451 94.3436 56.274 94.1822 56.4123C93.871 56.664 93.7519 58.1299 94.4704 58.5852Z" fill="#263238"/>
    <path d="M99.2353 64.6754C102.482 68.0547 107.216 76.6115 107.8 77.8391C108.197 78.6729 103.842 80.8688 103.658 80.2617C103.421 79.4932 99.6233 69.9086 98.6205 66.2949C98.0634 64.3027 98.5648 63.9761 99.2353 64.6754Z" fill="#DD6A57"/>
    <path d="M103.451 79.6891C103.603 80.1041 104.12 81.8677 104.483 82.0867C104.846 82.3057 106.742 82.2596 107.699 82.2596C108.656 82.2596 108.852 81.9926 108.828 81.6621C108.805 81.3317 106.805 81.2779 106.805 81.2779C106.805 81.2779 109.486 82.0464 110.16 82.1732C110.834 82.3 112.388 82.69 112.613 82.1309C112.713 81.8792 112.288 81.6237 112.288 81.6237C112.288 81.6237 112.94 81.8158 113.043 81.4892C113.163 81.1204 112.644 80.9129 112.644 80.9129C112.644 80.9129 113.051 80.9936 113.061 80.6939C113.082 80.0215 110.533 79.691 110.533 79.691C110.533 79.691 112.484 80.642 112.546 80.0945C112.634 79.326 108.633 78.5038 108.216 78.1733C107.943 77.9438 107.717 77.6648 107.549 77.3511L103.451 79.6891Z" fill="#DD6A57"/>
    <path d="M108.816 81.8287C108.823 81.782 108.818 81.7343 108.802 81.6898C108.786 81.6453 108.76 81.6053 108.726 81.5732C108.656 81.51 108.577 81.4587 108.491 81.4214C108.314 81.3462 108.131 81.287 107.944 81.2447C107.559 81.1486 107.175 81.0814 106.791 80.9815C107.189 80.9756 107.586 81.0202 107.973 81.114C108.17 81.159 108.36 81.2315 108.537 81.3292C108.629 81.3798 108.709 81.4492 108.772 81.5328C108.804 81.5741 108.825 81.623 108.833 81.6749C108.841 81.7268 108.835 81.7798 108.816 81.8287Z" fill="#263238"/>
    <path d="M112.29 81.6157C112.013 81.5485 111.742 81.4697 111.471 81.3929C111.2 81.316 110.93 81.2296 110.659 81.1489L109.852 80.8953C109.583 80.8108 109.314 80.7281 109.041 80.6475C109.323 80.6771 109.603 80.7272 109.879 80.7973C110.155 80.8588 110.428 80.9395 110.699 81.0202C110.97 81.1009 111.239 81.1931 111.502 81.2949C111.765 81.3967 112.032 81.5005 112.29 81.6157Z" fill="#263238"/>
    <path d="M109.688 79.9771C109.946 79.9939 110.203 80.0299 110.456 80.0846C110.711 80.1353 110.964 80.1995 111.213 80.2768C111.462 80.3541 111.706 80.4458 111.945 80.5515C112.184 80.6536 112.416 80.7731 112.638 80.9088C112.392 80.8224 112.152 80.7282 111.906 80.6475C111.661 80.5668 111.418 80.4804 111.173 80.4055C110.927 80.3305 110.679 80.2556 110.431 80.1826C110.183 80.1096 109.931 80.0462 109.688 79.9771Z" fill="#263238"/>
    <path d="M110.082 79.3372C110.925 79.4125 111.737 79.6935 112.447 80.1556C112.049 80.0134 111.665 79.8655 111.271 79.7329C110.877 79.6004 110.484 79.4659 110.082 79.3372Z" fill="#263238"/>
    <path d="M98.6609 67.2318C99.4293 70.5438 103.112 79.604 103.112 79.604L106.42 78.0095L108.088 77.2045C108.088 77.2045 102.407 68.3288 100.086 65.4259C99.9058 65.203 99.7425 65.0109 99.5926 64.8496C98.1537 63.3126 98.0653 64.6766 98.6609 67.2318Z" fill="#1E66CA"/>
    <path d="M102.837 78.6191C104.783 77.4875 107 76.5961 107.375 76.4136C107.392 76.4136 107.404 76.4347 107.386 76.4424C107.002 76.6038 104.585 77.8967 102.849 78.6498C102.824 78.6575 102.824 78.6191 102.837 78.6191Z" fill="#263238"/>
    <path d="M102.136 69.1782C102.152 69.291 102.152 69.4054 102.136 69.5183C102.122 69.6309 102.092 69.741 102.046 69.8449C102.029 69.7328 102.029 69.6188 102.046 69.5067C102.06 69.3935 102.091 69.2829 102.136 69.1782Z" fill="white"/>
    <path d="M100.607 72.0869C100.623 72.1997 100.623 72.3141 100.607 72.427C100.593 72.5396 100.562 72.6496 100.517 72.7536C100.5 72.6409 100.5 72.5262 100.517 72.4135C100.531 72.3008 100.561 72.1908 100.607 72.0869Z" fill="white"/>
    <path d="M104.461 76.6807C104.477 76.7928 104.477 76.9066 104.461 77.0188C104.446 77.1321 104.415 77.2427 104.369 77.3473C104.354 77.2345 104.354 77.1201 104.369 77.0073C104.384 76.8945 104.415 76.7845 104.461 76.6807Z" fill="white"/>
    <path d="M104.345 71.6431C104.362 71.7551 104.362 71.8691 104.345 71.9812C104.33 72.0944 104.3 72.2051 104.254 72.3097C104.238 72.1969 104.238 72.0824 104.254 71.9697C104.269 71.857 104.299 71.747 104.345 71.6431Z" fill="white"/>
    <path d="M105.513 73.7656C105.529 73.8784 105.529 73.9928 105.513 74.1057C105.499 74.2189 105.469 74.3295 105.423 74.4342C105.406 74.3215 105.406 74.2068 105.423 74.0941C105.437 73.9809 105.468 73.8703 105.513 73.7656Z" fill="white"/>
    <path d="M100.327 66.0061C100.214 66.0225 100.099 66.0225 99.9867 66.0061C99.8741 65.9921 99.764 65.9617 99.6602 65.9158C99.7723 65.9005 99.8861 65.9005 99.9983 65.9158C100.112 65.9302 100.222 65.9606 100.327 66.0061Z" fill="white"/>
    <path d="M100.294 69.3073C100.067 69.3323 99.8374 69.2993 99.627 69.2112C99.7398 69.1959 99.8542 69.1959 99.967 69.2112C100.08 69.2274 100.19 69.2598 100.294 69.3073Z" fill="white"/>
    <path d="M103.292 71.0762C103.179 71.0916 103.066 71.0916 102.954 71.0762C102.84 71.0612 102.73 71.0302 102.625 70.984C102.738 70.9676 102.852 70.9676 102.965 70.984C103.078 70.9986 103.188 71.0297 103.292 71.0762Z" fill="white"/>
    <path d="M106.28 77.7595C106.168 77.7749 106.054 77.7749 105.942 77.7595C105.829 77.7444 105.718 77.714 105.613 77.6693C105.726 77.6519 105.841 77.6519 105.953 77.6693C106.066 77.6833 106.176 77.7137 106.28 77.7595Z" fill="white"/>
    <path d="M103.159 77.8714C103.047 77.8867 102.933 77.8867 102.821 77.8714C102.707 77.8571 102.597 77.8267 102.492 77.7811C102.605 77.7637 102.72 77.7637 102.832 77.7811C102.945 77.7951 103.055 77.8255 103.159 77.8714Z" fill="white"/>
    <path d="M102.247 74.5671C102.134 74.5825 102.019 74.5825 101.907 74.5671C101.794 74.5522 101.684 74.5211 101.58 74.4749C101.693 74.4595 101.807 74.4595 101.92 74.4749C102.033 74.4905 102.143 74.5216 102.247 74.5671Z" fill="white"/>
    <path d="M105.213 75.468C105.303 75.538 105.382 75.6201 105.449 75.712C105.52 75.8013 105.576 75.9011 105.616 76.0079C105.526 75.9383 105.447 75.8561 105.38 75.7639C105.31 75.6741 105.254 75.5744 105.213 75.468Z" fill="white"/>
    <path d="M100.803 70.7593C100.892 70.8287 100.972 70.9101 101.039 71.0013C101.108 71.0916 101.165 71.1912 101.206 71.2972C101.116 71.2283 101.037 71.1468 100.97 71.0551C100.899 70.9656 100.843 70.8658 100.803 70.7593Z" fill="white"/>
    <path d="M99.2246 67.0225C99.3147 67.092 99.3943 67.1742 99.4609 67.2664C99.5309 67.3563 99.5873 67.456 99.628 67.5623C99.538 67.4928 99.4584 67.4106 99.3917 67.3183C99.3209 67.229 99.2645 67.1292 99.2246 67.0225Z" fill="white"/>
    <path d="M103.785 73.228C103.876 73.2968 103.956 73.3784 104.023 73.4701C104.092 73.5608 104.148 73.6603 104.191 73.766C104.1 73.6971 104.02 73.6156 103.952 73.5239C103.883 73.4334 103.827 73.3339 103.785 73.228Z" fill="white"/>
    <path d="M102.428 76.1403C102.518 76.2103 102.598 76.2924 102.666 76.3842C102.735 76.4745 102.792 76.5741 102.833 76.6801C102.653 76.5385 102.514 76.3524 102.428 76.1403Z" fill="white"/>
    <path d="M106.523 76.4576C106.665 76.2778 106.851 76.1381 107.063 76.0522C106.922 76.232 106.736 76.3717 106.523 76.4576Z" fill="white"/>
    <path d="M103.785 78.8512C103.855 78.7611 103.937 78.6815 104.029 78.6149C104.118 78.5441 104.218 78.4877 104.325 78.4478C104.255 78.5378 104.173 78.6174 104.081 78.6841C103.991 78.7541 103.891 78.8104 103.785 78.8512Z" fill="white"/>
    <path d="M103.51 75.3717C103.651 75.1919 103.837 75.0522 104.05 74.9663C103.98 75.0565 103.897 75.1367 103.806 75.2045C103.715 75.274 103.616 75.3302 103.51 75.3717Z" fill="white"/>
    <path d="M100.764 68.1866C100.832 68.096 100.914 68.0157 101.006 67.9484C101.096 67.879 101.196 67.8227 101.302 67.7812C101.233 67.8723 101.15 67.9526 101.058 68.0195C100.968 68.0885 100.869 68.1447 100.764 68.1866Z" fill="white"/>
    <path d="M98.4805 65.4298C98.5493 65.3391 98.6308 65.2589 98.7225 65.1916C98.813 65.1225 98.9126 65.0663 99.0184 65.0244C98.9496 65.115 98.8681 65.1953 98.7763 65.2626C98.6856 65.3313 98.5861 65.3875 98.4805 65.4298Z" fill="white"/>
    <path d="M102.088 72.8248C102.157 72.7346 102.239 72.6545 102.33 72.5866C102.421 72.5179 102.52 72.4617 102.626 72.4194C102.557 72.5101 102.475 72.5903 102.384 72.6577C102.293 72.7263 102.194 72.7825 102.088 72.8248Z" fill="white"/>
    <defs>
        <linearGradient id="paint0_linear_463_1328" x1="73.5791" y1="9.47856" x2="73.5791" y2="140.812" gradientUnits="userSpaceOnUse">
            <stop stop-color="white" stop-opacity="0"/>
            <stop offset="1" stop-color="#1E66CA"/>
        </linearGradient>
        <linearGradient id="paint1_linear_463_1328" x1="20.1586" y1="108.234" x2="20.1586" y2="115.383" gradientUnits="userSpaceOnUse">
            <stop stop-color="#4379F0"/>
            <stop offset="1" stop-color="#4379F0" stop-opacity="0"/>
        </linearGradient>
        <linearGradient id="paint2_linear_463_1328" x1="49.1429" y1="32.6681" x2="49.1429" y2="38.3875" gradientUnits="userSpaceOnUse">
            <stop stop-color="#4379F0"/>
            <stop offset="1" stop-color="#4379F0" stop-opacity="0"/>
        </linearGradient>
        <linearGradient id="paint3_linear_463_1328" x1="113.598" y1="121.104" x2="113.598" y2="130.343" gradientUnits="userSpaceOnUse">
            <stop stop-color="#4379F0"/>
            <stop offset="1" stop-color="#4379F0" stop-opacity="0"/>
        </linearGradient>
        <linearGradient id="paint4_linear_463_1328" x1="107.239" y1="45.4615" x2="110.456" y2="51.0339" gradientUnits="userSpaceOnUse">
            <stop stop-color="#4479F0"/>
            <stop offset="1" stop-color="#4479F0" stop-opacity="0"/>
        </linearGradient>
    </defs>
</svg>
