<svg width="21" height="22" viewBox="0 0 21 22" fill="none" xmlns="http://www.w3.org/2000/svg">
    <g clip-path="url(#clip0_203_5898)">
        <path d="M20.6762 4.27165C20.272 3.5769 19.5282 3.10498 18.6667 3.10498H10.5V4.27165H20.6762ZM0 14.7716H21V15.9383H0V14.7716ZM10.5 10.105H21V11.2716H10.5V10.105ZM10.5 7.77165H21V8.93831H10.5V7.77165ZM0 12.4383H21V13.605H0V12.4383ZM2.33333 18.2716H18.6667C19.5282 18.2716 20.272 17.7997 20.6762 17.105H0.32375C0.728 17.7997 1.47175 18.2716 2.33333 18.2716ZM10.5 5.43831H21V6.60498H10.5V5.43831Z" fill="#B22334"/>
        <path d="M0.0396667 16.3342C0.0495833 16.3885 0.0606667 16.4427 0.0740833 16.4958C0.08925 16.5547 0.107917 16.6113 0.12775 16.6685C0.179667 16.8196 0.242667 16.9654 0.322 17.1019L0.32375 17.1048H20.6762L20.6774 17.1025C20.7557 16.965 20.8206 16.8202 20.8711 16.6702C20.9095 16.5608 20.9391 16.4484 20.9597 16.3342C20.9837 16.2059 21 16.0741 21 15.9382H0C0 16.0741 0.0163333 16.2053 0.0396667 16.3342ZM0 13.6048H21V14.7715H0V13.6048ZM0 11.2715V12.4382H21V11.2715H10.5H0ZM10.5 8.93815H21V10.1048H10.5V8.93815ZM10.5 6.60482H21V7.77148H10.5V6.60482ZM0.0746667 4.88048C0.08925 4.82098 0.109667 4.7644 0.128333 4.70723C0.108076 4.76422 0.0901719 4.82202 0.0746667 4.88048ZM10.5 5.43815H21C21 5.30223 20.9837 5.1704 20.9597 5.04148C20.9393 4.92721 20.9095 4.81483 20.8705 4.70548C20.8199 4.55488 20.7549 4.40953 20.6762 4.27148H10.5V5.43815Z" fill="#EEEEEE"/>
        <path d="M10.5 3.10498H2.33333C1.71449 3.10498 1.121 3.35081 0.683417 3.7884C0.245833 4.22598 0 4.81948 0 5.43831L0 11.2716H10.5V3.10498Z" fill="#3C3B6E"/>
        <path d="M1.16724 4.69498L1.52774 4.9569L1.39007 5.37982L1.74999 5.11848L2.11049 5.37982L1.97282 4.9569L2.33332 4.69498H1.88765L1.74999 4.27148L1.6129 4.69498H1.16724ZM2.3339 5.86165L2.6944 6.12357L2.55674 6.54648L2.91665 6.28515L3.27715 6.54648L3.13949 6.12357L3.49999 5.86165H3.05432L2.91665 5.43815L2.77957 5.86165H2.3339ZM4.66724 5.86165L5.02774 6.12357L4.89007 6.54648L5.24999 6.28515L5.61049 6.54648L5.47282 6.12357L5.83332 5.86165H5.38765L5.24999 5.43815L5.1129 5.86165H4.66724ZM7.00057 5.86165L7.36107 6.12357L7.2234 6.54648L7.58332 6.28515L7.94382 6.54648L7.80615 6.12357L8.16665 5.86165H7.72099L7.58332 5.43815L7.44624 5.86165H7.00057ZM2.3339 8.19498L2.6944 8.4569L2.55674 8.87982L2.91665 8.61848L3.27715 8.87982L3.13949 8.4569L3.49999 8.19498H3.05432L2.91665 7.77148L2.77957 8.19498H2.3339ZM4.66724 8.19498L5.02774 8.4569L4.89007 8.87982L5.24999 8.61848L5.61049 8.87982L5.47282 8.4569L5.83332 8.19498H5.38765L5.24999 7.77148L5.1129 8.19498H4.66724ZM7.00057 8.19498L7.36107 8.4569L7.2234 8.87982L7.58332 8.61848L7.94382 8.87982L7.80615 8.4569L8.16665 8.19498H7.72099L7.58332 7.77148L7.44624 8.19498H7.00057ZM3.50057 4.69498L3.86107 4.9569L3.7234 5.37982L4.08332 5.11848L4.44382 5.37982L4.30615 4.9569L4.66665 4.69498H4.22099L4.08332 4.27148L3.94624 4.69498H3.50057ZM5.8339 4.69498L6.1944 4.9569L6.05674 5.37982L6.41665 5.11848L6.77715 5.37982L6.63949 4.9569L6.99999 4.69498H6.55432L6.41665 4.27148L6.27957 4.69498H5.8339ZM8.16724 4.69498L8.52774 4.9569L8.39007 5.37982L8.74999 5.11848L9.11049 5.37982L8.97282 4.9569L9.33332 4.69498H8.88765L8.74999 4.27148L8.6129 4.69498H8.16724ZM1.16724 7.02832L1.52774 7.29023L1.39007 7.71315L1.74999 7.45182L2.11049 7.71315L1.97282 7.29023L2.33332 7.02832H1.88765L1.74999 6.60482L1.6129 7.02832H1.16724ZM3.7234 7.71315L4.08332 7.45182L4.44382 7.71315L4.30615 7.29023L4.66665 7.02832H4.22099L4.08332 6.60482L3.94624 7.02832H3.50057L3.86107 7.29023L3.7234 7.71315ZM5.8339 7.02832L6.1944 7.29023L6.05674 7.71315L6.41665 7.45182L6.77715 7.71315L6.63949 7.29023L6.99999 7.02832H6.55432L6.41665 6.60482L6.27957 7.02832H5.8339ZM8.16724 7.02832L8.52774 7.29023L8.39007 7.71315L8.74999 7.45182L9.11049 7.71315L8.97282 7.29023L9.33332 7.02832H8.88765L8.74999 6.60482L8.6129 7.02832H8.16724ZM1.16724 9.36165L1.52774 9.62357L1.39007 10.0465L1.74999 9.78515L2.11049 10.0465L1.97282 9.62357L2.33332 9.36165H1.88765L1.74999 8.93815L1.6129 9.36165H1.16724ZM3.7234 10.0465L4.08332 9.78515L4.44382 10.0465L4.30615 9.62357L4.66665 9.36165H4.22099L4.08332 8.93815L3.94624 9.36165H3.50057L3.86107 9.62357L3.7234 10.0465ZM5.8339 9.36165L6.1944 9.62357L6.05674 10.0465L6.41665 9.78515L6.77715 10.0465L6.63949 9.62357L6.99999 9.36165H6.55432L6.41665 8.93815L6.27957 9.36165H5.8339ZM8.16724 9.36165L8.52774 9.62357L8.39007 10.0465L8.74999 9.78515L9.11049 10.0465L8.97282 9.62357L9.33332 9.36165H8.88765L8.74999 8.93815L8.6129 9.36165H8.16724Z" fill="white"/>
    </g>
    <defs>
        <clipPath id="clip0_203_5898">
            <rect width="21" height="21" fill="white" transform="translate(0 0.188232)"/>
        </clipPath>
    </defs>
</svg>
