<svg width="264" height="232" viewBox="0 0 264 232" fill="none" xmlns="http://www.w3.org/2000/svg">
    <path d="M264 212.05H241.796V212.217H264V212.05Z" fill="#EBEBEB"/>
    <path d="M184.436 213.874H178.61V214.041H184.436V213.874Z" fill="#EBEBEB"/>
    <path d="M241.126 205.829H228.26V205.996H241.126V205.829Z" fill="#EBEBEB"/>
    <path d="M36.7249 206.955H32.4812V207.122H36.7249V206.955Z" fill="#EBEBEB"/>
    <path d="M148.757 174.99H88.9028C88.757 174.99 88.6171 174.932 88.514 174.829C88.4109 174.726 88.353 174.586 88.353 174.441V135.295C88.353 135.15 88.4109 135.01 88.514 134.907C88.6171 134.804 88.757 134.746 88.9028 134.746H99.3544C99.4729 134.743 99.5888 134.781 99.6829 134.853C101.314 136.053 103.124 136.987 105.046 137.622C107.377 138.394 109.818 138.783 112.273 138.775H124.113C128.626 138.841 133.043 137.468 136.723 134.853C136.818 134.783 136.933 134.745 137.052 134.746H148.757C148.829 134.745 148.901 134.758 148.968 134.786C149.035 134.813 149.096 134.854 149.148 134.905C149.199 134.956 149.239 135.017 149.267 135.084C149.294 135.151 149.308 135.223 149.307 135.295V174.421C149.309 174.494 149.297 174.568 149.271 174.637C149.244 174.706 149.204 174.769 149.153 174.822C149.102 174.876 149.04 174.918 148.972 174.947C148.904 174.976 148.831 174.99 148.757 174.99ZM89.4592 173.891H148.207V135.865H137.266C133.422 138.547 128.833 139.954 124.146 139.888H112.307C109.733 139.896 107.174 139.486 104.731 138.674C102.745 138.028 100.87 137.078 99.1734 135.859H89.4525L89.4592 173.891Z" fill="#E6E6E6"/>
    <path d="M213.244 201.263H219.774V186.87H206.399L213.244 201.263Z" fill="#F5F5F5"/>
    <path d="M129.986 231.539C201.775 231.539 259.971 228.142 259.971 223.95C259.971 219.759 201.775 216.361 129.986 216.361C58.1965 216.361 0 219.759 0 223.95C0 228.142 58.1965 231.539 129.986 231.539Z" fill="#F5F5F5"/>
    <path d="M234.087 158.31H25.8779V181.882H234.087V158.31Z" fill="#1E66CA"/>
    <path opacity="0.3" d="M234.094 158.31H189.431V181.882H234.094V158.31Z" fill="black"/>
    <path d="M48.8663 181.882H25.8779V223.95H48.8663V181.882Z" fill="#1E66CA"/>
    <path opacity="0.3" d="M25.8845 181.882V184.235L42.1621 189.149V223.95H48.8661V181.882H25.8845Z" fill="black"/>
    <path d="M234.094 181.882H211.105V223.95H234.094V181.882Z" fill="#1E66CA"/>
    <path opacity="0.2" d="M234.094 181.882H211.105V223.95H234.094V181.882Z" fill="black"/>
    <path opacity="0.3" d="M211.105 181.882V184.235L227.389 189.149V223.95H234.094V181.882H211.105Z" fill="black"/>
    <path d="M189.431 181.882H166.442V223.95H189.431V181.882Z" fill="#1E66CA"/>
    <path opacity="0.3" d="M166.442 181.882V184.235L182.727 189.149V223.95H189.431V181.882H166.442Z" fill="black"/>
    <path d="M93.5289 181.882H70.5405V223.95H93.5289V181.882Z" fill="#1E66CA"/>
    <path opacity="0.2" d="M93.5289 181.882H70.5405V223.95H93.5289V181.882Z" fill="black"/>
    <path opacity="0.3" d="M70.5405 181.882V184.235L86.8248 189.149V223.95H93.5289V181.882H70.5405Z" fill="black"/>
    <path d="M205.393 153.678H78.0961C77.6994 153.681 77.3064 153.601 76.942 153.445C76.5775 153.288 76.2494 153.058 75.9785 152.768C75.7076 152.478 75.4998 152.135 75.3681 151.761C75.2364 151.387 75.1837 150.989 75.2134 150.594L80.456 67.4028C80.5224 66.5736 80.8947 65.7988 81.5006 65.2288C82.1064 64.6589 82.9026 64.3346 83.7343 64.3189H211.025C211.422 64.316 211.814 64.3953 212.179 64.5519C212.543 64.7085 212.872 64.939 213.142 65.2288C213.413 65.5186 213.621 65.8614 213.753 66.2356C213.885 66.6098 213.937 67.0072 213.908 67.4028L208.665 150.594C208.599 151.422 208.227 152.196 207.623 152.766C207.018 153.335 206.224 153.66 205.393 153.678Z" fill="#263238"/>
    <path opacity="0.6" d="M205.393 153.678H78.0961C77.6994 153.681 77.3064 153.601 76.942 153.445C76.5775 153.288 76.2494 153.058 75.9785 152.768C75.7076 152.478 75.4998 152.135 75.3681 151.761C75.2364 151.387 75.1837 150.989 75.2134 150.594L80.456 67.4028C80.5224 66.5736 80.8947 65.7988 81.5006 65.2288C82.1064 64.6589 82.9026 64.3346 83.7343 64.3189H211.025C211.422 64.316 211.814 64.3953 212.179 64.5519C212.543 64.7085 212.872 64.939 213.142 65.2288C213.413 65.5186 213.621 65.8614 213.753 66.2356C213.885 66.6098 213.937 67.0072 213.908 67.4028L208.665 150.594C208.599 151.422 208.227 152.196 207.623 152.766C207.018 153.335 206.224 153.66 205.393 153.678Z" fill="black"/>
    <path d="M204.441 153.678H77.1507C76.7534 153.682 76.3597 153.603 75.9944 153.447C75.6291 153.291 75.3003 153.06 75.0287 152.77C74.757 152.481 74.5486 152.137 74.4165 151.763C74.2844 151.388 74.2315 150.99 74.2612 150.594L79.5038 67.4029C79.5702 66.5737 79.9425 65.7988 80.5484 65.2289C81.1543 64.6589 81.9504 64.3346 82.7821 64.319H210.073C210.47 64.315 210.863 64.3936 211.228 64.5499C211.593 64.7062 211.921 64.9366 212.193 65.2266C212.464 65.5167 212.672 65.8599 212.803 66.2345C212.934 66.6092 212.986 67.0071 212.955 67.4029L207.713 150.594C207.647 151.422 207.275 152.196 206.671 152.766C206.066 153.335 205.272 153.661 204.441 153.678Z" fill="#263238"/>
    <path d="M204.28 154.737H52.8146C52.1173 154.731 51.4325 154.922 50.8393 155.288C50.2461 155.655 49.7688 156.182 49.4626 156.809C49.385 156.971 49.3502 157.151 49.3615 157.331C49.3728 157.511 49.4298 157.685 49.5271 157.837C49.6244 157.988 49.7589 158.113 49.9177 158.198C50.0765 158.283 50.2544 158.326 50.4346 158.324H206.627C206.807 158.326 206.985 158.283 207.144 158.198C207.302 158.113 207.437 157.988 207.534 157.837C207.631 157.685 207.688 157.511 207.7 157.331C207.711 157.151 207.676 156.971 207.599 156.809C207.296 156.186 206.824 155.662 206.237 155.295C205.65 154.929 204.972 154.735 204.28 154.737Z" fill="#263238"/>
    <path opacity="0.6" d="M204.28 154.738H182.74C182.048 154.735 181.369 154.929 180.782 155.295C180.195 155.662 179.723 156.187 179.421 156.809C179.344 156.972 179.309 157.151 179.32 157.33C179.331 157.509 179.388 157.683 179.484 157.834C179.581 157.986 179.714 158.11 179.872 158.196C180.03 158.282 180.207 158.326 180.387 158.325H206.627C206.807 158.327 206.985 158.284 207.144 158.199C207.302 158.113 207.437 157.989 207.534 157.837C207.632 157.686 207.689 157.512 207.7 157.332C207.711 157.152 207.676 156.972 207.599 156.809C207.296 156.187 206.825 155.663 206.238 155.296C205.651 154.93 204.972 154.736 204.28 154.738Z" fill="black"/>
    <path d="M190.926 157.351H185.361C185.232 157.349 185.11 157.297 185.019 157.205C184.929 157.114 184.878 156.99 184.878 156.862C184.878 156.733 184.929 156.61 185.019 156.518C185.11 156.426 185.232 156.374 185.361 156.372H190.926C190.99 156.372 191.053 156.385 191.113 156.41C191.172 156.434 191.226 156.47 191.272 156.516C191.317 156.561 191.353 156.615 191.378 156.674C191.402 156.734 191.415 156.797 191.415 156.862C191.415 156.926 191.402 156.99 191.378 157.049C191.353 157.108 191.317 157.162 191.272 157.208C191.226 157.253 191.172 157.289 191.113 157.314C191.053 157.338 190.99 157.351 190.926 157.351Z" fill="#1E66CA"/>
    <path opacity="0.7" d="M119.373 157.351H113.815C113.685 157.351 113.561 157.3 113.469 157.208C113.377 157.116 113.326 156.992 113.326 156.862C113.326 156.797 113.338 156.734 113.363 156.674C113.388 156.615 113.424 156.561 113.469 156.516C113.514 156.47 113.568 156.434 113.628 156.41C113.687 156.385 113.751 156.372 113.815 156.372H119.373C119.437 156.372 119.501 156.385 119.56 156.41C119.619 156.434 119.673 156.47 119.719 156.516C119.764 156.561 119.8 156.615 119.825 156.674C119.85 156.734 119.862 156.797 119.862 156.862C119.862 156.992 119.811 157.116 119.719 157.208C119.627 157.3 119.503 157.351 119.373 157.351Z" fill="white"/>
    <path d="M196.684 156.372H193.044C192.822 156.372 192.642 156.552 192.642 156.775V156.949C192.642 157.171 192.822 157.351 193.044 157.351H196.684C196.907 157.351 197.087 157.171 197.087 156.949V156.775C197.087 156.552 196.907 156.372 196.684 156.372Z" fill="#1E66CA"/>
    <path d="M77.1304 147.59L81.9975 70.4061C82.0226 70.0841 82.1672 69.7831 82.4029 69.5623C82.6386 69.3415 82.9484 69.2168 83.2713 69.2128H208.966C209.12 69.2104 209.273 69.2403 209.415 69.3004C209.557 69.3605 209.684 69.4496 209.79 69.562C209.895 69.6743 209.976 69.8074 210.027 69.9528C210.078 70.0981 210.098 70.2526 210.086 70.4061L205.225 147.59C205.199 147.913 205.053 148.214 204.816 148.435C204.579 148.655 204.269 148.78 203.945 148.784H78.2566C78.1026 148.785 77.95 148.754 77.8084 148.694C77.6667 148.634 77.539 148.545 77.4333 148.433C77.3276 148.321 77.2461 148.188 77.194 148.043C77.1419 147.898 77.1202 147.744 77.1304 147.59Z" fill="white"/>
    <path opacity="0.1" d="M148.636 66.8328L106.769 146.41H75.8834C75.7285 146.413 75.5748 146.383 75.4322 146.322C75.2895 146.262 75.1611 146.172 75.0551 146.059C74.9491 145.946 74.8678 145.812 74.8165 145.666C74.7652 145.52 74.7449 145.365 74.7571 145.21L79.6243 68.0328C79.6492 67.7101 79.7936 67.4084 80.0291 67.1865C80.2647 66.9646 80.5745 66.8385 80.898 66.8328H148.636Z" fill="#1E66CA"/>
    <path opacity="0.4" d="M147.168 66.9129C147.15 67.1561 147.041 67.3837 146.864 67.5511C146.687 67.7185 146.453 67.8137 146.209 67.818C146.093 67.8193 145.978 67.7963 145.87 67.7505C145.763 67.7046 145.667 67.637 145.587 67.5518C145.508 67.4666 145.447 67.3658 145.409 67.2558C145.37 67.1458 145.355 67.029 145.365 66.9129C145.382 66.6692 145.49 66.4407 145.667 66.273C145.845 66.1053 146.079 66.0107 146.323 66.0079C146.44 66.0066 146.555 66.0296 146.663 66.0754C146.77 66.1212 146.866 66.1889 146.945 66.274C147.025 66.3592 147.086 66.46 147.124 66.57C147.162 66.68 147.177 66.7968 147.168 66.9129Z" fill="white"/>
    <path d="M126.399 48.404C122.732 52.6008 120.613 65.4659 123.328 71.7946C126.043 78.1232 94.5409 84.4586 120.533 94.7427C146.524 105.027 167.314 93.1002 159.792 82.4474C152.27 71.7946 160.603 54.0556 151.894 49.5973C144.024 45.5347 133.746 39.9904 126.399 48.404Z" fill="#263238"/>
    <path d="M118.628 100.206C117.254 104.899 115.793 109.592 114.277 114.285C112.762 118.978 111.187 123.617 109.518 128.276L108.881 130.033L108.559 130.911L108.458 131.172L108.297 131.568C108.197 131.823 108.043 132.097 107.909 132.359C107.253 133.556 106.275 134.545 105.086 135.215C104.007 135.801 102.802 136.118 101.573 136.14C99.8506 136.148 98.1436 135.813 96.5519 135.155C95.2489 134.626 93.9873 134.001 92.7774 133.284C88.3819 130.581 84.353 127.323 80.7905 123.59L83.68 120.184C84.6521 120.808 85.6912 121.471 86.6968 122.095C87.7024 122.718 88.755 123.322 89.774 123.918C91.7707 125.087 93.8322 126.141 95.9485 127.076C96.9128 127.501 97.9078 127.853 98.9251 128.129C99.6285 128.362 100.372 128.449 101.111 128.383C101.298 128.383 101.265 128.276 101.111 128.336C100.956 128.397 100.789 128.571 100.782 128.551C100.775 128.531 100.782 128.551 100.782 128.511C100.785 128.498 100.785 128.484 100.782 128.471L100.836 128.303L101.091 127.438L101.607 125.695L105.703 111.616C107.097 106.924 108.532 102.231 110.007 97.5378L118.628 100.206Z" fill="#D3766A"/>
    <path d="M83.4725 120.078L75.6824 117.195L78.773 125.427C78.773 125.427 84.2703 126.219 86.4022 123.329L84.6659 121.003C84.3649 120.586 83.9507 120.265 83.4725 120.078Z" fill="#D3766A"/>
    <path d="M68.8105 119.587L71.7738 126.338L78.8063 125.413L75.7091 117.181L68.8105 119.587Z" fill="#D3766A"/>
    <path d="M112.944 88.0651C109.377 88.9701 106.91 103.632 106.91 103.632L116.731 110.336C116.731 110.336 126.117 95.5469 123.402 91.6317C120.519 87.5221 118.139 86.7444 112.944 88.0651Z" fill="#1E66CA"/>
    <path d="M112.944 88.0651C109.377 88.9701 106.91 103.632 106.91 103.632L116.731 110.336C116.731 110.336 126.117 95.5469 123.402 91.6317C120.519 87.5221 118.139 86.7444 112.944 88.0651Z" fill="#A6A6A6"/>
    <path opacity="0.2" d="M112.622 93.3953L120.245 95.1584L120.975 102.62C119.684 105.254 118.258 107.821 116.705 110.31L110.745 106.287C111.006 102.835 111.65 95.7417 112.622 93.3953Z" fill="black"/>
    <path d="M112.944 88.0654C112.944 88.0654 108.821 89.5135 117.074 140.237H152.176C151.586 125.95 151.573 117.134 158.398 87.8173C153.484 86.8013 148.503 86.1448 143.495 85.8531C137.588 85.5648 132.768 85.3771 127.552 85.8531C120.707 86.4765 112.944 88.0654 112.944 88.0654Z" fill="#1E66CA"/>
    <path d="M112.944 88.0654C112.944 88.0654 108.821 89.5135 117.074 140.237H152.176C151.586 125.95 151.573 117.134 158.398 87.8173C153.484 86.8013 148.503 86.1448 143.495 85.8531C137.588 85.5648 132.768 85.3771 127.552 85.8531C120.707 86.4765 112.944 88.0654 112.944 88.0654Z" fill="#A6A6A6"/>
    <path opacity="0.2" d="M150.138 101.427L154.67 105.288C153.705 110.417 153.055 114.674 152.659 118.489C151.794 114.681 149.635 104.343 150.138 101.427Z" fill="black"/>
    <path d="M141.912 67.8992C140.906 73.0278 139.901 82.4269 143.494 85.8527C143.494 85.8527 140.142 93.5356 131.259 93.5356C122.376 93.5356 127.552 85.8527 127.552 85.8527C133.27 84.5119 133.123 80.2414 132.131 76.2592L141.912 67.8992Z" fill="#D3766A"/>
    <path d="M142.355 83.9349C141.51 85.6444 138.788 89.5529 131.186 90.9474C130.974 90.9862 130.756 90.943 130.576 90.8267C129.154 89.8345 128.269 87.7361 128.893 85.3025C128.934 85.153 128.933 84.9949 128.889 84.8461C128.845 84.6973 128.761 84.5637 128.645 84.4605C128.529 84.3573 128.387 84.2885 128.234 84.262C128.081 84.2354 127.924 84.2522 127.78 84.3103C127.196 84.5547 126.635 84.8509 126.104 85.1953C125.987 85.2726 125.893 85.3789 125.829 85.5036C125.273 86.5495 123.02 91.6714 129.818 94.829C129.926 94.8754 130.042 94.9027 130.16 94.9095C134.182 94.9899 141.215 94.1989 145.66 86.1942C145.739 86.0496 145.774 85.885 145.761 85.7206C145.748 85.5562 145.687 85.3992 145.586 85.269C144.989 84.6151 144.295 84.0566 143.528 83.6131C143.431 83.5511 143.323 83.5101 143.209 83.4928C143.096 83.4755 142.98 83.4822 142.87 83.5125C142.759 83.5429 142.656 83.5962 142.567 83.6689C142.478 83.7417 142.406 83.8323 142.355 83.9349Z" fill="#FAFAFA"/>
    <path d="M144.218 105.04L135.168 104.778C135.073 104.779 134.98 104.76 134.893 104.721C134.807 104.683 134.729 104.627 134.666 104.557C134.602 104.486 134.555 104.404 134.526 104.314C134.497 104.223 134.487 104.128 134.497 104.034L134.585 102.915C134.611 102.726 134.705 102.554 134.85 102.431C134.994 102.307 135.179 102.241 135.369 102.244L144.42 102.506C144.515 102.505 144.609 102.525 144.696 102.563C144.783 102.602 144.861 102.659 144.924 102.73C144.988 102.801 145.035 102.884 145.064 102.975C145.093 103.066 145.101 103.162 145.09 103.257L145.003 104.369C144.977 104.558 144.882 104.73 144.738 104.853C144.593 104.977 144.409 105.043 144.218 105.04Z" fill="#FAFAFA"/>
    <path opacity="0.2" d="M137.923 71.311L132.131 76.2519C132.379 77.1785 132.545 78.1252 132.627 79.0811C134.806 78.766 137.809 76.3659 138.044 74.0798C138.172 73.1572 138.131 72.219 137.923 71.311Z" fill="black"/>
    <path d="M148.67 58.1983C147.054 66.6253 146.551 70.2254 141.698 74.0267C134.397 79.752 124.401 75.9172 123.476 67.1818C122.638 59.3179 125.42 46.8617 134.203 44.5555C136.127 44.0441 138.15 44.0324 140.081 44.5215C142.011 45.0106 143.784 45.9844 145.233 47.3505C146.682 48.7167 147.758 50.4301 148.359 52.3284C148.961 54.2267 149.068 56.2471 148.67 58.1983Z" fill="#D3766A"/>
    <path d="M143.876 51.9639C142.83 57.24 142.582 64.2324 147.416 64.2324C152.25 64.2324 156.037 56.0065 151.867 49.5639C147.697 43.1212 144.486 48.8532 143.876 51.9639Z" fill="#263238"/>
    <path d="M152.23 52.6135C152.23 58.3522 145.003 55.5164 141.805 53.0426C138.607 50.5688 138.453 50.8369 132.526 50.8302C126.6 50.8235 125.413 50.4146 123.663 47.5855C121.914 44.7563 122.075 42.8926 126.017 43.4893C129.959 44.0859 126.647 40.0635 129.583 37.831C132.52 35.5986 135.999 36.1617 140.015 41.2568C144.031 46.3519 152.23 42.6714 152.23 52.6135Z" fill="#263238"/>
    <path d="M150.108 65.6966C150.868 63.1029 150.122 60.6009 148.442 60.1082C146.761 59.6155 144.782 61.3186 144.022 63.9123C143.261 66.506 144.007 69.0081 145.688 69.5008C147.369 69.9935 149.347 68.2903 150.108 65.6966Z" fill="white"/>
    <path d="M136.69 72.1836C135.134 72.1833 133.594 71.8662 132.165 71.2517C132.134 71.2393 132.106 71.2208 132.083 71.1975C132.059 71.1741 132.041 71.1463 132.028 71.1157C132.016 71.0851 132.01 71.0523 132.01 71.0193C132.01 70.9862 132.017 70.9536 132.031 70.9232C132.058 70.8621 132.109 70.814 132.171 70.789C132.234 70.7641 132.303 70.7641 132.366 70.7891C133.713 71.3673 135.162 71.6693 136.628 71.6773C138.094 71.6854 139.547 71.3993 140.9 70.8361C142.216 70.2974 143.412 69.501 144.416 68.4936C145.42 67.4862 146.212 66.2882 146.746 64.97C148.757 59.2112 150.809 52.0244 148.435 47.5394C147.958 46.6664 147.297 45.9071 146.499 45.3135C145.7 44.7198 144.783 44.3059 143.81 44.1002C143.745 44.0828 143.69 44.0408 143.656 43.9831C143.622 43.9254 143.612 43.8566 143.629 43.7918C143.646 43.7272 143.688 43.6719 143.746 43.6381C143.803 43.6042 143.872 43.5944 143.937 43.6108C144.977 43.8346 145.957 44.2797 146.809 44.916C147.662 45.5523 148.367 46.3647 148.878 47.298C151.345 51.9305 149.287 59.2581 147.215 65.1242C146.653 66.5085 145.82 67.7662 144.764 68.8232C143.708 69.8803 142.451 70.7151 141.068 71.2785C139.681 71.8613 138.194 72.1687 136.69 72.1836Z" fill="white"/>
    <path opacity="0.6" d="M149.863 65.721C149.266 67.7322 147.899 69.1468 146.806 68.8317C145.713 68.5166 145.311 66.5992 145.908 64.5612C146.504 62.5231 147.872 61.1287 148.965 61.4505C150.058 61.7723 150.46 63.6829 149.863 65.721Z" fill="#1E66CA"/>
    <path d="M132.86 70.1414L130.234 69.6347C129.772 69.5456 129.325 69.8477 129.236 70.3094L129.207 70.4608C129.118 70.9225 129.42 71.369 129.882 71.4581L132.508 71.9648C132.97 72.0539 133.417 71.7518 133.506 71.2901L133.535 71.1387C133.624 70.677 133.322 70.2305 132.86 70.1414Z" fill="white"/>
    <path d="M115.739 148.784C115.739 148.784 115.645 143.984 117.08 140.236H152.176C152.176 140.236 155.334 145.331 156.152 148.784H115.739Z" fill="#455A64"/>
    <path d="M152.706 138.178L152.98 141.315C153.108 141.563 152.82 141.811 152.411 141.811H116.879C116.564 141.811 116.302 141.657 116.282 141.456L115.96 138.312C115.96 138.097 116.215 137.91 116.564 137.91H152.096C152.212 137.897 152.329 137.915 152.436 137.962C152.543 138.009 152.636 138.084 152.706 138.178Z" fill="#1E66CA"/>
    <path opacity="0.3" d="M152.706 138.178L152.98 141.315C153.108 141.563 152.82 141.811 152.411 141.811H116.879C116.564 141.811 116.302 141.657 116.282 141.456L115.96 138.312C115.96 138.097 116.215 137.91 116.564 137.91H152.096C152.212 137.897 152.329 137.915 152.436 137.962C152.543 138.009 152.636 138.084 152.706 138.178Z" fill="#455A64"/>
    <path d="M147.925 142.147H148.877C149.072 142.147 149.213 142.053 149.199 141.933L148.757 137.85C148.757 137.729 148.576 137.635 148.388 137.635H147.416C147.222 137.635 147.081 137.729 147.094 137.85L147.537 141.933C147.57 142.053 147.738 142.147 147.925 142.147Z" fill="#1E66CA"/>
    <path d="M119.574 142.147H120.526C120.714 142.147 120.861 142.053 120.848 141.933L120.398 137.85C120.398 137.729 120.224 137.635 120.03 137.635H119.078C118.89 137.635 118.743 137.729 118.756 137.85L119.205 141.933C119.219 142.053 119.386 142.147 119.574 142.147Z" fill="#1E66CA"/>
    <path d="M133.754 142.147H134.679C134.866 142.147 135.014 142.053 135 141.933L134.551 137.85C134.551 137.729 134.37 137.635 134.183 137.635H133.231C133.043 137.635 132.895 137.729 132.909 137.85L133.358 141.933C133.398 142.053 133.559 142.147 133.754 142.147Z" fill="#1E66CA"/>
    <path d="M161.401 97.7524C162.943 102.758 164.424 107.791 165.846 112.85L167.984 120.399L169.05 124.153L169.318 125.078L169.452 125.541L169.486 125.648L169.379 125.481C169.209 125.238 169.001 125.025 168.762 124.85C168.237 124.469 167.613 124.247 166.965 124.213C166.476 124.19 165.988 124.287 165.544 124.495C165.061 124.757 165.108 124.817 165.148 124.77C165.262 124.671 165.365 124.561 165.457 124.441C165.773 124.047 166.064 123.632 166.328 123.201C166.918 122.236 167.502 121.15 168.051 120.037C169.191 117.811 170.217 115.451 171.256 113.078C172.295 110.705 173.267 108.305 174.273 105.885C175.278 103.464 176.237 101.031 177.229 98.6307L181.513 99.9045C180.4 105.134 179.1 110.269 177.491 115.384C176.7 117.952 175.821 120.493 174.809 123.067C174.286 124.354 173.73 125.641 173.039 126.976C172.671 127.697 172.259 128.396 171.806 129.067C171.524 129.488 171.21 129.887 170.867 130.261C170.323 130.878 169.662 131.381 168.923 131.742C168.185 132.101 167.369 132.271 166.55 132.238C165.577 132.184 164.644 131.841 163.868 131.253C163.373 130.88 162.945 130.427 162.601 129.912C162.383 129.582 162.192 129.234 162.031 128.873C161.971 128.725 161.904 128.571 161.857 128.437L161.729 128.109L161.555 127.633L161.206 126.687C160.751 125.434 160.288 124.18 159.866 122.926C159.007 120.419 158.149 117.918 157.345 115.404C155.7 110.381 154.167 105.333 152.746 100.26L161.401 97.7524Z" fill="#D3766A"/>
    <path d="M158.398 87.8172C161.917 88.8832 167.301 102.687 167.301 102.687L153.658 112.441C153.658 112.441 147.524 100.642 148.998 96.0968C150.54 91.3637 154.389 86.5971 158.398 87.8172Z" fill="#1E66CA"/>
    <path d="M158.398 87.8172C161.917 88.8832 167.301 102.687 167.301 102.687L153.658 112.441C153.658 112.441 147.524 100.642 148.998 96.0968C150.54 91.3637 154.389 86.5971 158.398 87.8172Z" fill="#A6A6A6"/>
    <path d="M177.383 100.467L175.513 92.2214L183.29 96.3243C183.29 96.3243 183.384 101.875 180.246 103.625L177.383 100.467Z" fill="#D3766A"/>
    <path d="M178.771 85.678L183.732 89.1976L183.29 96.3241L175.513 92.2212L178.771 85.678Z" fill="#D3766A"/>
    <path d="M39.4801 44.1798H93.7832C94.82 44.1696 95.8476 44.3746 96.8012 44.7819C97.7547 45.1892 98.6133 45.7898 99.3228 46.5459C100.032 47.302 100.577 48.1971 100.923 49.1746C101.269 50.1521 101.408 51.1907 101.332 52.2247L99.8169 76.8019C99.6503 78.9655 98.6825 80.9891 97.1029 82.4769C95.5234 83.9648 93.4455 84.8098 91.2759 84.8468H84.9874L87.5551 93.2873L75.2732 84.8468H36.9929C35.9561 84.857 34.9284 84.652 33.9749 84.2448C33.0214 83.8375 32.1627 83.2368 31.4533 82.4807C30.7438 81.7246 30.1989 80.8295 29.8531 79.852C29.5072 78.8746 29.3679 77.836 29.444 76.8019L30.9458 52.2247C31.1122 50.0623 32.079 48.0396 33.6572 46.5519C35.2354 45.0643 37.3116 44.2185 39.4801 44.1798Z" fill="#1E66CA"/>
    <path d="M88.8086 57.0528H42.8856C42.6906 57.0517 42.498 57.0102 42.3199 56.9308C42.1418 56.8514 41.9822 56.7359 41.8511 56.5915C41.72 56.4472 41.6203 56.2772 41.5583 56.0923C41.4964 55.9075 41.4735 55.7117 41.4911 55.5176C41.5212 55.1107 41.7021 54.7297 41.9986 54.4494C42.295 54.1691 42.6855 54.0097 43.0934 54.0024H89.0231C89.2171 54.0029 89.4089 54.0432 89.5866 54.1209C89.7644 54.1986 89.9242 54.312 90.0563 54.4541C90.1883 54.5962 90.2897 54.7639 90.3542 54.9469C90.4186 55.1298 90.4448 55.3241 90.431 55.5176C90.4071 55.932 90.2258 56.3217 89.9243 56.607C89.6228 56.8923 89.2237 57.0518 88.8086 57.0528Z" fill="white"/>
    <path d="M61.6035 66.0291H42.336C42.1409 66.0305 41.9476 65.9916 41.7683 65.9147C41.589 65.8378 41.4275 65.7247 41.294 65.5824C41.1605 65.4401 41.0579 65.2717 40.9926 65.0879C40.9274 64.904 40.9008 64.7086 40.9147 64.514C40.9449 64.106 41.1268 63.7241 41.4246 63.4436C41.7225 63.1632 42.1146 63.0045 42.5237 62.9989H61.8114C62.007 62.9965 62.201 63.0348 62.3812 63.1113C62.5613 63.1877 62.7236 63.3007 62.8578 63.4431C62.992 63.5855 63.0952 63.7542 63.1609 63.9386C63.2265 64.1229 63.2533 64.3188 63.2393 64.514C63.2073 64.926 63.0211 65.3108 62.7179 65.5917C62.4147 65.8725 62.0168 66.0287 61.6035 66.0291Z" fill="white"/>
    <path d="M78.1156 75.0059H41.7862C41.5911 75.0074 41.3978 74.9684 41.2185 74.8915C41.0392 74.8146 40.8777 74.7015 40.7442 74.5592C40.6107 74.4169 40.5081 74.2485 40.4428 74.0647C40.3776 73.8808 40.351 73.6854 40.3649 73.4908C40.3935 73.0823 40.575 72.6995 40.8732 72.4187C41.1714 72.1379 41.5643 71.9797 41.9739 71.9757H78.3034C78.4987 71.9733 78.6925 72.0115 78.8723 72.0881C79.0521 72.1646 79.214 72.2777 79.3477 72.4202C79.4814 72.5628 79.5839 72.7315 79.6488 72.9159C79.7137 73.1002 79.7395 73.296 79.7246 73.4908C79.6945 73.8988 79.5125 74.2807 79.2147 74.5612C78.9169 74.8417 78.5247 75.0004 78.1156 75.0059Z" fill="white"/>
    <path d="M75.7559 66.0291H68.1602C67.9651 66.0305 67.7718 65.9916 67.5925 65.9147C67.4132 65.8378 67.2517 65.7247 67.1182 65.5824C66.9847 65.4401 66.8821 65.2717 66.8169 65.0879C66.7516 64.904 66.7251 64.7086 66.7389 64.514C66.7706 64.1066 66.953 63.7255 67.2505 63.4454C67.548 63.1652 67.9393 63.006 68.3479 62.9989H75.9369C76.1323 62.9965 76.3261 63.0347 76.5059 63.1113C76.6857 63.1878 76.8476 63.3009 76.9813 63.4434C77.1149 63.586 77.2175 63.7547 77.2824 63.9391C77.3473 64.1234 77.3731 64.3192 77.3582 64.514C77.3282 64.9209 77.1472 65.3018 76.8508 65.5822C76.5543 65.8625 76.1638 66.0219 75.7559 66.0291Z" fill="white"/>
    <path d="M115.095 0.000259582H85.4902C83.8019 0.0255985 82.1841 0.681397 80.9548 1.8388C79.7254 2.99619 78.9734 4.5715 78.8464 6.25517L77.6933 25.3886C77.6359 26.1931 77.7457 27.0007 78.0158 27.7606C78.286 28.5205 78.7107 29.2162 79.263 29.8039C79.8154 30.3915 80.4835 30.8584 81.2253 31.175C81.967 31.4916 82.7663 31.6512 83.5728 31.6436H88.4198L85.6175 38.2136L95.9821 31.6436H113.158C114.846 31.6182 116.464 30.9624 117.693 29.805C118.923 28.6476 119.675 27.0723 119.802 25.3886L120.975 6.25517C121.032 5.45072 120.923 4.64309 120.652 3.88319C120.382 3.12328 119.958 2.42759 119.405 1.83994C118.853 1.2523 118.185 0.785444 117.443 0.468818C116.701 0.152191 115.902 -0.00734451 115.095 0.000259582Z" fill="#1E66CA"/>
    <g opacity="0.5">
        <path d="M115.095 0.000259582H85.4902C83.8019 0.0255985 82.1841 0.681397 80.9548 1.8388C79.7254 2.99619 78.9734 4.5715 78.8464 6.25517L77.6933 25.3886C77.6359 26.1931 77.7457 27.0007 78.0158 27.7606C78.286 28.5205 78.7107 29.2162 79.263 29.8039C79.8154 30.3915 80.4835 30.8584 81.2253 31.175C81.967 31.4916 82.7663 31.6512 83.5728 31.6436H88.4198L85.6175 38.2136L95.9821 31.6436H113.158C114.846 31.6182 116.464 30.9624 117.693 29.805C118.923 28.6476 119.675 27.0723 119.802 25.3886L120.975 6.25517C121.032 5.45072 120.923 4.64309 120.652 3.88319C120.382 3.12328 119.958 2.42759 119.405 1.83994C118.853 1.2523 118.185 0.785444 117.443 0.468818C116.701 0.152191 115.902 -0.00734451 115.095 0.000259582Z" fill="#FAFAFA"/>
    </g>
    <path d="M100.822 18.9527C100.72 19.374 100.48 19.749 100.14 20.0176C99.7994 20.2862 99.3788 20.4329 98.9453 20.4343H97.1955C97.1955 19.9382 97.2358 19.6365 97.2425 19.5292C97.2678 18.5629 97.5156 17.6154 97.9665 16.7604C98.6 15.8073 99.4046 14.9799 100.34 14.3201C101.085 13.7797 101.789 13.1836 102.445 12.5368C102.793 12.1253 102.999 11.6131 103.035 11.0754C103.061 10.7191 103.005 10.3616 102.872 10.0303C102.738 9.69904 102.53 9.40289 102.264 9.16469C101.613 8.60751 100.772 8.32398 99.9174 8.3736C99.0183 8.34907 98.1396 8.64356 97.4369 9.20491C97.0193 9.54944 96.677 9.97617 96.4313 10.4586C96.2502 10.811 95.9691 11.102 95.6232 11.2953C95.2773 11.4885 94.8821 11.5752 94.4871 11.5446C94.2028 11.5095 93.9321 11.4032 93.6998 11.2356C93.4676 11.068 93.2814 10.8445 93.1584 10.5859C93.0354 10.3272 92.9797 10.0417 92.9963 9.75582C93.0129 9.46991 93.1014 9.19281 93.2535 8.95016C93.6581 8.27124 94.1775 7.66783 94.7888 7.16687C96.2416 5.99895 98.0682 5.39645 99.9308 5.47073C102.123 5.47073 103.826 6.04058 105.053 7.18698C105.627 7.68079 106.079 8.30099 106.373 8.99892C106.668 9.69684 106.796 10.4535 106.749 11.2094C106.687 12.0687 106.39 12.8944 105.891 13.5961C104.949 14.7556 103.861 15.7878 102.653 16.6666C102.027 17.1035 101.486 17.651 101.057 18.2822C100.948 18.4937 100.869 18.7194 100.822 18.9527ZM96.9944 23.7662V23.5517C97.0297 23.0672 97.2456 22.6136 97.5995 22.2809C97.9534 21.9481 98.4193 21.7604 98.9051 21.755H99.1464C99.3787 21.7516 99.6092 21.7965 99.8232 21.887C100.037 21.9774 100.23 22.1113 100.39 22.2803C100.549 22.4492 100.672 22.6495 100.75 22.8684C100.828 23.0872 100.859 23.3199 100.843 23.5517V23.7662C100.807 24.2513 100.592 24.7056 100.238 25.0395C99.8842 25.3733 99.4182 25.5625 98.9319 25.5696H98.7174C98.4822 25.5769 98.2481 25.5346 98.0304 25.4454C97.8127 25.3563 97.6162 25.2223 97.4537 25.0522C97.2911 24.8821 97.1663 24.6796 97.0871 24.4581C97.008 24.2365 96.9764 24.0008 96.9944 23.7662Z" fill="white"/>
</svg>
