<svg width="29" height="29" viewBox="0 0 29 29" fill="none" xmlns="http://www.w3.org/2000/svg">
    <g clip-path="url(#clip0_199_839)">
        <path d="M26.7727 18.0311L24.3549 15.8779C23.6549 15.2549 23.6549 14.2343 24.3549 13.6113L26.7727 11.4567C27.4727 10.8337 27.2865 10.2541 26.3583 10.1631L23.1523 9.85933C22.2255 9.77253 21.7243 8.97313 22.0449 8.08693L23.7459 3.35073C24.0651 2.46173 23.6745 2.13973 22.8793 2.63113L19.0979 4.96913C18.9106 5.08649 18.7013 5.1643 18.4828 5.19779C18.2644 5.23128 18.0413 5.21975 17.8275 5.16389C17.6136 5.10803 17.4134 5.00904 17.2393 4.87298C17.0651 4.73693 16.9205 4.56669 16.8145 4.37273L15.4453 1.92833C14.9847 1.10513 14.2245 1.10233 13.7555 1.91713L12.4829 4.12913C12.0111 4.94813 10.9317 5.29533 10.0847 4.90753L7.84473 3.87993C6.99353 3.48793 6.34253 3.93873 6.39293 4.88233L6.51333 7.14333C6.56513 8.08693 5.86793 9.05713 4.96773 9.30073L2.80473 9.88033C1.90593 10.1239 1.74073 10.8323 2.44073 11.4553L4.85853 13.6099C5.55853 14.2329 5.55853 15.2535 4.85853 15.8765L2.44073 18.0311C1.74073 18.6541 1.92553 19.2589 2.85093 19.3709L5.78393 19.7265C6.70933 19.8385 7.22453 20.6645 6.92913 21.5619L5.42553 26.1231C5.13013 27.0205 5.55153 27.3677 6.36073 26.9001L9.80893 24.9037C10.2112 24.681 10.682 24.6161 11.1296 24.7217C11.5771 24.8273 11.9693 25.0958 12.2295 25.4749L13.6603 27.6295C14.1811 28.4121 14.9637 28.3701 15.3963 27.5343L16.6549 25.1081C16.8645 24.7056 17.2229 24.4009 17.6539 24.2589C18.0849 24.1168 18.5544 24.1488 18.9621 24.3479L21.3897 25.5617C22.2269 25.9775 22.8695 25.5477 22.8191 24.6069L22.6973 22.3431C22.6483 21.3995 23.3427 20.4321 24.2457 20.1885L26.4059 19.6061C27.3075 19.3625 27.4727 18.6541 26.7727 18.0311ZM16.0067 20.3495H13.2067V17.5495H16.0067V20.3495ZM16.0067 16.1495H13.2067V9.14953H16.0067V16.1495Z" fill="#3782FF"/>
    </g>
    <defs>
        <clipPath id="clip0_199_839">
            <rect width="28" height="28" fill="white" transform="translate(0.606934 0.749512)"/>
        </clipPath>
    </defs>
</svg>
