<svg width="24" height="28" viewBox="0 0 24 28" fill="none" xmlns="http://www.w3.org/2000/svg">
    <g clip-path="url(#clip0_153_2389)">
        <path d="M20.1345 2.17948C18.8426 0.706982 16.5073 0.0756836 13.5197 0.0756836H4.84897C4.55338 0.0756945 4.26749 0.181151 4.0427 0.373093C3.8179 0.565035 3.66896 0.830872 3.62263 1.12281L0.0122986 24.0204C-0.059463 24.4719 0.290166 24.8808 0.747809 24.8808H6.10082L7.44519 16.3537L7.40346 16.6207C7.49924 16.018 8.01474 15.5734 8.62517 15.5734H11.1689C16.1661 15.5734 20.0789 13.5437 21.2219 7.67212C21.2559 7.49847 21.2853 7.32945 21.3107 7.16432C21.1664 7.08792 21.1664 7.08792 21.3107 7.16432C21.651 4.99413 21.3083 3.5169 20.1345 2.17948Z" fill="#27346A"/>
        <path d="M9.49345 6.38254C9.63979 6.31286 9.79985 6.27675 9.96194 6.27685H16.7596C17.5646 6.27685 18.3154 6.32923 19.0015 6.43966C19.1935 6.47027 19.3845 6.50681 19.5742 6.54925C19.8431 6.60858 20.1089 6.68121 20.3706 6.76685C20.7079 6.8795 21.022 7.01069 21.3107 7.16432C21.651 4.9933 21.3083 3.5169 20.1345 2.17948C18.8418 0.706982 16.5073 0.0756836 13.5197 0.0756836H4.84823C4.2377 0.0756836 3.71831 0.52016 3.62263 1.12281L0.0122991 24.0196C-0.0594625 24.4718 0.290167 24.8802 0.747067 24.8802H6.10082L8.88997 7.19288C8.91739 7.01902 8.98665 6.85444 9.09177 6.71328C9.1969 6.57212 9.33474 6.45862 9.49345 6.38254Z" fill="#032F86"/>
        <path d="M21.2226 7.67211C20.0796 13.5428 16.1669 15.5734 11.1696 15.5734H8.62513C8.01469 15.5734 7.4991 16.018 7.40426 16.6207L5.73177 27.2232C5.66928 27.6183 5.97486 27.9764 6.37465 27.9764H10.8871C11.1456 27.9763 11.3956 27.884 11.5921 27.7161C11.7886 27.5482 11.9188 27.3157 11.9592 27.0603L12.0031 26.8304L12.8536 21.4403L12.9084 21.1424C12.9488 20.8871 13.0789 20.6546 13.2754 20.4867C13.4719 20.3188 13.7219 20.2265 13.9804 20.2264H14.6557C19.0269 20.2264 22.4497 18.4505 23.4499 13.3145C23.8674 11.1681 23.6514 9.37612 22.547 8.11742C22.212 7.73617 21.796 7.42131 21.3114 7.16431C21.2851 7.33027 21.2567 7.49845 21.2226 7.67211Z" fill="#149CDE"/>
        <path d="M20.1148 6.68737C19.9366 6.63533 19.7567 6.58926 19.5754 6.54923C19.3855 6.50749 19.1946 6.47119 19.0027 6.44038C18.3158 6.32921 17.5656 6.27674 16.7599 6.27674H9.96302C9.80081 6.27637 9.64063 6.31279 9.49453 6.38327C9.33564 6.45911 9.19764 6.57255 9.09247 6.71374C8.9873 6.85494 8.91813 7.01965 8.89095 7.1936L7.44626 16.3537L7.40454 16.6207C7.49957 16.018 8.01507 15.5734 8.6256 15.5734H11.1701C16.1672 15.5734 20.08 13.5437 21.223 7.6721C21.257 7.49844 21.2856 7.33017 21.3118 7.1643C21.0224 7.0115 20.7091 6.87948 20.3717 6.76757C20.2866 6.73935 20.2009 6.71261 20.1149 6.68737" fill="#1F264F"/>
    </g>
    <defs>
        <clipPath id="clip0_153_2389">
            <rect width="23.7351" height="28" fill="white"/>
        </clipPath>
    </defs>
</svg>
