<svg width="236" height="236" viewBox="0 0 236 236" fill="none" xmlns="http://www.w3.org/2000/svg">
    <circle cx="118.256" cy="120.771" r="105.537" transform="rotate(165 118.256 120.771)" fill="url(#paint0_linear_378_1333)"/>
    <circle cx="32.3994" cy="179.696" r="4.41923" fill="white" stroke="url(#paint1_linear_378_1333)" stroke-width="2.65169"/>
    <circle cx="78.9808" cy="57.0997" r="3.27022" fill="white" stroke="url(#paint2_linear_378_1333)" stroke-width="2.65169"/>
    <circle cx="182.573" cy="202.059" r="6.09888" fill="white" stroke="url(#paint3_linear_378_1333)" stroke-width="2.65169"/>
    <path d="M172.051 75.0262C172.205 74.0199 173.252 73.4156 174.201 73.785L178.527 75.4694C179.771 75.9537 179.901 77.6624 178.745 78.3298L173.715 81.2339C172.559 81.9014 171.144 80.9342 171.347 79.6147L172.051 75.0262Z" fill="url(#paint4_linear_378_1333)"/>
    <path d="M83.0765 97.3689H102.363C102.363 97.3689 102.363 81.1747 119.192 80.8875C127.932 80.7338 132.464 86.4614 134.308 90.8465C136.445 95.9395 135.797 101.744 132.932 106.47C129.662 111.863 122.615 117.284 109.617 114.993L109.494 157.965H128.567V132.489C128.567 132.489 155.315 125.576 155.315 96.0865C155.315 67.8826 132.508 61.791 120.248 61.3969C113.428 61.1798 110.956 60.8859 102.52 62.0849C91.7698 63.6211 82.8494 76.105 83.0765 97.3689Z" fill="#FF725E"/>
    <path d="M128.797 166.922H109.44V185H128.797V166.922Z" fill="#15478C"/>
    <path d="M83.0765 97.3689H102.363C102.363 97.3689 102.363 81.1747 119.192 80.8875C127.932 80.7338 132.464 86.4614 134.308 90.8465C136.445 95.9395 135.797 101.744 132.932 106.47C129.662 111.863 122.615 117.284 109.617 114.993L109.494 157.965H128.567V132.489C128.567 132.489 155.315 125.576 155.315 96.0865C155.315 67.8826 132.508 61.791 120.248 61.3969C113.428 61.1798 110.956 60.8859 102.52 62.0849C91.7698 63.6211 82.8494 76.105 83.0765 97.3689Z" fill="#15478C"/>
    <path d="M75.0845 97.369H94.3747C94.3747 97.369 94.3747 81.1747 111.204 80.8875C119.944 80.7339 124.476 86.4615 126.316 90.8465C128.457 95.9396 127.809 101.744 124.943 106.47C121.674 111.863 114.503 116.766 101.505 114.485V157.965H120.578V132.489C120.578 132.489 147.326 125.576 147.326 96.0866C147.326 67.8827 122.031 61.3335 111.207 61.3335C102.928 61.3435 74.7205 63.344 75.0845 97.369Z" fill="#FF725E"/>
    <path d="M75.0845 97.369H94.3747C94.3747 97.369 94.3747 81.1747 111.204 80.8875C119.944 80.7339 124.476 86.4615 126.316 90.8465C128.457 95.9396 127.809 101.744 124.943 106.47C121.674 111.863 114.503 116.766 101.505 114.485V157.965H120.578V132.489C120.578 132.489 147.326 125.576 147.326 96.0866C147.326 67.8827 122.031 61.3335 111.207 61.3335C102.928 61.3435 74.7205 63.344 75.0845 97.369Z" fill="#1E66CA"/>
    <path d="M120.808 166.922H101.451V185H120.808V166.922Z" fill="#FF725E"/>
    <path d="M120.808 166.922H101.451V185H120.808V166.922Z" fill="#1E66CA"/>
    <path d="M113.381 80.9745C113.286 80.9827 113.19 80.9827 113.094 80.9745C112.904 80.9745 112.63 80.911 112.273 80.9077C111.262 80.858 110.249 80.9005 109.247 81.0346C107.76 81.2228 106.297 81.5664 104.882 82.0599C104.048 82.3515 103.235 82.7019 102.45 83.1085C101.602 83.5323 100.804 84.0487 100.069 84.6481C99.3398 85.253 98.686 85.9438 98.1222 86.7054C97.5878 87.4096 97.1002 88.1481 96.6628 88.9163C95.9324 90.2246 95.3531 91.6117 94.9361 93.0509C94.6534 94.0222 94.4589 95.017 94.355 96.0232C94.3149 96.3772 94.3049 96.6578 94.2949 96.8448C94.2951 96.9412 94.2862 97.0373 94.2682 97.132C94.2596 97.0365 94.2596 96.9403 94.2682 96.8448C94.2682 96.6544 94.2682 96.3739 94.2982 96.0165C94.375 94.9995 94.5529 93.9926 94.8293 93.0108C95.2309 91.555 95.8026 90.1516 96.5325 88.8295C96.9709 88.0529 97.4607 87.3064 97.9987 86.5952C98.5672 85.8211 99.229 85.1201 99.9691 84.5079C100.713 83.9002 101.521 83.3771 102.38 82.9482C103.17 82.5341 103.988 82.177 104.828 81.8795C106.256 81.388 107.733 81.0521 109.233 80.8776C110.243 80.7536 111.262 80.7301 112.276 80.8075C112.551 80.8251 112.826 80.8585 113.097 80.9077C113.194 80.9232 113.288 80.9456 113.381 80.9745Z" fill="#263238"/>
    <path d="M140.433 118.95C140.393 119.022 140.345 119.09 140.289 119.15L139.828 119.695C139.638 119.939 139.398 120.229 139.1 120.553C138.803 120.877 138.486 121.258 138.098 121.652C137.711 122.046 137.297 122.487 136.826 122.931C136.355 123.375 135.844 123.843 135.3 124.33C132.912 126.414 130.295 128.219 127.498 129.711C126.85 130.045 126.239 130.379 125.648 130.636C125.057 130.893 124.506 131.157 123.998 131.37C123.491 131.584 123.023 131.761 122.616 131.918C122.208 132.075 121.851 132.202 121.557 132.296L120.889 132.513C120.811 132.543 120.731 132.566 120.648 132.579C120.72 132.538 120.797 132.505 120.876 132.479L121.543 132.232C121.834 132.129 122.185 131.995 122.589 131.828C122.993 131.661 123.46 131.494 123.961 131.257C124.462 131.02 125.017 130.796 125.595 130.505C126.172 130.215 126.79 129.908 127.435 129.57C128.707 128.869 130.08 128.047 131.466 127.099C132.852 126.15 134.097 125.152 135.206 124.21C135.751 123.729 136.272 123.278 136.736 122.824C137.2 122.37 137.634 121.959 138.018 121.565C138.402 121.171 138.74 120.807 139.04 120.486C139.341 120.166 139.588 119.885 139.788 119.651L140.256 119.12C140.31 119.059 140.369 119.002 140.433 118.95Z" fill="#263238"/>
    <path d="M120.241 156.448C120.19 156.448 120.15 151.085 120.15 144.469C120.15 137.853 120.19 132.486 120.241 132.486C120.291 132.486 120.327 137.85 120.327 144.469C120.327 151.088 120.287 156.448 120.241 156.448Z" fill="#263238"/>
    <defs>
        <linearGradient id="paint0_linear_378_1333" x1="118.256" y1="15.2337" x2="118.256" y2="226.308" gradientUnits="userSpaceOnUse">
            <stop stop-color="white" stop-opacity="0"/>
            <stop offset="1" stop-color="#1E66CA"/>
        </linearGradient>
        <linearGradient id="paint1_linear_378_1333" x1="32.3994" y1="173.951" x2="32.3994" y2="185.441" gradientUnits="userSpaceOnUse">
            <stop stop-color="white" stop-opacity="0"/>
            <stop offset="1" stop-color="#1E66CA"/>
        </linearGradient>
        <linearGradient id="paint2_linear_378_1333" x1="78.9808" y1="52.5037" x2="78.9808" y2="61.6958" gradientUnits="userSpaceOnUse">
            <stop stop-color="#4379F0"/>
            <stop offset="1" stop-color="#4379F0" stop-opacity="0"/>
        </linearGradient>
        <linearGradient id="paint3_linear_378_1333" x1="182.573" y1="194.634" x2="182.573" y2="209.483" gradientUnits="userSpaceOnUse">
            <stop stop-color="white" stop-opacity="0"/>
            <stop offset="1" stop-color="#1E66CA"/>
        </linearGradient>
        <linearGradient id="paint4_linear_378_1333" x1="172.352" y1="73.0651" x2="177.523" y2="82.0208" gradientUnits="userSpaceOnUse">
            <stop stop-color="#4479F0"/>
            <stop offset="1" stop-color="#4479F0" stop-opacity="0"/>
        </linearGradient>
    </defs>
</svg>
