<svg width="21" height="22" viewBox="0 0 21 22" fill="none" xmlns="http://www.w3.org/2000/svg">
    <path d="M21 15.9749C21 16.5938 20.7542 17.1873 20.3166 17.6249C19.879 18.0624 19.2855 18.3083 18.6667 18.3083H2.33333C1.71449 18.3083 1.121 18.0624 0.683417 17.6249C0.245833 17.1873 0 16.5938 0 15.9749V5.47494C0 4.8561 0.245833 4.2626 0.683417 3.82502C1.121 3.38743 1.71449 3.1416 2.33333 3.1416H18.6667C19.2855 3.1416 19.879 3.38743 20.3166 3.82502C20.7542 4.2626 21 4.8561 21 5.47494V15.9749Z" fill="#C60A1D"/>
    <path d="M0 7.22485H21V14.2249H0V7.22485Z" fill="#FFC400"/>
    <path d="M5.25 10.1416V11.8916C5.25 12.3557 5.43437 12.8008 5.76256 13.129C6.09075 13.4572 6.53587 13.6416 7 13.6416C7.46413 13.6416 7.90925 13.4572 8.23744 13.129C8.56563 12.8008 8.75 12.3557 8.75 11.8916V10.1416H5.25Z" fill="#EA596E"/>
    <path d="M7 9.55811H8.75V11.3081H7V9.55811Z" fill="#F4A2B2"/>
    <path d="M5.25 9.55811H7V11.3081H5.25V9.55811Z" fill="#DD2E44"/>
    <path d="M7 9.55811C7.9665 9.55811 8.75 9.16635 8.75 8.68311C8.75 8.19986 7.9665 7.80811 7 7.80811C6.0335 7.80811 5.25 8.19986 5.25 8.68311C5.25 9.16635 6.0335 9.55811 7 9.55811Z" fill="#EA596E"/>
    <path d="M7 8.68311C7.9665 8.68311 8.75 8.48723 8.75 8.24561C8.75 8.00398 7.9665 7.80811 7 7.80811C6.0335 7.80811 5.25 8.00398 5.25 8.24561C5.25 8.48723 6.0335 8.68311 7 8.68311Z" fill="#FFAC33"/>
    <path d="M4.08331 9.55811H4.66665V13.6414H4.08331V9.55811ZM9.33331 9.55811H9.91665V13.6414H9.33331V9.55811Z" fill="#99AAB5"/>
    <path d="M3.5 13.0582H5.25V13.6415H3.5V13.0582ZM8.75 13.0582H10.5V13.6415H8.75V13.0582ZM4.08333 8.97485H4.66667V9.55819H4.08333V8.97485ZM9.33333 8.97485H9.91667V9.55819H9.33333V8.97485Z" fill="#66757F"/>
</svg>
