<svg width="21" height="22" viewBox="0 0 21 22" fill="none" xmlns="http://www.w3.org/2000/svg">
    <path d="M3.28125 3.43262C1.10677 3.43262 0 5.04863 0 7.04199V14.2607C0 16.2541 1.10677 17.8701 3.28125 17.8701H6.5625V3.43262H3.28125Z" fill="white"/>
    <path d="M17.7188 3.43262H6.5625V17.8701H17.7188C19.8932 17.8701 21 16.2541 21 14.2607V7.04199C21 5.04863 19.8932 3.43262 17.7188 3.43262Z" fill="#006838"/>
    <path d="M14.6045 7.21509L15.3474 7.90448L16.3351 7.68431L15.9091 8.60503L16.4243 9.47784L15.416 9.35512L14.7453 10.116L14.5507 9.12182L13.6188 8.7179L14.5048 8.22374L14.6045 7.21509Z" fill="#E6E7E8"/>
    <path d="M17.1839 11.744C15.7726 13.1555 13.4853 13.1555 12.0737 11.744C10.6621 10.3327 10.6621 8.045 12.0737 6.63373C12.1711 6.53661 12.2728 6.44769 12.3778 6.36401C11.6541 6.54747 10.9933 6.92293 10.4652 7.45076C8.83574 9.08056 8.83574 11.723 10.4652 13.3527C12.0957 14.9822 14.7374 14.9822 16.3672 13.3527C16.895 12.8247 17.2705 12.1639 17.4539 11.4401C17.3695 11.5462 17.2793 11.6476 17.1839 11.744Z" fill="#E6E7E8"/>
</svg>
