<svg width="236" height="236" viewBox="0 0 236 236" fill="none" xmlns="http://www.w3.org/2000/svg">
    <circle cx="118.256" cy="120.771" r="105.537" transform="rotate(165 118.256 120.771)" fill="url(#paint0_linear_391_1506)"/>
    <circle cx="32.3991" cy="179.696" r="4.41923" fill="white" stroke="url(#paint1_linear_391_1506)" stroke-width="2.65169"/>
    <circle cx="78.9806" cy="57.0997" r="3.27022" fill="white"/>
    <circle cx="78.9806" cy="57.0997" r="3.27022" fill="url(#paint2_linear_391_1506)"/>
    <circle cx="78.9806" cy="57.0997" r="3.27022" stroke="url(#paint3_linear_391_1506)" stroke-width="2.65169"/>
    <circle cx="182.573" cy="202.059" r="6.09888" fill="white" stroke="url(#paint4_linear_391_1506)" stroke-width="2.65169"/>
    <path d="M172.051 75.0262C172.205 74.0199 173.252 73.4155 174.201 73.7849L178.526 75.4693C179.77 75.9537 179.901 77.6623 178.745 78.3298L173.715 81.2338C172.559 81.9013 171.144 80.9341 171.347 79.6146L172.051 75.0262Z" fill="url(#paint5_linear_391_1506)"/>
    <path d="M172.051 75.0262C172.205 74.0199 173.252 73.4155 174.201 73.7849L178.526 75.4693C179.77 75.9537 179.901 77.6623 178.745 78.3298L173.715 81.2338C172.559 81.9013 171.144 80.9341 171.347 79.6146L172.051 75.0262Z" fill="url(#paint6_linear_391_1506)"/>
    <path d="M47.9548 143.294C50.5636 151.882 54.8451 159.87 60.5531 166.797C66.261 173.724 73.2825 179.453 81.2136 183.656C89.1446 187.858 97.8286 190.451 106.766 191.284C115.702 192.117 124.716 191.175 133.287 188.511L155.397 181.788L111.372 52.9437L97.0736 57.2616C95.937 57.5434 94.7957 57.8599 93.6498 58.2111C85.0469 60.7724 77.0355 65.0097 70.0767 70.6792C63.1178 76.3488 57.3489 83.3385 53.1019 91.2463C48.855 99.154 46.2138 107.824 45.3305 116.756C44.4471 125.689 45.339 134.708 47.9548 143.294Z" fill="#FFC727"/>
    <path d="M47.9548 143.294C50.5636 151.882 54.8451 159.87 60.5531 166.797C66.261 173.724 73.2825 179.453 81.2136 183.656C89.1446 187.858 97.8286 190.451 106.766 191.284C115.702 192.117 124.716 191.175 133.287 188.511L155.397 181.788L111.372 52.9437L97.0736 57.2616C95.937 57.5434 94.7957 57.8599 93.6498 58.2111C85.0469 60.7724 77.0355 65.0097 70.0767 70.6792C63.1178 76.3488 57.3489 83.3385 53.1019 91.2463C48.855 99.154 46.2138 107.824 45.3305 116.756C44.4471 125.689 45.339 134.708 47.9548 143.294Z" fill="#1E66CA"/>
    <g opacity="0.05">
        <path d="M148.722 162.298L94.2875 188.92C87.4056 186.953 80.8772 183.912 74.9436 179.91L143.316 146.468L148.722 162.298Z" fill="black"/>
        <path d="M141.861 142.171L70.8475 176.902C69.4197 175.779 68.0335 174.596 66.689 173.353L140.225 137.389L141.861 142.171Z" fill="black"/>
    </g>
    <path d="M154.763 182.046C187.293 169.546 202.703 130.89 189.183 95.7063C175.663 60.5223 138.332 42.1331 105.803 54.633C73.274 67.1328 57.8639 105.788 71.3839 140.972C84.9039 176.156 122.234 194.545 154.763 182.046Z" fill="#15478C"/>
    <path d="M158.29 179.293C188.527 167.68 202.586 131.048 189.691 97.4733C176.796 63.8985 141.831 46.095 111.593 57.708C81.356 69.3211 67.2971 105.953 80.192 139.528C93.0869 173.103 128.053 190.906 158.29 179.293Z" fill="#1E66CA"/>
    <path d="M156.814 175.443C185.139 164.564 198.309 130.248 186.23 98.7958C174.15 67.3435 141.395 50.6654 113.069 61.5443C84.7437 72.4232 71.5738 106.739 83.6535 138.192C95.7332 169.644 128.488 186.322 156.814 175.443Z" fill="white"/>
    <path opacity="0.5" d="M183.002 91.5971C163.7 114.469 131.97 151.985 114.151 172.688C105.998 168.482 98.8707 162.533 93.2754 155.264L144.155 59.8677C160.158 63.9777 174.546 75.4344 183.002 91.5971Z" fill="#EBEBEB"/>
    <path opacity="0.5" d="M188.478 105.708C190.219 112.211 190.95 118.943 190.647 125.669L134.895 178.6C131.681 178.35 128.495 177.808 125.379 176.978C141.528 158.68 171.067 125.336 188.478 105.708Z" fill="#EBEBEB"/>
    <path d="M119.724 65.731L121.339 71.1509L120.839 71.2826L120.347 71.4282L118.726 66.0082L119.724 65.731Z" fill="#263238"/>
    <path d="M101.69 83.1899C101.454 83.4464 101.218 83.7097 100.997 83.98L97.1431 79.974L97.8361 79.1839L101.69 83.1899Z" fill="#263238"/>
    <path d="M90.947 104.696C90.8708 105.057 90.8015 105.389 90.7321 105.784L85.6519 104.266L85.8667 103.178L90.947 104.696Z" fill="#263238"/>
    <path d="M92.1598 130.437C92.2152 130.624 92.2707 130.805 92.3331 130.985L87.4191 132.371L87.0864 131.276L92.0004 129.89C92.0558 130.07 92.1113 130.257 92.1598 130.437Z" fill="#263238"/>
    <path d="M105.335 152.845L101.87 156.74L101.094 155.929L104.559 152.034L105.335 152.845Z" fill="#263238"/>
    <path d="M126.287 165.486L125.234 170.858L124.208 170.553L125.261 165.175C125.601 165.292 125.941 165.389 126.287 165.486Z" fill="#263238"/>
    <path d="M149.547 165.535L151.169 170.955L150.178 171.232L148.556 165.812L149.055 165.674L149.547 165.535Z" fill="#263238"/>
    <path d="M172.765 156.969L172.072 157.759L168.212 153.753C168.448 153.496 168.683 153.233 168.905 152.97L172.765 156.969Z" fill="#263238"/>
    <path d="M184.222 132.683L184.014 133.771L178.955 132.253C179.031 131.893 179.1 131.56 179.163 131.165L184.222 132.683Z" fill="#263238"/>
    <path d="M182.482 104.585L182.808 105.68L177.894 107.067C177.839 106.879 177.79 106.699 177.735 106.519L177.568 105.971L182.482 104.585Z" fill="#263238"/>
    <path d="M168.822 81.0204L165.356 84.9156C165.1 84.6383 164.844 84.375 164.573 84.1046L168.039 80.2095L168.822 81.0204Z" fill="#263238"/>
    <path d="M145.694 66.4242L144.64 71.8094C144.293 71.6916 143.947 71.5946 143.614 71.4975L144.668 66.1192L145.694 66.4242Z" fill="#263238"/>
    <path d="M145.236 68.8293L136.794 123.153L131.624 121.566L143.829 68.3926L145.236 68.8293Z" fill="#37474F"/>
    <path d="M106.694 89.6216L139.47 119.057L135.976 123.077L105.744 90.7098L106.694 89.6216Z" fill="#455A64"/>
    <path d="M136.662 117.997C136.744 118.228 136.779 118.473 136.766 118.717C136.752 118.962 136.69 119.202 136.583 119.422C136.476 119.643 136.326 119.84 136.142 120.002C135.958 120.164 135.744 120.288 135.512 120.367C135.026 120.475 134.518 120.391 134.093 120.132C133.668 119.874 133.359 119.461 133.232 118.981C133.149 118.75 133.113 118.505 133.126 118.259C133.139 118.014 133.201 117.774 133.309 117.554C133.416 117.333 133.566 117.136 133.75 116.974C133.935 116.812 134.149 116.688 134.382 116.61C134.868 116.503 135.376 116.587 135.801 116.845C136.226 117.103 136.535 117.516 136.662 117.997Z" fill="#C7C7C7"/>
    <path d="M135.672 116.576C136.16 116.836 136.539 117.264 136.737 117.781C136.936 118.298 136.941 118.869 136.753 119.389C136.668 119.633 136.53 119.855 136.351 120.04C136.172 120.225 135.954 120.369 135.714 120.462C135.473 120.555 135.215 120.595 134.958 120.578C134.7 120.562 134.45 120.49 134.223 120.367C133.734 120.106 133.356 119.678 133.158 119.161C132.959 118.645 132.953 118.073 133.142 117.553C133.227 117.309 133.364 117.087 133.544 116.902C133.723 116.717 133.941 116.573 134.181 116.48C134.422 116.387 134.679 116.348 134.937 116.364C135.194 116.381 135.445 116.453 135.672 116.576Z" fill="#80B5FF"/>
    <path d="M135.256 117.664L171.282 136.55L171.067 137.112L134.639 119.286L135.256 117.664Z" fill="#80B5FF"/>
    <defs>
        <linearGradient id="paint0_linear_391_1506" x1="118.256" y1="15.2337" x2="118.256" y2="226.308" gradientUnits="userSpaceOnUse">
            <stop stop-color="white" stop-opacity="0"/>
            <stop offset="1" stop-color="#1E66CA"/>
        </linearGradient>
        <linearGradient id="paint1_linear_391_1506" x1="32.3991" y1="173.951" x2="32.3991" y2="185.441" gradientUnits="userSpaceOnUse">
            <stop stop-color="white" stop-opacity="0"/>
            <stop offset="1" stop-color="#1E66CA"/>
        </linearGradient>
        <linearGradient id="paint2_linear_391_1506" x1="78.9806" y1="52.5036" x2="78.9806" y2="61.6958" gradientUnits="userSpaceOnUse">
            <stop stop-color="white" stop-opacity="0"/>
            <stop offset="1" stop-color="#1E66CA"/>
        </linearGradient>
        <linearGradient id="paint3_linear_391_1506" x1="78.9806" y1="52.5036" x2="78.9806" y2="61.6958" gradientUnits="userSpaceOnUse">
            <stop stop-color="#4379F0"/>
            <stop offset="1" stop-color="#4379F0" stop-opacity="0"/>
        </linearGradient>
        <linearGradient id="paint4_linear_391_1506" x1="182.573" y1="194.634" x2="182.573" y2="209.483" gradientUnits="userSpaceOnUse">
            <stop stop-color="white" stop-opacity="0"/>
            <stop offset="1" stop-color="#1E66CA"/>
        </linearGradient>
        <linearGradient id="paint5_linear_391_1506" x1="172.352" y1="73.065" x2="177.522" y2="82.0207" gradientUnits="userSpaceOnUse">
            <stop stop-color="#4479F0"/>
            <stop offset="1" stop-color="#4479F0" stop-opacity="0"/>
        </linearGradient>
        <linearGradient id="paint6_linear_391_1506" x1="172.352" y1="73.065" x2="177.522" y2="82.0207" gradientUnits="userSpaceOnUse">
            <stop stop-color="#033403"/>
            <stop offset="1" stop-color="white"/>
        </linearGradient>
    </defs>
</svg>
