<svg width="32" height="32" viewBox="0 0 32 32" fill="none" xmlns="http://www.w3.org/2000/svg">
    <path d="M21.3718 3.17944H10.6282C5.96154 3.17944 3.17949 5.96149 3.17949 10.6282V21.3589C3.17949 26.0384 5.96154 28.8205 10.6282 28.8205H21.359C26.0256 28.8205 28.8077 26.0384 28.8077 21.3717V10.6282C28.8205 5.96149 26.0385 3.17944 21.3718 3.17944ZM21.1282 16.9615H16.9615V21.1282C16.9615 21.6538 16.5256 22.0897 16 22.0897C15.4744 22.0897 15.0385 21.6538 15.0385 21.1282V16.9615H10.8718C10.3462 16.9615 9.91026 16.5256 9.91026 16C9.91026 15.4743 10.3462 15.0384 10.8718 15.0384H15.0385V10.8718C15.0385 10.3461 15.4744 9.91021 16 9.91021C16.5256 9.91021 16.9615 10.3461 16.9615 10.8718V15.0384H21.1282C21.6538 15.0384 22.0897 15.4743 22.0897 16C22.0897 16.5256 21.6538 16.9615 21.1282 16.9615Z" fill="white"/>
</svg>
