<svg width="24" height="24" viewBox="0 0 24 24" fill="none" xmlns="http://www.w3.org/2000/svg">
    <path d="M3 10C3 6.229 3 4.343 4.172 3.172C5.343 2 7.229 2 11 2H13C16.771 2 18.657 2 19.828 3.172C21 4.343 21 6.229 21 10V14C21 17.771 21 19.657 19.828 20.828C18.657 22 16.771 22 13 22H11C7.229 22 5.343 22 4.172 20.828C3 19.657 3 17.771 3 14V10Z" fill="#2C2C2C"/>
    <path fill-rule="evenodd" clip-rule="evenodd" d="M7.25 9C7.25 8.80109 7.32902 8.61032 7.46967 8.46967C7.61032 8.32902 7.80109 8.25 8 8.25H14.5C14.6989 8.25 14.8897 8.32902 15.0303 8.46967C15.171 8.61032 15.25 8.80109 15.25 9C15.25 9.19891 15.171 9.38968 15.0303 9.53033C14.8897 9.67098 14.6989 9.75 14.5 9.75H8C7.80109 9.75 7.61032 9.67098 7.46967 9.53033C7.32902 9.38968 7.25 9.19891 7.25 9ZM7.25 13C7.25 12.8011 7.32902 12.6103 7.46967 12.4697C7.61032 12.329 7.80109 12.25 8 12.25H11C11.1989 12.25 11.3897 12.329 11.5303 12.4697C11.671 12.6103 11.75 12.8011 11.75 13C11.75 13.1989 11.671 13.3897 11.5303 13.5303C11.3897 13.671 11.1989 13.75 11 13.75H8C7.80109 13.75 7.61032 13.671 7.46967 13.5303C7.32902 13.3897 7.25 13.1989 7.25 13ZM7.25 17C7.25 16.8011 7.32902 16.6103 7.46967 16.4697C7.61032 16.329 7.80109 16.25 8 16.25H9.5C9.69891 16.25 9.88968 16.329 10.0303 16.4697C10.171 16.6103 10.25 16.8011 10.25 17C10.25 17.1989 10.171 17.3897 10.0303 17.5303C9.88968 17.671 9.69891 17.75 9.5 17.75H8C7.80109 17.75 7.61032 17.671 7.46967 17.5303C7.32902 17.3897 7.25 17.1989 7.25 17Z" fill="white"/>
</svg>
