<svg width="20" height="20" viewBox="0 0 20 20" fill="none" xmlns="http://www.w3.org/2000/svg">
    <g clip-path="url(#clip0_9_752)">
        <path d="M15.4504 10.5668C15.4419 8.98887 16.146 7.7979 17.5712 6.9208C16.7738 5.76423 15.5691 5.1279 13.9785 5.00321C12.4727 4.88283 10.8269 5.89321 10.2246 5.89321C9.58837 5.89321 8.12923 5.04621 6.98398 5.04621C4.61712 5.08491 2.10181 6.9595 2.10181 10.7732C2.10181 11.8996 2.30541 13.0634 2.71261 14.2644C3.25554 15.8423 5.2152 19.7119 7.25969 19.6474C8.32859 19.6216 9.08361 18.8778 10.4749 18.8778C11.8237 18.8778 12.5236 19.6474 13.7155 19.6474C15.777 19.6173 17.55 16.1003 18.0675 14.518C15.3019 13.1981 15.4504 10.6485 15.4504 10.5668ZM13.0496 3.50698C14.2076 2.11394 14.1015 0.84558 14.0676 0.389832C13.0453 0.450025 11.8619 1.09495 11.1875 1.89036C10.4452 2.74167 10.0083 3.79505 10.1016 4.98172C11.2087 5.06771 12.2182 4.49157 13.0496 3.50698Z" fill="black"/>
    </g>
    <defs>
        <clipPath id="clip0_9_752">
            <rect width="19.322" height="19.322" fill="white" transform="translate(0.169678 0.389832)"/>
        </clipPath>
    </defs>
</svg>
