<svg width="28" height="28" viewBox="0 0 28 28" fill="none" xmlns="http://www.w3.org/2000/svg">
    <g clip-path="url(#clip0_209_10109)">
        <path fill-rule="evenodd" clip-rule="evenodd" d="M14.8244 18.3249C14.6056 18.5436 14.3089 18.6665 13.9996 18.6665C13.6902 18.6665 13.3935 18.5436 13.1748 18.3249L6.57492 11.7251C6.46349 11.6175 6.37461 11.4887 6.31347 11.3464C6.25232 11.204 6.22014 11.051 6.21879 10.896C6.21745 10.7411 6.24697 10.5875 6.30563 10.4441C6.36429 10.3007 6.45092 10.1705 6.56046 10.0609C6.67 9.95141 6.80026 9.86478 6.94364 9.80612C7.08702 9.74745 7.24065 9.71794 7.39555 9.71928C7.55046 9.72063 7.70355 9.75281 7.84589 9.81396C7.98823 9.8751 8.11697 9.96398 8.22459 10.0754L13.9996 15.8504L19.7746 10.0754C19.9946 9.86289 20.2893 9.7453 20.5952 9.74795C20.9011 9.75061 21.1937 9.87331 21.41 10.0896C21.6264 10.3059 21.749 10.5985 21.7517 10.9044C21.7544 11.2103 21.6368 11.505 21.4243 11.7251L14.8244 18.3249Z" fill="#ACACAC"/>
    </g>
    <defs>
        <clipPath id="clip0_209_10109">
            <rect width="28" height="28" fill="white"/>
        </clipPath>
    </defs>
</svg>
