<svg width="25" height="25" viewBox="0 0 25 25" fill="none" xmlns="http://www.w3.org/2000/svg">
    <path fill-rule="evenodd" clip-rule="evenodd" d="M21.9786 8.33766C21.9214 8.3335 21.8578 8.3335 21.7911 8.3335H19.1609C17.0068 8.3335 15.1641 10.0293 15.1641 12.2397C15.1641 14.4502 17.0078 16.146 19.1609 16.146H21.7911C21.8578 16.146 21.9214 16.146 21.9807 16.1418C22.4235 16.1151 22.8414 15.9284 23.1566 15.6164C23.4719 15.3044 23.663 14.8884 23.6943 14.446C23.6984 14.3835 23.6984 14.3158 23.6984 14.2533V10.2262C23.6984 10.1637 23.6984 10.096 23.6943 10.0335C23.663 9.59106 23.4719 9.17509 23.1566 8.8631C22.8414 8.5511 22.4235 8.36436 21.9807 8.33766M18.9307 13.2814C19.4849 13.2814 19.9339 12.8147 19.9339 12.2397C19.9339 11.6647 19.4849 11.1981 18.9307 11.1981C18.3755 11.1981 17.9266 11.6647 17.9266 12.2397C17.9266 12.8147 18.3755 13.2814 18.9307 13.2814Z" fill="#1E66CA"/>
    <path fill-rule="evenodd" clip-rule="evenodd" d="M21.7893 17.7083C21.8253 17.7069 21.8611 17.714 21.8939 17.729C21.9267 17.744 21.9554 17.7665 21.9778 17.7947C22.0003 17.8229 22.0157 17.856 22.023 17.8913C22.0302 17.9266 22.029 17.9632 22.0195 17.9979C21.8111 18.7396 21.4788 19.3729 20.9465 19.9042C20.1663 20.6854 19.1778 21.0302 17.957 21.1948C16.7695 21.3542 15.2538 21.3542 13.3393 21.3542H11.1393C9.22467 21.3542 7.70801 21.3542 6.52155 21.1948C5.30072 21.0302 4.31217 20.6844 3.53197 19.9052C2.7528 19.125 2.40697 18.1365 2.24238 16.9156C2.08301 15.7281 2.08301 14.2125 2.08301 12.2979V12.1812C2.08301 10.2667 2.08301 8.75 2.24238 7.5625C2.40697 6.34167 2.7528 5.35312 3.53197 4.57292C4.31217 3.79375 5.30072 3.44792 6.52155 3.28333C7.70905 3.125 9.22467 3.125 11.1393 3.125H13.3393C15.2538 3.125 16.7705 3.125 17.957 3.28438C19.1778 3.44896 20.1663 3.79479 20.9465 4.57396C21.4788 5.10729 21.8111 5.73958 22.0195 6.48125C22.029 6.51601 22.0302 6.55252 22.023 6.58783C22.0157 6.62314 22.0003 6.65625 21.9778 6.68446C21.9554 6.71267 21.9267 6.7352 21.8939 6.7502C21.8611 6.76521 21.8253 6.77228 21.7893 6.77083H19.1601C16.2049 6.77083 13.6007 9.10417 13.6007 12.2396C13.6007 15.375 16.2049 17.7083 19.1601 17.7083H21.7893ZM5.98926 7.29167C5.78206 7.29167 5.58334 7.37398 5.43683 7.52049C5.29032 7.667 5.20801 7.86572 5.20801 8.07292C5.20801 8.28012 5.29032 8.47883 5.43683 8.62534C5.58334 8.77186 5.78206 8.85417 5.98926 8.85417H10.1559C10.3631 8.85417 10.5618 8.77186 10.7084 8.62534C10.8549 8.47883 10.9372 8.28012 10.9372 8.07292C10.9372 7.86572 10.8549 7.667 10.7084 7.52049C10.5618 7.37398 10.3631 7.29167 10.1559 7.29167H5.98926Z" fill="#1E66CA"/>
</svg>
