<svg width="38" height="38" viewBox="0 0 38 38" fill="none" xmlns="http://www.w3.org/2000/svg">
    <path d="M4.75 15.8333C4.75 9.86254 4.75 6.87638 6.60567 5.02229C8.45975 3.16663 11.4459 3.16663 17.4167 3.16663H20.5833C26.5541 3.16663 29.5402 3.16663 31.3943 5.02229C33.25 6.87638 33.25 9.86254 33.25 15.8333V22.1666C33.25 28.1374 33.25 31.1235 31.3943 32.9776C29.5402 34.8333 26.5541 34.8333 20.5833 34.8333H17.4167C11.4459 34.8333 8.45975 34.8333 6.60567 32.9776C4.75 31.1235 4.75 28.1374 4.75 22.1666V15.8333Z" fill="#00A967"/>
    <path d="M36.9398 29.7508C36.9398 32.8414 34.4254 35.3558 31.3348 35.3558C28.2443 35.3558 25.7298 32.8414 25.7298 29.7508C25.7298 26.6603 28.2443 24.1458 31.3348 24.1458C34.4254 24.1458 36.9398 26.6603 36.9398 29.7508Z" fill="#00A967" stroke="white" stroke-width="0.791667"/>
    <path d="M33.5637 27.1104C33.4574 27.0512 33.3404 27.0136 33.2195 26.9996C33.0987 26.9857 32.9762 26.9957 32.8592 27.0291C32.7422 27.0626 32.6329 27.1187 32.5376 27.1944C32.4423 27.2701 32.3629 27.3639 32.3038 27.4703L30.5839 30.5654L29.5996 29.5811C29.5142 29.4926 29.4119 29.4221 29.2989 29.3735C29.1859 29.325 29.0643 29.2994 28.9413 29.2983C28.8183 29.2973 28.6963 29.3207 28.5825 29.3673C28.4686 29.4139 28.3652 29.4826 28.2782 29.5696C28.1912 29.6566 28.1224 29.7601 28.0758 29.8739C28.0292 29.9878 28.0058 30.1097 28.0069 30.2328C28.0079 30.3558 28.0335 30.4773 28.082 30.5904C28.1306 30.7034 28.2012 30.8056 28.2897 30.8911L30.1425 32.7439C30.3176 32.9195 30.5538 33.0158 30.7975 33.0158L30.9258 33.0065C31.0678 32.9867 31.2032 32.9341 31.3215 32.853C31.4397 32.7719 31.5375 32.6645 31.6072 32.5392L33.9232 28.3703C33.9823 28.264 34.0199 28.147 34.0339 28.0262C34.0478 27.9053 34.0378 27.7829 34.0044 27.6659C33.971 27.5489 33.915 27.4396 33.8393 27.3443C33.7637 27.249 33.6701 27.1695 33.5637 27.1104Z" fill="white"/>
    <path fill-rule="evenodd" clip-rule="evenodd" d="M11.4795 14.25C11.4795 13.9351 11.6046 13.633 11.8273 13.4103C12.05 13.1876 12.352 13.0625 12.667 13.0625H22.9587C23.2736 13.0625 23.5756 13.1876 23.7983 13.4103C24.021 13.633 24.1462 13.9351 24.1462 14.25C24.1462 14.5649 24.021 14.867 23.7983 15.0897C23.5756 15.3124 23.2736 15.4375 22.9587 15.4375H12.667C12.352 15.4375 12.05 15.3124 11.8273 15.0897C11.6046 14.867 11.4795 14.5649 11.4795 14.25ZM11.4795 20.5833C11.4795 20.2684 11.6046 19.9663 11.8273 19.7436C12.05 19.5209 12.352 19.3958 12.667 19.3958H17.417C17.7319 19.3958 18.034 19.5209 18.2567 19.7436C18.4794 19.9663 18.6045 20.2684 18.6045 20.5833C18.6045 20.8983 18.4794 21.2003 18.2567 21.423C18.034 21.6457 17.7319 21.7708 17.417 21.7708H12.667C12.352 21.7708 12.05 21.6457 11.8273 21.423C11.6046 21.2003 11.4795 20.8983 11.4795 20.5833ZM11.4795 26.9167C11.4795 26.6017 11.6046 26.2997 11.8273 26.077C12.05 25.8543 12.352 25.7292 12.667 25.7292H15.042C15.3569 25.7292 15.659 25.8543 15.8817 26.077C16.1044 26.2997 16.2295 26.6017 16.2295 26.9167C16.2295 27.2316 16.1044 27.5337 15.8817 27.7564C15.659 27.9791 15.3569 28.1042 15.042 28.1042H12.667C12.352 28.1042 12.05 27.9791 11.8273 27.7564C11.6046 27.5337 11.4795 27.2316 11.4795 26.9167Z" fill="white"/>
</svg>
