<svg width="25" height="24" viewBox="0 0 25 24" fill="none" xmlns="http://www.w3.org/2000/svg">
    <path d="M12.4871 22.95C12.2038 22.95 11.9664 22.8543 11.7751 22.663C11.5831 22.471 11.4871 22.2333 11.4871 21.95V20.95C9.40378 20.7167 7.61644 19.8543 6.12511 18.363C4.63311 16.871 3.77044 15.0833 3.53711 13H2.53711C2.25378 13 2.01611 12.904 1.82411 12.712C1.63278 12.5207 1.53711 12.2833 1.53711 12C1.53711 11.7167 1.63278 11.479 1.82411 11.287C2.01611 11.0957 2.25378 11 2.53711 11H3.53711C3.77044 8.91665 4.63311 7.12899 6.12511 5.63699C7.61644 4.14565 9.40378 3.28332 11.4871 3.04999V2.04999C11.4871 1.76665 11.5831 1.52899 11.7751 1.33699C11.9664 1.14565 12.2038 1.04999 12.4871 1.04999C12.7704 1.04999 13.0081 1.14565 13.2001 1.33699C13.3914 1.52899 13.4871 1.76665 13.4871 2.04999V3.04999C15.5704 3.28332 17.3581 4.14565 18.8501 5.63699C20.3414 7.12899 21.2038 8.91665 21.4371 11H22.4371C22.7204 11 22.9581 11.0957 23.1501 11.287C23.3414 11.479 23.4371 11.7167 23.4371 12C23.4371 12.2833 23.3414 12.5207 23.1501 12.712C22.9581 12.904 22.7204 13 22.4371 13H21.4371C21.2038 15.0833 20.3414 16.871 18.8501 18.363C17.3581 19.8543 15.5704 20.7167 13.4871 20.95V21.95C13.4871 22.2333 13.3914 22.471 13.2001 22.663C13.0081 22.8543 12.7704 22.95 12.4871 22.95ZM12.4871 19C14.4204 19 16.0704 18.3167 17.4371 16.95C18.8038 15.5833 19.4871 13.9333 19.4871 12C19.4871 10.0667 18.8038 8.41665 17.4371 7.04999C16.0704 5.68332 14.4204 4.99999 12.4871 4.99999C10.5538 4.99999 8.90378 5.68332 7.53711 7.04999C6.17044 8.41665 5.48711 10.0667 5.48711 12C5.48711 13.9333 6.17044 15.5833 7.53711 16.95C8.90378 18.3167 10.5538 19 12.4871 19ZM12.4871 16C11.3871 16 10.4454 15.6083 9.66211 14.825C8.87878 14.0417 8.48711 13.1 8.48711 12C8.48711 10.9 8.87878 9.95832 9.66211 9.17499C10.4454 8.39165 11.3871 7.99999 12.4871 7.99999C13.5871 7.99999 14.5288 8.39165 15.3121 9.17499C16.0954 9.95832 16.4871 10.9 16.4871 12C16.4871 13.1 16.0954 14.0417 15.3121 14.825C14.5288 15.6083 13.5871 16 12.4871 16Z" fill="#1E66CA"/>
</svg>
