<svg width="20" height="22" viewBox="0 0 20 22" fill="none" xmlns="http://www.w3.org/2000/svg">
    <path d="M7.85725 4.1428H12.143C12.143 3.57448 11.9172 3.02944 11.5153 2.62758C11.1135 2.22571 10.5684 1.99995 10.0001 1.99995C9.43178 1.99995 8.88674 2.22571 8.48488 2.62758C8.08301 3.02944 7.85725 3.57448 7.85725 4.1428ZM6.57153 4.1428C6.57153 3.23349 6.93276 2.36142 7.57574 1.71844C8.21872 1.07546 9.09079 0.714233 10.0001 0.714233C10.9094 0.714233 11.7815 1.07546 12.4245 1.71844C13.0675 2.36142 13.4287 3.23349 13.4287 4.1428H18.7858C18.9563 4.1428 19.1198 4.21053 19.2404 4.33109C19.3609 4.45165 19.4287 4.61517 19.4287 4.78566C19.4287 4.95616 19.3609 5.11967 19.2404 5.24023C19.1198 5.36079 18.9563 5.42852 18.7858 5.42852H17.663L16.6198 17.9454C16.5439 18.8559 16.1286 19.7047 15.4562 20.3234C14.7839 20.9422 13.9035 21.2856 12.9898 21.2857H7.01039C6.09667 21.2856 5.21634 20.9422 4.54397 20.3234C3.87159 19.7047 3.45628 18.8559 3.38039 17.9454L2.33725 5.42852H1.21439C1.04389 5.42852 0.880381 5.36079 0.759822 5.24023C0.639263 5.11967 0.571533 4.95616 0.571533 4.78566C0.571533 4.61517 0.639263 4.45165 0.759822 4.33109C0.880381 4.21053 1.04389 4.1428 1.21439 4.1428H6.57153ZM8.71439 9.07138C8.71439 8.90088 8.64666 8.73737 8.5261 8.61681C8.40554 8.49625 8.24203 8.42852 8.07153 8.42852C7.90104 8.42852 7.73752 8.49625 7.61696 8.61681C7.49641 8.73737 7.42868 8.90088 7.42868 9.07138V16.3571C7.42868 16.5276 7.49641 16.6911 7.61696 16.8117C7.73752 16.9322 7.90104 16.9999 8.07153 16.9999C8.24203 16.9999 8.40554 16.9322 8.5261 16.8117C8.64666 16.6911 8.71439 16.5276 8.71439 16.3571V9.07138ZM11.9287 8.42852C11.7582 8.42852 11.5947 8.49625 11.4741 8.61681C11.3535 8.73737 11.2858 8.90088 11.2858 9.07138V16.3571C11.2858 16.5276 11.3535 16.6911 11.4741 16.8117C11.5947 16.9322 11.7582 16.9999 11.9287 16.9999C12.0992 16.9999 12.2627 16.9322 12.3832 16.8117C12.5038 16.6911 12.5715 16.5276 12.5715 16.3571V9.07138C12.5715 8.90088 12.5038 8.73737 12.3832 8.61681C12.2627 8.49625 12.0992 8.42852 11.9287 8.42852Z" fill="#FF5E3A"/>
</svg>
