<svg width="31" height="31" viewBox="0 0 31 31" fill="none" xmlns="http://www.w3.org/2000/svg">
    <g opacity="0.5">
        <path fill-rule="evenodd" clip-rule="evenodd" d="M9.68749 6.13542C9.68749 5.85319 12.6041 3.875 15.5 3.875C18.3959 3.875 21.3125 5.85319 21.3125 6.13542C21.3125 7.14292 21.2053 7.73967 21.1149 8.06452C21.0548 8.27765 20.8552 8.39583 20.6337 8.39583H10.3663C10.1447 8.39583 9.94518 8.27765 9.88512 8.06452C9.7947 7.73967 9.68749 7.14292 9.68749 6.13542ZM14.5312 5.8125C14.36 5.8125 14.1957 5.88054 14.0746 6.00166C13.9535 6.12278 13.8854 6.28705 13.8854 6.45833C13.8854 6.62962 13.9535 6.79389 14.0746 6.91501C14.1957 7.03612 14.36 7.10417 14.5312 7.10417H16.4687C16.64 7.10417 16.8043 7.03612 16.9254 6.91501C17.0465 6.79389 17.1146 6.62962 17.1146 6.45833C17.1146 6.28705 17.0465 6.12278 16.9254 6.00166C16.8043 5.88054 16.64 5.8125 16.4687 5.8125H14.5312ZM10.3579 12.4116C8.20724 11.7464 8.74974 10.5581 9.56995 9.6875H21.6096C22.2657 10.5258 22.6177 11.6566 20.6344 12.3335C20.7154 13.053 20.6444 13.7814 20.4258 14.4717C20.2072 15.1619 19.846 15.7985 19.3656 16.3402C18.8852 16.8819 18.2963 17.3165 17.6371 17.616C16.9779 17.9155 16.2632 18.073 15.5392 18.0785C14.8151 18.0839 14.0981 17.9372 13.4344 17.6477C12.7708 17.3582 12.1754 16.9325 11.6869 16.3981C11.1984 15.8637 10.8276 15.2327 10.5987 14.5458C10.3697 13.8589 10.2877 13.1316 10.3579 12.411M15.3243 12.916C17.0306 12.916 18.3533 12.8256 19.3672 12.668C19.4006 13.1946 19.326 13.7224 19.1482 14.2191C18.9703 14.7159 18.6929 15.171 18.3329 15.5567C17.9729 15.9425 17.5379 16.2506 17.0546 16.4623C16.5713 16.674 16.0499 16.7847 15.5223 16.7878C14.9947 16.7908 14.472 16.6861 13.9863 16.48C13.5006 16.2739 13.0622 15.9708 12.6977 15.5892C12.3333 15.2077 12.0507 14.7557 11.8671 14.2611C11.6835 13.7664 11.6029 13.2395 11.6302 12.7126C12.575 12.843 13.786 12.916 15.3243 12.916ZM20.936 22.3458C20.3518 21.4344 19.5477 20.6846 18.5978 20.1655C17.6478 19.6463 16.5825 19.3745 15.5 19.375C14.417 19.3743 13.3512 19.6462 12.4009 20.1656C11.4506 20.685 10.6463 21.4352 10.0621 22.3471C9.84526 22.0132 9.51227 21.7716 9.12756 21.669L7.87981 21.3351C7.46624 21.2242 7.02556 21.2822 6.65471 21.4962C6.28386 21.7102 6.0132 22.0627 5.90226 22.4763L5.4011 24.3479C5.34621 24.5527 5.3322 24.7664 5.35988 24.9766C5.38756 25.1868 5.45638 25.3896 5.56241 25.5732C5.66844 25.7568 5.80961 25.9178 5.97785 26.0469C6.14609 26.1759 6.3381 26.2706 6.54293 26.3255L7.79003 26.66C7.9998 26.7165 8.21884 26.73 8.43395 26.6995C8.64905 26.6691 8.85578 26.5955 9.04166 26.483C9.04217 26.6543 9.11071 26.8184 9.23219 26.9391C9.35367 27.0599 9.51815 27.1274 9.68943 27.1269C9.86072 27.1264 10.0248 27.0579 10.1455 26.9364C10.2663 26.8149 10.3338 26.6505 10.3333 26.4792V25.8333C10.3333 25.5873 10.3508 25.3451 10.3837 25.1081L13.7446 26.009C13.9006 26.3429 14.1486 26.6254 14.4596 26.8233C14.7705 27.0213 15.1314 27.1264 15.5 27.1264C15.8686 27.1264 16.2295 27.0213 16.5404 26.8233C16.8513 26.6254 17.0994 26.3429 17.2554 26.009L20.6163 25.1081C20.6492 25.3451 20.6667 25.5873 20.6667 25.8333V26.4792C20.6658 26.6505 20.733 26.8151 20.8535 26.9368C20.974 27.0585 21.138 27.1274 21.3093 27.1282C21.4805 27.1291 21.6452 27.0619 21.7669 26.9414C21.8886 26.8208 21.9575 26.6569 21.9583 26.4856C22.32 26.7026 22.7669 26.7782 23.2067 26.66L24.4545 26.3261C24.6593 26.2712 24.8513 26.1766 25.0196 26.0475C25.1878 25.9184 25.329 25.7575 25.435 25.5738C25.541 25.3902 25.6098 25.1875 25.6375 24.9772C25.6652 24.767 25.6512 24.5534 25.5963 24.3486L25.0945 22.4769C24.9836 22.0634 24.7129 21.7108 24.342 21.4968C23.9712 21.2828 23.5305 21.2249 23.1169 21.3357L21.8692 21.6696C21.4854 21.7718 21.1529 22.0131 20.936 22.3458ZM10.7228 23.861C11.0717 23.0173 11.6378 22.2811 12.3634 21.7271C13.089 21.1731 13.9484 20.821 14.8542 20.7067V23.3604C14.5647 23.4631 14.3038 23.6329 14.0927 23.856C13.8816 24.0791 13.7265 24.349 13.64 24.6437L10.7228 23.861ZM20.2772 23.861C19.9282 23.0174 19.3621 22.2812 18.6365 21.7272C17.9109 21.1732 17.0516 20.8211 16.1458 20.7067V23.3604C16.7297 23.5671 17.1856 24.045 17.36 24.6437L20.2772 23.861ZM15.5 25.8333C15.6713 25.8333 15.8355 25.7653 15.9567 25.6442C16.0778 25.5231 16.1458 25.3588 16.1458 25.1875C16.1458 25.0162 16.0778 24.8519 15.9567 24.7308C15.8355 24.6097 15.6713 24.5417 15.5 24.5417C15.3287 24.5417 15.1644 24.6097 15.0433 24.7308C14.9222 24.8519 14.8542 25.0162 14.8542 25.1875C14.8542 25.3588 14.9222 25.5231 15.0433 25.6442C15.1644 25.7653 15.3287 25.8333 15.5 25.8333Z" fill="#1E66CA"/>
    </g>
</svg>
