<!-- icon666.com - MILLIONS vector ICONS FREE --><svg id="Layer_1" enable-background="new 0 0 512 512" viewBox="0 0 512 512" xmlns="http://www.w3.org/2000/svg"><path clip-rule="evenodd" d="m53.018 345.163h44.83c5.508 0 10 4.493 10 10v114.373h55.549v-179.536c0-5.508 4.492-10 10-10h44.831c5.508 0 10 4.492 10 10v179.535h55.549v-247.579c0-5.507 4.493-10 10-10h44.83c5.507 0 10 4.492 10 10v247.579h55.546v-308.79c0-5.508 4.492-10 10-10h44.831c5.508 0 10 4.493 10 10v308.79h21.775c5.508 0 10 4.492 10 10v14.465c0 5.508-4.492 10-10 10h-469.515c-5.508 0-10-4.492-10-10v-14.465c0-5.508 4.492-10 10-10h21.775v-114.372c-.001-5.508 4.491-10 9.999-10zm51.416-337.163c-51.467 0-93.19 41.723-93.19 93.19s41.723 93.19 93.19 93.19 93.19-41.723 93.19-93.19-41.723-93.19-93.19-93.19zm-69.549 93.19c0 19.206 7.785 36.594 20.37 49.179s29.973 20.37 49.179 20.37 36.594-7.785 49.179-20.37 20.37-29.973 20.37-49.179-7.785-36.594-20.37-49.179-29.973-20.37-49.179-20.37-36.594 7.784-49.179 20.37c-12.586 12.585-20.37 29.973-20.37 49.179zm46.601-43.833c-6.641 5.399-10.852 13.239-10.378 23.014.477 9.819 5.377 16.406 12.2 20.861 5.954 3.887 13.268 5.897 20.014 7.005 5.432.891 11.231 2.302 15.64 4.964 3.537 2.135 6.194 5.257 6.762 9.935.075.621.116 1.074.122 1.364.089 3.726-1.693 6.565-4.368 8.595-3.339 2.533-8.024 4.026-12.709 4.595-1.272.154-2.386.242-3.33.264-5.547.132-11.021-1.226-15.297-4.074-3.515-2.341-6.201-5.766-7.322-10.265-.986-4.007-5.032-6.455-9.039-5.47-4.006.985-6.455 5.032-5.47 9.038 2.105 8.444 7.083 14.829 13.582 19.157 4.457 2.968 9.636 4.926 15.058 5.875v5.927c0 4.135 3.353 7.488 7.488 7.488s7.488-3.353 7.488-7.488v-5.785c6.583-.995 13.295-3.393 18.56-7.388 6.303-4.783 10.497-11.631 10.277-20.821-.025-1.051-.085-1.977-.181-2.769-1.223-10.073-6.673-16.629-13.899-20.992-6.354-3.836-13.976-5.747-20.964-6.895-5.054-.829-10.378-2.235-14.28-4.782-3.034-1.981-5.21-4.849-5.414-9.043-.22-4.535 1.759-8.193 4.878-10.729 2.439-1.983 5.55-3.361 8.922-4.04 3.461-.697 7.177-.643 10.728.257 5.64 1.429 10.775 5.147 13.479 11.587 1.599 3.812 5.987 5.606 9.799 4.007s5.606-5.986 4.007-9.799c-4.734-11.277-13.749-17.792-23.658-20.304-.746-.189-1.498-.354-2.254-.497v-5.917c0-4.135-3.353-7.488-7.488-7.488-4.136 0-7.488 3.353-7.488 7.488v6.029l-.049.01c-5.72 1.155-11.09 3.568-15.416 7.086zm108.497 43.833c0-23.623-9.576-45.01-25.057-60.492-15.482-15.481-36.869-25.057-60.492-25.057-23.622 0-45.01 9.576-60.492 25.057-15.481 15.482-25.057 36.869-25.057 60.492s9.576 45.01 25.057 60.492c15.482 15.481 36.869 25.057 60.492 25.057s45.01-9.576 60.492-25.057c15.481-15.482 25.057-36.869 25.057-60.492zm-161.164 200.107c71.537-24.913 145.239-56.928 218.182-98.503 68.439-39.008 136.197-86.411 200.861-144.232l-4.268 29.313c-.621 4.366 2.415 8.41 6.781 9.031s8.41-2.415 9.031-6.781l7.482-51.381-.006-.001c.07-.498.095-1.009.068-1.53-.224-4.401-3.974-7.787-8.375-7.563l-51.847 2.814c-4.401.224-7.787 3.974-7.563 8.375s3.974 7.787 8.375 7.563l29.52-1.602c-63.756 56.989-130.523 103.698-197.935 142.12-72.06 41.071-144.875 72.701-215.557 97.316-4.159 1.45-6.356 5.997-4.906 10.156 1.451 4.158 5.998 6.355 10.157 4.905z" fill-rule="evenodd"></path></svg>