<svg width="25" height="25" viewBox="0 0 25 25" fill="none" xmlns="http://www.w3.org/2000/svg">
    <path d="M18.4 10.1562L18.1891 10.0813L16.4156 6.75625C16.0825 6.13139 15.5859 5.60883 14.9787 5.24444C14.3716 4.88005 13.6768 4.68754 12.9688 4.6875H8.50312C7.68308 4.68747 6.88383 4.94551 6.21863 5.42506C5.55342 5.90462 5.05601 6.58135 4.79688 7.35938L3.95156 9.89531C3.24337 10.1938 2.63895 10.6946 2.214 11.3349C1.78904 11.9753 1.56242 12.7268 1.5625 13.4953V15.2344C1.5625 16.3438 2.22344 17.2969 3.17188 17.7266C3.2947 18.4303 3.65491 19.0707 4.19252 19.5411C4.73012 20.0115 5.41267 20.2835 6.12646 20.3118C6.84025 20.3401 7.5422 20.123 8.11538 19.6967C8.68856 19.2704 9.09838 18.6605 9.27656 17.9688H15.7234C15.9016 18.6605 16.3114 19.2704 16.8846 19.6967C17.4578 20.123 18.1597 20.3401 18.8735 20.3118C19.5873 20.2835 20.2699 20.0115 20.8075 19.5411C21.3451 19.0707 21.7053 18.4303 21.8281 17.7266C22.3077 17.5101 22.7147 17.1598 23.0002 16.7177C23.2856 16.2756 23.4375 15.7606 23.4375 15.2344V14.7047C23.4374 13.8983 23.1877 13.1117 22.7228 12.4529C22.2578 11.7941 21.6003 11.2953 20.8406 11.025L18.4813 10.1859V10.1562H18.4ZM6.27656 7.85313C6.43219 7.38586 6.73107 6.97949 7.13075 6.69171C7.53044 6.40394 8.01062 6.24939 8.50312 6.25H10.1562V10.1562H5.51094L6.27656 7.85313ZM16.4578 10.1562H11.7188V6.25H12.9688C13.3936 6.24985 13.8106 6.36521 14.175 6.58373C14.5394 6.80226 14.8375 7.11573 15.0375 7.49063L16.4578 10.1562ZM4.6875 17.1875C4.6875 16.7731 4.85212 16.3757 5.14515 16.0826C5.43817 15.7896 5.8356 15.625 6.25 15.625C6.6644 15.625 7.06183 15.7896 7.35485 16.0826C7.64788 16.3757 7.8125 16.7731 7.8125 17.1875C7.8125 17.6019 7.64788 17.9993 7.35485 18.2924C7.06183 18.5854 6.6644 18.75 6.25 18.75C5.8356 18.75 5.43817 18.5854 5.14515 18.2924C4.85212 17.9993 4.6875 17.6019 4.6875 17.1875ZM18.75 15.625C19.1644 15.625 19.5618 15.7896 19.8549 16.0826C20.1479 16.3757 20.3125 16.7731 20.3125 17.1875C20.3125 17.6019 20.1479 17.9993 19.8549 18.2924C19.5618 18.5854 19.1644 18.75 18.75 18.75C18.3356 18.75 17.9382 18.5854 17.6451 18.2924C17.3521 17.9993 17.1875 17.6019 17.1875 17.1875C17.1875 16.7731 17.3521 16.3757 17.6451 16.0826C17.9382 15.7896 18.3356 15.625 18.75 15.625Z" fill="#1E66CA"/>
</svg>
