<svg width="16" height="14" viewBox="0 0 16 14" fill="none" xmlns="http://www.w3.org/2000/svg">
    <path d="M11.3429 0.692383C9.89184 0.692383 8.65192 1.72669 7.97069 2.43977C7.28946 1.72669 6.05231 0.692383 4.60192 0.692383C2.102 0.692383 0.356689 2.43492 0.356689 4.92931C0.356689 7.67777 2.5243 9.45423 4.6213 11.1725C5.6113 11.9846 6.63592 12.8237 7.42169 13.7542C7.55392 13.9099 7.74777 13.9999 7.95131 13.9999H7.99146C8.19569 13.9999 8.38884 13.9092 8.52038 13.7542C9.30754 12.8237 10.3315 11.9839 11.3222 11.1725C13.4185 9.45492 15.5875 7.67846 15.5875 4.92931C15.5875 2.43492 13.8422 0.692383 11.3429 0.692383Z" fill="#CFCFCF"/>
</svg>
