<svg width="22" height="21" viewBox="0 0 22 21" fill="none" xmlns="http://www.w3.org/2000/svg">
    <g clip-path="url(#clip0_240_1342)">
        <path d="M19.6199 10.5001L11.5601 18.5599C10.4413 19.6499 8.93817 20.2554 7.37616 20.2453C5.81414 20.2351 4.31899 19.6101 3.21445 18.5056C2.10992 17.401 1.4849 15.9059 1.47474 14.3439C1.46457 12.7818 2.07008 11.2787 3.16015 10.1599L11.4607 1.85926C12.2034 1.11665 13.2105 0.699463 14.2607 0.699463C15.311 0.699463 16.3181 1.11665 17.0607 1.85926C17.8034 2.60187 18.2205 3.60906 18.2205 4.65926C18.2205 5.70946 17.8034 6.71665 17.0607 7.45926L8.99955 15.5205C8.62824 15.8918 8.12465 16.1004 7.59955 16.1004C7.07444 16.1004 6.57085 15.8918 6.19955 15.5205C5.82824 15.1492 5.61965 14.6456 5.61965 14.1205C5.61965 13.5954 5.82824 13.0918 6.19955 12.7205L14.0199 4.90006" stroke="black" stroke-opacity="0.4" stroke-width="1.5"/>
    </g>
    <defs>
        <clipPath id="clip0_240_1342">
            <rect width="21" height="21" fill="white" transform="translate(0.720703)"/>
        </clipPath>
    </defs>
</svg>
