<svg width="20" height="20" viewBox="0 0 20 20" fill="none" xmlns="http://www.w3.org/2000/svg">
    <g clip-path="url(#clip0_9_748)">
        <g clip-path="url(#clip1_9_748)">
            <path d="M18.8632 9.77115C18.8632 9.01869 18.8034 8.46958 18.6741 7.90015H10.2634V11.2964H15.2003C15.1008 12.1404 14.5633 13.4115 13.3689 14.2656L13.3521 14.3793L16.0114 16.484L16.1957 16.5028C17.8877 14.9063 18.8632 12.5573 18.8632 9.77115Z" fill="#4285F4"/>
            <path d="M10.2633 18.7195C12.682 18.7195 14.7124 17.906 16.1956 16.5028L13.3688 14.2656C12.6123 14.8046 11.597 15.1808 10.2633 15.1808C7.89442 15.1808 5.88384 13.5844 5.16713 11.3778L5.06207 11.3869L2.2969 13.5732L2.26074 13.6759C3.73383 16.6654 6.75968 18.7195 10.2633 18.7195Z" fill="#34A853"/>
            <path d="M5.16707 11.3778C4.97796 10.8084 4.86851 10.1982 4.86851 9.5678C4.86851 8.93731 4.97796 8.32721 5.15712 7.75778L5.15211 7.63651L2.35229 5.41513L2.26068 5.45965C1.65355 6.70023 1.30518 8.09336 1.30518 9.5678C1.30518 11.0422 1.65355 12.4353 2.26068 13.6759L5.16707 11.3778Z" fill="#FBBC05"/>
            <path d="M10.2633 3.9547C11.9454 3.9547 13.0801 4.697 13.7271 5.31733L16.2553 2.7955C14.7026 1.32106 12.682 0.416046 10.2633 0.416046C6.75968 0.416046 3.73383 2.47009 2.26074 5.45963L5.15718 7.75777C5.88384 5.55119 7.89442 3.9547 10.2633 3.9547Z" fill="#EB4335"/>
        </g>
    </g>
    <defs>
        <clipPath id="clip0_9_748">
            <rect width="19.322" height="19.322" fill="white" transform="translate(0.339111 0.389832)"/>
        </clipPath>
        <clipPath id="clip1_9_748">
            <rect x="1.30518" y="0.389832" width="17.5578" height="18.3559" rx="8.77892" fill="white"/>
        </clipPath>
    </defs>
</svg>
