<svg width="25" height="25" viewBox="0 0 25 25" fill="none" xmlns="http://www.w3.org/2000/svg">
    <g clip-path="url(#clip0_203_4386)">
        <path d="M12.5 1.38892C10.3024 1.38892 8.15421 2.04057 6.327 3.26148C4.49979 4.48238 3.07565 6.2177 2.23467 8.24799C1.3937 10.2783 1.17366 12.5124 1.60239 14.6677C2.03111 16.823 3.08934 18.8029 4.64326 20.3568C6.19718 21.9107 8.17699 22.9689 10.3323 23.3976C12.4877 23.8264 14.7217 23.6063 16.752 22.7654C18.7823 21.9244 20.5176 20.5002 21.7386 18.673C22.9595 16.8458 23.6111 14.6976 23.6111 12.5C23.6111 9.55318 22.4405 6.72702 20.3567 4.64329C18.273 2.55955 15.4469 1.38892 12.5 1.38892ZM12.3472 19.3403C12.1206 19.3403 11.8991 19.2731 11.7106 19.1472C11.5222 19.0213 11.3753 18.8423 11.2886 18.633C11.2019 18.4236 11.1792 18.1932 11.2234 17.9709C11.2676 17.7487 11.3767 17.5445 11.537 17.3842C11.6972 17.224 11.9014 17.1149 12.1237 17.0707C12.346 17.0264 12.5763 17.0491 12.7857 17.1359C12.9951 17.2226 13.174 17.3694 13.2999 17.5579C13.4259 17.7463 13.4931 17.9678 13.4931 18.1945C13.4931 18.4984 13.3723 18.7898 13.1574 19.0047C12.9426 19.2196 12.6511 19.3403 12.3472 19.3403ZM13.2986 13.7431V14.9375C13.2972 15.1804 13.2028 15.4136 13.035 15.5892C12.8671 15.7648 12.6384 15.8696 12.3958 15.882H12.3194C12.1967 15.8866 12.0742 15.8669 11.959 15.8239C11.8439 15.781 11.7384 15.7156 11.6487 15.6317C11.559 15.5478 11.4867 15.4469 11.4362 15.3349C11.3856 15.2229 11.3577 15.102 11.3542 14.9792V13.0625C11.3427 12.9512 11.354 12.8387 11.3873 12.7319C11.4207 12.625 11.4754 12.5261 11.5481 12.441C11.6208 12.3559 11.7101 12.2865 11.8104 12.237C11.9108 12.1874 12.0202 12.1588 12.1319 12.1528C13.2222 12.0695 15.0347 11.6667 15.0347 9.89586C15.0347 8.62503 14.0556 7.76392 12.6528 7.76392C12.121 7.7727 11.5974 7.8964 11.118 8.12655C10.6385 8.35669 10.2145 8.68783 9.875 9.09725C9.74661 9.23367 9.58055 9.32883 9.39794 9.37062C9.21532 9.41241 9.02441 9.39896 8.84946 9.33195C8.67452 9.26496 8.52345 9.14744 8.41547 8.99436C8.30749 8.84127 8.24747 8.65953 8.24306 8.47225C8.24715 8.21045 8.35448 7.96087 8.54167 7.7778C9.05738 7.18075 9.69775 6.70405 10.4177 6.3813C11.1376 6.05854 11.9195 5.89758 12.7083 5.90975C15.2778 5.90975 17.0694 7.50697 17.0694 9.79864C17.0694 11.9167 15.7014 13.3334 13.2986 13.7431Z" fill="#1E66CA"/>
    </g>
    <defs>
        <clipPath id="clip0_203_4386">
            <rect width="25" height="25" fill="white"/>
        </clipPath>
    </defs>
</svg>
