<svg width="25" height="25" viewBox="0 0 25 25" fill="none" xmlns="http://www.w3.org/2000/svg">
    <g clip-path="url(#clip0_203_4451)">
        <path d="M7.96931 21.7812C7.93806 21.7812 7.8964 21.802 7.86515 21.802C5.84431 20.802 4.19848 19.1458 3.18806 17.1249C3.18806 17.0937 3.2089 17.052 3.2089 17.0208C4.47973 17.3958 5.79223 17.677 7.09431 17.8958C7.32348 19.2083 7.59431 20.5103 7.96931 21.7812Z" fill="#1E66CA"/>
        <path d="M21.8115 17.1353C20.7803 19.2083 19.0615 20.8853 16.9678 21.8958C17.3636 20.5728 17.6969 19.2395 17.9157 17.8958C19.2282 17.677 20.5199 17.3958 21.7907 17.0208C21.7803 17.0624 21.8115 17.1041 21.8115 17.1353Z" fill="#1E66CA"/>
        <path d="M21.8949 8.03182C20.5824 7.63599 19.2594 7.31307 17.9157 7.0839C17.6969 5.74015 17.374 4.40682 16.9678 3.10474C19.124 4.13599 20.8636 5.87557 21.8949 8.03182Z" fill="#1E66CA"/>
        <path d="M7.96924 3.21826C7.59424 4.48909 7.32341 5.78076 7.10466 7.09326C5.76091 7.30159 4.42758 7.63493 3.10466 8.03076C4.11508 5.93701 5.79216 4.21826 7.86508 3.18701C7.89633 3.18701 7.93799 3.21826 7.96924 3.21826Z" fill="#1E66CA"/>
        <path d="M16.1354 6.8645C13.7187 6.59367 11.2812 6.59367 8.86458 6.8645C9.12499 5.43742 9.45833 4.01034 9.92708 2.63534C9.94791 2.552 9.93749 2.4895 9.94791 2.40617C10.7708 2.20825 11.6146 2.08325 12.5 2.08325C13.375 2.08325 14.2292 2.20825 15.0417 2.40617C15.0521 2.4895 15.0521 2.552 15.0729 2.63534C15.5417 4.02075 15.875 5.43742 16.1354 6.8645Z" fill="#1E66CA"/>
        <path d="M6.86458 16.1353C5.42708 15.8749 4.01041 15.5416 2.63541 15.0728C2.55208 15.052 2.48958 15.0624 2.40624 15.052C2.20833 14.2291 2.08333 13.3853 2.08333 12.4999C2.08333 11.6249 2.20833 10.7708 2.40624 9.95825C2.48958 9.94784 2.55208 9.94783 2.63541 9.927C4.02083 9.46867 5.42708 9.12492 6.86458 8.8645C6.60416 11.2812 6.60416 13.7187 6.86458 16.1353Z" fill="#1E66CA"/>
        <path d="M22.9167 12.4999C22.9167 13.3853 22.7917 14.2291 22.5937 15.052C22.5104 15.0624 22.4479 15.052 22.3646 15.0728C20.9792 15.5312 19.5625 15.8749 18.1354 16.1353C18.4062 13.7187 18.4062 11.2812 18.1354 8.8645C19.5625 9.12492 20.9896 9.45825 22.3646 9.927C22.4479 9.94783 22.5104 9.95825 22.5937 9.95825C22.7917 10.7812 22.9167 11.6249 22.9167 12.4999Z" fill="#1E66CA"/>
        <path d="M16.1354 18.1355C15.875 19.573 15.5417 20.9897 15.0729 22.3647C15.0521 22.448 15.0521 22.5105 15.0417 22.5938C14.2292 22.7917 13.375 22.9167 12.5 22.9167C11.6146 22.9167 10.7708 22.7917 9.94791 22.5938C9.93749 22.5105 9.94791 22.448 9.92708 22.3647C9.46874 20.9792 9.12499 19.573 8.86458 18.1355C10.0729 18.2709 11.2812 18.3647 12.5 18.3647C13.7187 18.3647 14.9375 18.2709 16.1354 18.1355Z" fill="#1E66CA"/>
        <path d="M16.4201 16.4201C13.8148 16.7488 11.1852 16.7488 8.57986 16.4201C8.25115 13.8147 8.25115 11.1851 8.57986 8.57978C11.1852 8.25108 13.8148 8.25108 16.4201 8.57978C16.7488 11.1851 16.7488 13.8147 16.4201 16.4201Z" fill="#1E66CA"/>
    </g>
    <defs>
        <clipPath id="clip0_203_4451">
            <rect width="25" height="25" fill="white"/>
        </clipPath>
    </defs>
</svg>
