<svg width="15" height="15" viewBox="0 0 15 15" fill="none" xmlns="http://www.w3.org/2000/svg">
    <path d="M11.0361 3.31498C9.08358 1.39436 5.91795 1.39436 3.96545 3.31498C3.50188 3.76788 3.13352 4.30887 2.88203 4.90617C2.63053 5.50347 2.50098 6.14502 2.50098 6.79311C2.50098 7.44119 2.63053 8.08274 2.88203 8.68004C3.13352 9.27734 3.50188 9.81833 3.96545 10.2712L7.50045 13.7494L11.0361 10.2712C11.4997 9.81833 11.868 9.27734 12.1195 8.68004C12.371 8.08274 12.5006 7.44119 12.5006 6.79311C12.5006 6.14502 12.371 5.50347 12.1195 4.90617C11.868 4.30887 11.4997 3.76788 11.0361 3.31498ZM7.50045 8.43686C7.08295 8.43686 6.69108 8.27436 6.39545 7.97936C6.1028 7.68607 5.93844 7.28868 5.93844 6.87436C5.93844 6.46004 6.1028 6.06264 6.39545 5.76936C6.69045 5.47436 7.08295 5.31186 7.50045 5.31186C7.91795 5.31186 8.31045 5.47436 8.60545 5.76936C8.89811 6.06264 9.06247 6.46004 9.06247 6.87436C9.06247 7.28868 8.89811 7.68607 8.60545 7.97936C8.31045 8.27436 7.91795 8.43686 7.50045 8.43686Z" fill="#2C2C2C"/>
</svg>
