<svg width="25" height="25" viewBox="0 0 25 25" fill="none" xmlns="http://www.w3.org/2000/svg">
    <path d="M8.20833 12.5731C8.20833 12.146 8.5625 11.7918 8.98958 11.7918H14.6979V2.97933C14.6875 2.47933 14.2917 2.0835 13.7917 2.0835C7.65625 2.0835 3.375 6.36475 3.375 12.5002C3.375 18.6356 7.65625 22.9168 13.7917 22.9168C14.2813 22.9168 14.6875 22.521 14.6875 22.021V13.3439H8.98958C8.55208 13.3543 8.20833 13.0002 8.20833 12.5731Z" fill="#1E66CA"/>
    <path d="M21.3959 12.021L18.4376 9.05225C18.1355 8.75016 17.6355 8.75016 17.3334 9.05225C17.0313 9.35433 17.0313 9.85433 17.3334 10.1564L18.9584 11.7814H14.6876V13.3439H18.948L17.323 14.9689C17.0209 15.271 17.0209 15.771 17.323 16.0731C17.4793 16.2293 17.6772 16.3022 17.8751 16.3022C18.073 16.3022 18.2709 16.2293 18.4272 16.0731L21.3855 13.1043C21.698 12.8127 21.698 12.3231 21.3959 12.021Z" fill="#1E66CA"/>
</svg>
