<svg width="32" height="32" viewBox="0 0 32 32" fill="none" xmlns="http://www.w3.org/2000/svg">
    <path d="M26.92 18.7466L25.4133 16.2399C25.08 15.6933 24.7867 14.6399 24.7867 13.9999V11.5066C24.7867 6.66661 20.8533 2.73328 16.0267 2.73328C11.1867 2.74661 7.25334 6.66661 7.25334 11.5066V13.9866C7.25334 14.6266 6.96001 15.6799 6.64001 16.2266L5.13334 18.7333C4.56001 19.7066 4.42667 20.8133 4.78667 21.7733C5.14667 22.7466 5.96001 23.5199 7.02667 23.8666C8.46667 24.3466 9.92001 24.6933 11.4 24.9466C11.5467 24.9733 11.6933 24.9866 11.84 25.0133C12.0267 25.0399 12.2267 25.0666 12.4267 25.0933C12.7733 25.1466 13.12 25.1866 13.48 25.2133C14.32 25.2933 15.1733 25.3333 16.0267 25.3333C16.8667 25.3333 17.7067 25.2933 18.5333 25.2133C18.84 25.1866 19.1467 25.1599 19.44 25.1199C19.68 25.0933 19.92 25.0666 20.16 25.0266C20.3067 25.0133 20.4533 24.9866 20.6 24.9599C22.0933 24.7199 23.5733 24.3466 25.0133 23.8666C26.04 23.5199 26.8267 22.7466 27.2 21.7599C27.5733 20.7599 27.4667 19.6666 26.92 18.7466ZM17 13.3333C17 13.8933 16.5467 14.3466 15.9867 14.3466C15.4267 14.3466 14.9733 13.8933 14.9733 13.3333V9.19994C14.9733 8.63994 15.4267 8.18661 15.9867 8.18661C16.5467 8.18661 17 8.63994 17 9.19994V13.3333Z" fill="#2C2C2C"/>
    <path d="M19.7733 26.68C19.2133 28.2266 17.7333 29.3333 16 29.3333C14.9467 29.3333 13.9067 28.9066 13.1733 28.1466C12.7467 27.7466 12.4267 27.2133 12.24 26.6666C12.4133 26.6933 12.5867 26.7066 12.7733 26.7333C13.08 26.7733 13.4 26.8133 13.72 26.84C14.48 26.9066 15.2533 26.9466 16.0267 26.9466C16.7867 26.9466 17.5467 26.9066 18.2933 26.84C18.5733 26.8133 18.8533 26.8 19.12 26.76C19.3333 26.7333 19.5467 26.7066 19.7733 26.68Z" fill="#2C2C2C"/>
</svg>
