<svg width="25" height="25" viewBox="0 0 25 25" fill="none" xmlns="http://www.w3.org/2000/svg">
    <path d="M21.7812 11.5835V7.01058C21.7812 6.15641 21.1354 5.18766 20.3333 4.86475L14.5312 2.48975C13.2292 1.9585 11.7604 1.9585 10.4583 2.48975L4.65625 4.86475C3.86458 5.18766 3.21875 6.15641 3.21875 7.01058V11.5835C3.21875 16.6772 6.91667 21.4481 11.9687 22.8439C12.3125 22.9377 12.6875 22.9377 13.0312 22.8439C18.0833 21.4481 21.7812 16.6772 21.7812 11.5835ZM13.2812 13.4064V16.146C13.2812 16.5731 12.9271 16.9272 12.5 16.9272C12.0729 16.9272 11.7187 16.5731 11.7187 16.146V13.4064C10.6667 13.0731 9.89583 12.0939 9.89583 10.9377C9.89583 9.50016 11.0625 8.3335 12.5 8.3335C13.9375 8.3335 15.1042 9.50016 15.1042 10.9377C15.1042 12.1043 14.3333 13.0731 13.2812 13.4064Z" fill="#1E66CA"/>
</svg>
