<svg width="39" height="38" viewBox="0 0 39 38" fill="none" xmlns="http://www.w3.org/2000/svg">
    <path d="M5.1875 15.8333C5.1875 9.86254 5.1875 6.87638 7.04317 5.02229C8.89725 3.16663 11.8834 3.16663 17.8542 3.16663H21.0208C26.9916 3.16663 29.9777 3.16663 31.8318 5.02229C33.6875 6.87638 33.6875 9.86254 33.6875 15.8333V22.1666C33.6875 28.1374 33.6875 31.1235 31.8318 32.9776C29.9777 34.8333 26.9916 34.8333 21.0208 34.8333H17.8542C11.8834 34.8333 8.89725 34.8333 7.04317 32.9776C5.1875 31.1235 5.1875 28.1374 5.1875 22.1666V15.8333Z" fill="#4285F4"/>
    <path d="M37.3773 29.7508C37.3773 32.8414 34.8629 35.3558 31.7723 35.3558C28.6818 35.3558 26.1673 32.8414 26.1673 29.7508C26.1673 26.6603 28.6818 24.1458 31.7723 24.1458C34.8629 24.1458 37.3773 26.6603 37.3773 29.7508Z" fill="#4285F4" stroke="white" stroke-width="0.791667"/>
    <g clip-path="url(#clip0_205_7723)">
        <path d="M33.5761 31.1118L33.5522 31.5316C33.5422 31.7094 33.3903 31.8449 33.2135 31.8339L29.5383 31.6264C29.3606 31.6163 29.225 31.4645 29.236 31.2877L29.4444 27.6135C29.4545 27.4358 29.6063 27.3002 29.7831 27.3112L30.2029 27.335C30.3825 27.3452 30.5188 27.5018 30.5048 27.6813L30.3248 29.9011L33.1963 27.3378C33.3292 27.2192 33.5316 27.2307 33.6502 27.3636L33.9356 27.6833C34.0542 27.8162 34.0427 28.0185 33.9098 28.1371L31.0383 30.7004L33.2661 30.7727C33.447 30.7782 33.5872 30.9313 33.5761 31.1118Z" fill="#FDFDFD"/>
    </g>
    <path fill-rule="evenodd" clip-rule="evenodd" d="M11.917 14.25C11.917 13.9351 12.0421 13.633 12.2648 13.4103C12.4875 13.1876 12.7895 13.0625 13.1045 13.0625H23.3962C23.7111 13.0625 24.0131 13.1876 24.2358 13.4103C24.4585 13.633 24.5837 13.9351 24.5837 14.25C24.5837 14.5649 24.4585 14.867 24.2358 15.0897C24.0131 15.3124 23.7111 15.4375 23.3962 15.4375H13.1045C12.7895 15.4375 12.4875 15.3124 12.2648 15.0897C12.0421 14.867 11.917 14.5649 11.917 14.25ZM11.917 20.5833C11.917 20.2684 12.0421 19.9663 12.2648 19.7436C12.4875 19.5209 12.7895 19.3958 13.1045 19.3958H17.8545C18.1694 19.3958 18.4715 19.5209 18.6942 19.7436C18.9169 19.9663 19.042 20.2684 19.042 20.5833C19.042 20.8983 18.9169 21.2003 18.6942 21.423C18.4715 21.6457 18.1694 21.7708 17.8545 21.7708H13.1045C12.7895 21.7708 12.4875 21.6457 12.2648 21.423C12.0421 21.2003 11.917 20.8983 11.917 20.5833ZM11.917 26.9167C11.917 26.6017 12.0421 26.2997 12.2648 26.077C12.4875 25.8543 12.7895 25.7292 13.1045 25.7292H15.4795C15.7944 25.7292 16.0965 25.8543 16.3192 26.077C16.5419 26.2997 16.667 26.6017 16.667 26.9167C16.667 27.2316 16.5419 27.5337 16.3192 27.7564C16.0965 27.9791 15.7944 28.1042 15.4795 28.1042H13.1045C12.7895 28.1042 12.4875 27.9791 12.2648 27.7564C12.0421 27.5337 11.917 27.2316 11.917 26.9167Z" fill="white"/>
    <defs>
        <clipPath id="clip0_205_7723">
            <rect width="6" height="6.85714" fill="white" transform="translate(30.9951 34.0425) rotate(-131.754)"/>
        </clipPath>
    </defs>
</svg>
