<svg width="57" height="57" viewBox="0 0 57 57" fill="none" xmlns="http://www.w3.org/2000/svg">
    <path d="M19.2731 40.375C18.1806 40.375 17.2686 40.0093 16.5371 39.2778C15.804 38.5447 15.4375 37.6319 15.4375 36.5394V10.9606C15.4375 9.86812 15.804 8.95613 16.5371 8.22463C17.2686 7.49154 18.1806 7.125 19.2731 7.125H44.8519C45.9444 7.125 46.8564 7.49154 47.5879 8.22463C48.321 8.95613 48.6875 9.86812 48.6875 10.9606V36.5394C48.6875 37.6319 48.3218 38.5447 47.5903 39.2778C46.8572 40.0093 45.9444 40.375 44.8519 40.375H19.2731ZM12.1481 47.5C11.0556 47.5 10.1436 47.1343 9.41213 46.4028C8.67904 45.6697 8.3125 44.7569 8.3125 43.6644V16.8981C8.3125 16.5609 8.42571 16.279 8.65212 16.0526C8.88012 15.8246 9.16275 15.7106 9.5 15.7106C9.83725 15.7106 10.1199 15.8246 10.3479 16.0526C10.5759 16.2806 10.6891 16.5625 10.6875 16.8981V43.6644C10.6875 44.0285 10.8395 44.3634 11.1435 44.669C11.4491 44.973 11.784 45.125 12.1481 45.125H38.9144C39.2516 45.125 39.5335 45.2382 39.7599 45.4646C39.9863 45.691 40.1003 45.9737 40.1019 46.3125C40.1019 46.6497 39.9879 46.9324 39.7599 47.1604C39.5335 47.3868 39.2516 47.5 38.9144 47.5H12.1481ZM32.0625 22.3559C32.0625 22.7406 32.2224 23.0264 32.5422 23.2133C32.8621 23.4001 33.189 23.3906 33.5231 23.1847L35.8388 21.7669C36.1443 21.561 36.4689 21.4581 36.8125 21.4581C37.1561 21.4581 37.4807 21.561 37.7862 21.7669L40.1019 23.1847C40.436 23.3906 40.7629 23.4001 41.0828 23.2133C41.4026 23.0264 41.5625 22.7414 41.5625 22.3582V9.5H32.0625V22.3559Z" fill="#1E66CA"/>
</svg>
