<svg width="25" height="24" viewBox="0 0 25 24" fill="none" xmlns="http://www.w3.org/2000/svg">
    <path d="M3.97006 2.24994C3.14463 1.85566 2.23777 2.60994 2.47349 3.49366L4.20149 9.95051C4.24479 10.1128 4.33482 10.2588 4.46039 10.3703C4.58595 10.4819 4.74152 10.5541 4.90777 10.5779L13.3798 11.7882C13.6249 11.8225 13.6249 12.1774 13.3798 12.2125L4.90863 13.4219C4.74238 13.4458 4.58681 13.518 4.46124 13.6296C4.33568 13.7411 4.24565 13.8871 4.20234 14.0494L2.47349 20.5097C2.23777 21.3925 3.14463 22.1468 3.97006 21.7534L22.3969 12.9685C23.2103 12.5811 23.2103 11.4222 22.3969 11.0339L3.97006 2.24994Z" fill="#1E66CA"/>
</svg>
