<svg width="25" height="25" viewBox="0 0 25 25" fill="none" xmlns="http://www.w3.org/2000/svg">
    <path d="M16.0317 5.42709L17.5004 8.36459C17.6983 8.77084 18.2296 9.15625 18.6775 9.23959L21.3337 9.67709C23.0317 9.95834 23.4275 11.1875 22.2087 12.4167L20.1358 14.4896C19.7921 14.8333 19.5942 15.5104 19.7087 16L20.3025 18.5625C20.7712 20.5833 19.6879 21.375 17.9067 20.3125L15.4171 18.8333C14.9692 18.5625 14.2192 18.5625 13.7712 18.8333L11.2817 20.3125C9.50041 21.3646 8.41707 20.5833 8.88582 18.5625L9.47957 16C9.57332 15.5 9.37541 14.8229 9.03166 14.4792L6.95874 12.4063C5.73999 11.1875 6.13582 9.95834 7.83374 9.66667L10.49 9.22917C10.9379 9.15625 11.4692 8.76042 11.6671 8.35417L13.1358 5.41667C13.9379 3.83334 15.2296 3.83334 16.0317 5.42709Z" fill="#1E66CA"/>
    <path d="M8.33301 5.9895H2.08301C1.65592 5.9895 1.30176 5.63534 1.30176 5.20825C1.30176 4.78117 1.65592 4.427 2.08301 4.427H8.33301C8.76009 4.427 9.11426 4.78117 9.11426 5.20825C9.11426 5.63534 8.76009 5.9895 8.33301 5.9895Z" fill="#1E66CA"/>
    <path d="M5.20801 20.573H2.08301C1.65592 20.573 1.30176 20.2188 1.30176 19.7917C1.30176 19.3647 1.65592 19.0105 2.08301 19.0105H5.20801C5.63509 19.0105 5.98926 19.3647 5.98926 19.7917C5.98926 20.2188 5.63509 20.573 5.20801 20.573Z" fill="#1E66CA"/>
    <path d="M3.12467 13.2812H2.08301C1.65592 13.2812 1.30176 12.9271 1.30176 12.5C1.30176 12.0729 1.65592 11.7188 2.08301 11.7188H3.12467C3.55176 11.7188 3.90592 12.0729 3.90592 12.5C3.90592 12.9271 3.55176 13.2812 3.12467 13.2812Z" fill="#1E66CA"/>
</svg>
