<svg width="25" height="25" viewBox="0 0 25 25" fill="none" xmlns="http://www.w3.org/2000/svg">
    <path d="M20.804 1.82275H17.7415C16.4186 1.82275 15.627 2.61442 15.627 3.93734V6.99984C15.627 8.32275 16.4186 9.11442 17.7415 9.11442H20.804C22.127 9.11442 22.9186 8.32275 22.9186 6.99984V3.93734C22.9186 2.61442 22.127 1.82275 20.804 1.82275ZM21.0332 5.27067C20.9082 5.39567 20.7415 5.45817 20.5749 5.45817C20.4082 5.45817 20.2415 5.39567 20.1165 5.27067L19.929 5.08317V7.4165C19.929 7.78109 19.6374 8.07275 19.2728 8.07275C18.9082 8.07275 18.6165 7.78109 18.6165 7.4165V5.08317L18.429 5.27067C18.179 5.52067 17.7624 5.52067 17.5124 5.27067C17.2624 5.02067 17.2624 4.604 17.5124 4.354L18.8145 3.05192C18.8665 2.99984 18.9395 2.95817 19.0124 2.92692C19.0332 2.9165 19.054 2.9165 19.0749 2.90609C19.127 2.88525 19.179 2.87484 19.2415 2.87484C19.2624 2.87484 19.2832 2.87484 19.304 2.87484C19.377 2.87484 19.4395 2.88525 19.5124 2.9165C19.5228 2.9165 19.5228 2.9165 19.5332 2.9165C19.6061 2.94775 19.6686 2.98942 19.7207 3.0415C19.7311 3.05192 19.7311 3.05192 19.7415 3.05192L21.0436 4.354C21.2936 4.604 21.2936 5.02067 21.0332 5.27067Z" fill="#1E66CA"/>
    <path d="M2.08496 11.9372V17.1455C2.08496 19.5309 4.01204 21.458 6.39746 21.458H18.5954C20.9808 21.458 22.9183 19.5205 22.9183 17.1351V11.9372C22.9183 11.2393 22.3558 10.6768 21.6579 10.6768H3.34538C2.64746 10.6768 2.08496 11.2393 2.08496 11.9372ZM8.33496 17.9684H6.25163C5.82454 17.9684 5.47038 17.6143 5.47038 17.1872C5.47038 16.7601 5.82454 16.4059 6.25163 16.4059H8.33496C8.76204 16.4059 9.11621 16.7601 9.11621 17.1872C9.11621 17.6143 8.76204 17.9684 8.33496 17.9684ZM15.1058 17.9684H10.9391C10.512 17.9684 10.1579 17.6143 10.1579 17.1872C10.1579 16.7601 10.512 16.4059 10.9391 16.4059H15.1058C15.5329 16.4059 15.887 16.7601 15.887 17.1872C15.887 17.6143 15.5329 17.9684 15.1058 17.9684Z" fill="#1E66CA"/>
    <path d="M14.0641 4.80241V7.85449C14.0641 8.55241 13.5016 9.11491 12.8037 9.11491H3.34538C2.63704 9.11491 2.08496 8.53158 2.08496 7.83366C2.09538 6.65658 2.56413 5.58366 3.34538 4.80241C4.12663 4.02116 5.20996 3.54199 6.39746 3.54199H12.8037C13.5016 3.54199 14.0641 4.10449 14.0641 4.80241Z" fill="#1E66CA"/>
</svg>
