<svg width="46" height="46" viewBox="0 0 46 46" fill="none" xmlns="http://www.w3.org/2000/svg">
    <path d="M34.0249 24.9134V26.0801C34.0249 26.3951 33.7799 26.6517 33.4532 26.6634H31.7499C31.1315 26.6634 30.5715 26.2084 30.5249 25.6017C30.4899 25.2401 30.6299 24.9017 30.8632 24.6684C31.0732 24.4467 31.3649 24.3301 31.6799 24.3301H33.4415C33.7799 24.3417 34.0249 24.5984 34.0249 24.9134Z" fill="#1E66CA"/>
    <path d="M29.9884 23.805C29.4051 24.3767 29.1251 25.2283 29.3584 26.115C29.6617 27.2 30.7234 27.8883 31.8434 27.8883H32.8584C33.5001 27.8883 34.0251 28.4133 34.0251 29.055V29.2767C34.0251 31.6917 32.0534 33.6633 29.6384 33.6633H16.2451C13.8301 33.6633 11.8584 31.6917 11.8584 29.2767V21.425C11.8584 19.99 12.5467 18.7183 13.6084 17.925C14.3434 17.365 15.2534 17.0383 16.2451 17.0383H29.6384C32.0534 17.0383 34.0251 19.01 34.0251 21.425V21.9383C34.0251 22.58 33.5001 23.105 32.8584 23.105H31.6684C31.0151 23.105 30.4201 23.3617 29.9884 23.805Z" fill="#1E66CA"/>
    <path d="M27.9002 14.6233C28.2152 14.9383 27.9469 15.4283 27.5036 15.4283L18.5436 15.4166C18.0302 15.4166 17.7619 14.7866 18.1352 14.4249L20.0252 12.5233C21.6236 10.9366 24.2136 10.9366 25.8119 12.5233L27.8536 14.5883C27.8652 14.5999 27.8886 14.6116 27.9002 14.6233Z" fill="#1E66CA"/>
</svg>
